<svg width="30" height="30" viewBox="0 0 30 30" fill="none" xmlns="http://www.w3.org/2000/svg">
<g clip-path="url(#clip0_58_1268)">
<path d="M20.0006 5.17224H29.4833C29.769 5.17224 30.0006 5.40386 30.0006 5.68951V24.3102C30.0006 24.5958 29.769 24.8275 29.4833 24.8275H20.0006V5.17224Z" fill="#FF4B55"/>
<path d="M20.001 5.17249H10.0008V24.8278H20.001V5.17249Z" fill="#FFE15A"/>
<path d="M0.517815 5.17224H10.0006V24.8274H0.517815C0.23217 24.8274 0.000549316 24.5958 0.000549316 24.3101V5.68945C0.000549316 5.4038 0.23217 5.17224 0.517815 5.17224Z" fill="#41479B"/>
<path d="M16.8335 18.5447L17.0908 18.335L15.9183 16.8969L15.661 17.1067L16.8335 18.5447Z" fill="#FFCD5A"/>
<path d="M16.0473 17.8449L16.5619 17.4257L16.0462 16.7925L15.5315 17.2118L16.0473 17.8449Z" fill="#FFBE5A"/>
<path d="M14.484 17.1068L14.2267 16.897L13.0542 18.335L13.3115 18.5448L14.484 17.1068Z" fill="#FFCD5A"/>
<path d="M14.6123 17.2119L14.0977 16.7926L13.5819 17.4257L14.0966 17.845L14.6123 17.2119Z" fill="#FFBE5A"/>
<path d="M14.6572 17.4365L13.8273 19.0963L14.9891 19.9262V17.6025L14.6572 17.4365Z" fill="#FFE15A"/>
<path d="M15.3211 17.4365L16.1509 19.0963L14.9891 19.9262V17.6025L15.3211 17.4365Z" fill="#FFCD5A"/>
<path d="M12.6655 17.4365V13.1211H13.1634C13.1634 13.1211 13.1634 15.9427 13.1634 16.4406C13.1634 16.9386 12.6655 17.4365 12.6655 17.4365Z" fill="#FFBE5A"/>
<path d="M12.3334 18.2664V13.1211H12.8313C12.8313 13.1211 12.8313 16.7726 12.8313 17.2705C12.8312 17.7685 12.3334 18.2664 12.3334 18.2664Z" fill="#FFCD5A"/>
<path d="M12.0015 18.9304V13.1212H12.4995C12.4995 13.1212 12.4995 17.4366 12.4995 17.9345C12.4995 18.4324 12.0015 18.9304 12.0015 18.9304Z" fill="#FFE15A"/>
<path d="M13.1633 13.2871C13.1633 13.2871 13.1633 15.6522 13.1633 16.4407C13.1633 17.2706 14.3667 17.1599 14.9891 17.7685C15.6115 17.1599 16.8148 17.2705 16.8148 16.4407C16.8148 15.6523 16.8148 13.2871 16.8148 13.2871H13.1633Z" fill="#FF4B55"/>
<path d="M13.1633 15.1129C13.1633 15.6383 13.1633 16.1481 13.1633 16.4407C13.1633 17.2706 14.3667 17.1599 14.9891 17.7685C15.6115 17.1599 16.8148 17.2706 16.8148 16.4406C16.8148 16.1481 16.8148 15.6383 16.8148 15.1128L13.1633 15.1129Z" fill="#41479B"/>
<path d="M14.9888 17.2706L14.4909 16.9386V16.7726L14.6569 16.6067V15.6108L14.1589 15.2789L14.6569 14.6149H14.8228L14.9888 14.781L15.1548 14.6149H15.3208L15.8187 15.2789L15.3208 15.6108V16.6067L15.4867 16.7726V16.9386L14.9888 17.2706Z" fill="#FFE15A"/>
<path d="M14.3249 13.4531C14.3249 13.4531 13.661 13.6191 13.661 14.283C13.661 14.947 14.3249 15.2789 14.3249 15.2789L14.6568 14.781C13.6609 14.449 14.3249 13.4531 14.3249 13.4531Z" fill="#FFE15A"/>
<path d="M15.6527 13.4531C15.6527 13.4531 16.3166 13.6191 16.3166 14.283C16.3166 14.947 15.6527 15.2789 15.6527 15.2789L15.3208 14.781C16.3166 14.449 15.6527 13.4531 15.6527 13.4531Z" fill="#FFE15A"/>
<path d="M13.329 15.1129L13.6609 15.2788L13.9929 15.1129L13.6609 14.9469L13.329 15.1129Z" fill="#FFE15A"/>
<path d="M15.9847 15.1129L16.3167 15.2788L16.6487 15.1129L16.3167 14.9469L15.9847 15.1129Z" fill="#FFE15A"/>
<path d="M14.9888 13.5361L15.1095 13.6597L15.2822 13.6576L15.2802 13.8303L15.4038 13.951L15.2802 14.0717L15.2822 14.2444L15.1095 14.2424L14.9888 14.366L14.8682 14.2424L14.6954 14.2444L14.6975 14.0717L14.5739 13.951L14.6975 13.8303L14.6954 13.6576L14.8682 13.6597L14.9888 13.5361Z" fill="#FFE15A"/>
<path d="M13.8621 15.8378L13.9817 15.9709L14.1481 15.9049C14.2343 15.8708 14.3152 15.9645 14.2688 16.0447L14.1792 16.1997L14.2934 16.3377C14.3525 16.409 14.2883 16.515 14.1977 16.4956L14.0226 16.4582L13.9267 16.6095C13.8771 16.6878 13.7566 16.6595 13.7469 16.5672L13.7283 16.3892L13.5549 16.3447C13.4651 16.3217 13.4548 16.1984 13.5394 16.1608L13.703 16.0881L13.6917 15.9095C13.686 15.8168 13.8001 15.7688 13.8621 15.8378Z" fill="#FFE15A"/>
<path d="M16.0723 16.2162C16.1089 16.0274 16.2647 15.8937 16.4462 15.8736C16.409 15.8535 16.3694 15.837 16.3257 15.8285C16.0932 15.7835 15.8682 15.9354 15.8231 16.1678C15.7781 16.4003 15.93 16.6253 16.1625 16.6704C16.2062 16.6789 16.2491 16.6784 16.2911 16.6737C16.1302 16.5871 16.0357 16.405 16.0723 16.2162Z" fill="#FFE15A"/>
<path d="M14.3249 13.2871L14.6568 11.6273L13.993 11.1294L14.159 10.9634H14.4909C14.4909 10.9634 14.6569 10.7974 14.9888 10.7974C15.3208 10.7974 15.6527 10.9634 15.6527 11.4613C15.6527 11.9592 15.8187 13.287 15.8187 13.287H14.3249V13.2871Z" fill="#FFE15A"/>
<path d="M13.1634 12.6232C12.7967 12.6232 12.4995 12.9204 12.4995 13.287H13.8274C13.8273 12.9204 13.53 12.6232 13.1634 12.6232Z" fill="#FFAA5A"/>
<path d="M12.9974 13.2871H12.0015V12.1823C12.0015 11.9675 12.1757 11.7933 12.3905 11.7933H12.6084C12.8232 11.7933 12.9974 11.9675 12.9974 12.1823V13.2871Z" fill="#FFBE5A"/>
<path d="M17.3125 17.4366V13.1212H16.8145C16.8145 13.1212 16.8145 15.9429 16.8145 16.4407C16.8145 16.9387 17.3125 17.4366 17.3125 17.4366Z" fill="#FFBE5A"/>
<path d="M17.6447 18.2664V13.1211H17.1468C17.1468 13.1211 17.1468 16.7726 17.1468 17.2705C17.1468 17.7685 17.6447 18.2664 17.6447 18.2664Z" fill="#FFCD5A"/>
<path d="M17.9767 18.9304V13.1212H17.4788C17.4788 13.1212 17.4788 17.4366 17.4788 17.9345C17.4787 18.4324 17.9767 18.9304 17.9767 18.9304Z" fill="#FFE15A"/>
<path d="M16.8149 12.6232C17.1815 12.6232 17.4787 12.9204 17.4787 13.287H16.1509C16.1509 12.9204 16.4482 12.6232 16.8149 12.6232Z" fill="#FFAA5A"/>
<path d="M16.9808 13.2871H17.9767V12.1823C17.9767 11.9675 17.8025 11.7933 17.5877 11.7933H17.3699C17.155 11.7933 16.9809 11.9675 16.9809 12.1823L16.9808 13.2871Z" fill="#FFBE5A"/>
<path d="M18.9028 15.1776L18.6901 15.0482L16.3658 18.8651L16.5785 18.9946L18.9028 15.1776Z" fill="#FFAA5A"/>
<path d="M16.8758 18.7748L17.2903 18.2562L16.8848 17.932L16.4702 18.4506L16.8758 18.7748Z" fill="#FFE15A"/>
<path d="M18.9712 15.2207L18.6168 15.0049L18.1189 15.823L18.4733 16.0387L18.9712 15.2207Z" fill="#FFCD5A"/>
<path d="M13.726 18.8616L11.3832 15.2375L11.2438 15.3276L13.5866 18.9517L13.726 18.8616Z" fill="#73AF00"/>
<path d="M12.857 16.9561C12.7975 17.0236 12.758 17.126 12.748 17.244C12.6662 17.1614 12.5722 17.1088 12.4846 17.0946C12.4615 17.1802 12.4709 17.2876 12.5127 17.3961C12.401 17.3567 12.2915 17.3507 12.2056 17.3773C12.2298 17.4996 12.3294 17.6324 12.4822 17.7235C12.6349 17.8147 12.7991 17.8393 12.9182 17.8025L12.9523 17.7805C13.0348 17.6869 13.0797 17.5271 13.0593 17.3505C13.0388 17.1738 12.9585 17.0284 12.857 16.9561Z" fill="#73AF00"/>
<path d="M12.9352 17.9578C13.0268 17.9578 13.1012 17.8835 13.1012 17.7919C13.1012 17.7002 13.0268 17.6259 12.9352 17.6259C12.8435 17.6259 12.7692 17.7002 12.7692 17.7919C12.7692 17.8835 12.8435 17.9578 12.9352 17.9578Z" fill="#FF4B55"/>
<path d="M12.2259 15.9803C12.1664 16.0478 12.1269 16.1502 12.117 16.2682C12.0351 16.1856 11.9411 16.133 11.8536 16.1189C11.8305 16.2045 11.8399 16.3118 11.8816 16.4203C11.7699 16.381 11.6605 16.3749 11.5745 16.4015C11.5987 16.5239 11.6984 16.6566 11.8511 16.7478C12.0038 16.8389 12.168 16.8635 12.2872 16.8267L12.3213 16.8047C12.4037 16.7111 12.4487 16.5513 12.4283 16.3747C12.4078 16.198 12.3275 16.0526 12.2259 15.9803Z" fill="#73AF00"/>
<path d="M12.3046 16.9823C12.3963 16.9823 12.4706 16.9079 12.4706 16.8163C12.4706 16.7246 12.3963 16.6503 12.3046 16.6503C12.213 16.6503 12.1386 16.7246 12.1386 16.8163C12.1386 16.9079 12.213 16.9823 12.3046 16.9823Z" fill="#FF4B55"/>
<path d="M11.5953 15.0046C11.5358 15.0721 11.4963 15.1745 11.4863 15.2925C11.4045 15.2099 11.3105 15.1573 11.2229 15.1432C11.1999 15.2288 11.2092 15.3361 11.251 15.4446C11.1393 15.4052 11.0298 15.3992 10.9439 15.4258C10.9681 15.5482 11.0677 15.6809 11.2205 15.772C11.3732 15.8632 11.5374 15.8878 11.6565 15.851L11.6906 15.829C11.7731 15.7354 11.818 15.5756 11.7976 15.399C11.777 15.2223 11.6969 15.0769 11.5953 15.0046Z" fill="#73AF00"/>
<path d="M11.6736 16.0067C11.7653 16.0067 11.8396 15.9324 11.8396 15.8407C11.8396 15.749 11.7653 15.6747 11.6736 15.6747C11.5819 15.6747 11.5076 15.749 11.5076 15.8407C11.5076 15.9324 11.5819 16.0067 11.6736 16.0067Z" fill="#FF4B55"/>
<path d="M13.6742 18.4514L13.2596 17.9328L12.8541 18.257L13.2686 18.7756L13.6742 18.4514Z" fill="#FFE15A"/>
<path d="M14.1596 10.4659H13.9932V11.6277H14.1596V10.4659Z" fill="#FFE15A"/>
<path d="M14.3247 10.6317H13.8268V10.7977H14.3247V10.6317Z" fill="#FFE15A"/>
<path d="M13.9933 11.1294L14.4912 11.5029V10.9634H14.1593L13.9933 11.1294Z" fill="#FF875A"/>
<path d="M14.1591 10.4655V10.6315H14.3251V10.7974H14.1591V10.9634H14.4911C14.4911 10.9634 14.6571 10.7974 14.989 10.7974C15.3209 10.7974 15.6529 10.9634 15.6529 11.4613C15.6529 11.9592 15.8189 13.287 15.8189 13.287H16.1508C16.1508 12.9204 16.4481 12.6232 16.8147 12.6232C16.8723 12.6232 16.9273 12.6328 16.9807 12.6467V12.2912C16.9807 12.0163 17.2036 11.7933 17.4786 11.7933C17.7536 11.7933 17.9765 12.0163 17.9765 12.2912V13.1212V13.2872V16.2184L18.1909 15.8663L18.12 15.8232L18.618 15.0051L18.6888 15.0482L18.7951 15.113L18.9724 15.2209L18.4745 16.039L18.4036 15.9958L17.9765 16.6974V18.9306C17.9765 18.9306 17.5802 18.5332 17.4954 18.0935C17.4347 18.0156 17.3649 17.9162 17.3034 17.8033L17.1134 18.1154L17.29 18.2565L16.8755 18.7752L16.7654 18.6872L16.5778 18.9954L16.3651 18.8659L16.5693 18.5304L16.4702 18.4511L16.6114 18.2745L16.1758 17.7403L16.0471 17.8452L15.6598 17.37C15.5568 17.4115 15.4549 17.457 15.3569 17.509L16.1506 19.0966L14.9888 19.9265L13.8269 19.0966L14.6207 17.509C14.5621 17.4779 14.5026 17.4484 14.4417 17.4216L14.0965 17.8452L13.9678 17.7403L13.5322 18.2745L13.6734 18.4511L13.5324 18.5638L13.7251 18.8618L13.5857 18.9519L13.4021 18.668L13.2681 18.7751L12.8536 18.2565L13.0398 18.1076L12.9411 17.9548C12.9388 17.9549 12.9365 17.955 12.9341 17.955C12.8799 17.955 12.8267 17.9308 12.7951 17.8818C12.7817 17.861 12.7744 17.8383 12.7712 17.8153C12.7399 17.8135 12.7083 17.809 12.6754 17.8012C12.6137 17.9149 12.5434 18.015 12.4824 18.0935C12.3976 18.5332 12.0012 18.9306 12.0012 18.9306V16.8133C11.951 16.7976 11.9005 16.7775 11.8507 16.7478C11.698 16.6566 11.5983 16.5239 11.5741 16.4016C11.609 16.3908 11.6478 16.3854 11.689 16.3854C11.7494 16.3854 11.815 16.3971 11.8813 16.4204C11.8597 16.3641 11.8471 16.3085 11.8429 16.2557L11.6797 16.0032C11.6773 16.0033 11.6751 16.0033 11.6727 16.0033C11.6185 16.0033 11.5653 15.9791 11.5337 15.9302C11.5203 15.9094 11.513 15.8867 11.5097 15.8637C11.4178 15.8582 11.3172 15.8301 11.2201 15.7722C11.0674 15.681 10.9677 15.5482 10.9435 15.4259C10.9784 15.4152 11.0172 15.4098 11.0584 15.4098C11.1187 15.4098 11.1843 15.4214 11.2507 15.4448C11.2089 15.3362 11.1995 15.2289 11.2226 15.1433C11.3101 15.1574 11.4041 15.21 11.486 15.2926C11.4959 15.1746 11.5354 15.0723 11.5949 15.0048C11.6965 15.0771 11.7767 15.2224 11.7971 15.3992C11.8101 15.5116 11.7944 15.6149 11.7616 15.7009C11.7812 15.7134 11.799 15.7293 11.8124 15.7501C11.8454 15.8012 11.8442 15.8625 11.819 15.9132L11.9823 16.1657C11.9886 16.1693 11.9948 16.1735 12.0011 16.1774V13.2873V13.1213V12.2914C12.0011 12.0164 12.2241 11.7935 12.4991 11.7935C12.774 11.7935 12.997 12.0164 12.997 12.2914V12.6468C13.0503 12.633 13.1053 12.6233 13.163 12.6233C13.5297 12.6233 13.8269 12.9206 13.8269 13.2872H14.3248L14.6567 11.6274L14.4907 11.503L14.1588 11.254V11.6275H13.9928V10.7976H13.8268V10.6316H13.9928V10.4656H14.1594L14.1591 10.4655ZM16.8235 18.009L16.8848 17.9323L16.9174 17.9584L17.185 17.5189C17.1617 17.4376 17.1467 17.3542 17.1467 17.2706C17.1467 17.2624 17.1467 17.2513 17.1467 17.2414C17.0019 17.0509 16.8148 16.746 16.8148 16.4407C16.8148 16.7902 16.6002 16.9724 16.3065 17.1123L16.562 17.4258L16.4334 17.5306L16.8235 18.009ZM13.1705 18.0031L13.2592 17.9322L13.3205 18.0089L13.7106 17.5304L13.582 17.4256L13.7932 17.1664C13.4387 17.0183 13.1632 16.8369 13.1632 16.4406C13.1632 16.6629 13.064 16.8846 12.9542 17.0626C13.0064 17.1392 13.0457 17.237 13.0588 17.3503C13.0718 17.4627 13.0561 17.566 13.0234 17.6521C13.043 17.6646 13.0607 17.6805 13.0742 17.7013C13.1072 17.7523 13.106 17.8136 13.0808 17.8644L13.1705 18.0031ZM14.1591 10.341H13.9931C13.9244 10.341 13.8687 10.3967 13.8687 10.4655V10.5069H13.8272C13.7585 10.5069 13.7028 10.5627 13.7028 10.6314V10.7974C13.7028 10.8661 13.7585 10.9218 13.8272 10.9218H13.8687V11.6273C13.8687 11.696 13.9244 11.7517 13.9931 11.7517H14.1591C14.2279 11.7517 14.2836 11.696 14.2836 11.6273V11.5028L14.4164 11.6024L14.5196 11.6798L14.223 13.1625H13.9418C13.8819 12.7868 13.5556 12.4987 13.1632 12.4987C13.1494 12.4987 13.1356 12.4991 13.1217 12.4999V12.2912C13.1217 11.948 12.8424 11.6687 12.4992 11.6687C12.1561 11.6687 11.8768 11.948 11.8768 12.2912V13.1211V13.2871V15.196C11.8319 15.072 11.7588 14.9683 11.6672 14.9031C11.6454 14.8876 11.6202 14.88 11.5951 14.88C11.5605 14.88 11.5262 14.8944 11.5017 14.9222C11.4634 14.9657 11.4319 15.0187 11.4084 15.0784C11.3539 15.0489 11.2978 15.029 11.2425 15.0201C11.2358 15.019 11.2292 15.0184 11.2227 15.0184C11.1673 15.0184 11.1175 15.0555 11.1026 15.1105C11.088 15.1645 11.0831 15.2238 11.0877 15.2856C11.0779 15.2851 11.0682 15.2849 11.0585 15.2849C11.0046 15.2849 10.9536 15.2922 10.9069 15.3066C10.846 15.3255 10.8092 15.3872 10.8215 15.4497C10.8537 15.6124 10.9789 15.7728 11.1564 15.8787C11.2383 15.9276 11.3273 15.9611 11.4175 15.9774C11.4212 15.9843 11.4251 15.991 11.4293 15.9975C11.4702 16.0607 11.5343 16.1042 11.6076 16.1204L11.6983 16.2607C11.6952 16.2607 11.6922 16.2607 11.6892 16.2607C11.6353 16.2607 11.5843 16.268 11.5376 16.2824C11.4767 16.3012 11.4399 16.363 11.4522 16.4255C11.4844 16.5882 11.6096 16.7486 11.7871 16.8545C11.8155 16.8714 11.845 16.8864 11.8769 16.8999V18.9301C11.8769 18.9805 11.9073 19.0259 11.9538 19.0451C11.9692 19.0514 11.9853 19.0545 12.0013 19.0545C12.0338 19.0545 12.0656 19.0419 12.0895 19.0179C12.1064 19.001 12.4968 18.6053 12.5986 18.1461C12.6405 18.0911 12.6791 18.0356 12.7143 17.98C12.7544 18.0263 12.8086 18.0583 12.8691 18.0717L12.8745 18.08L12.7762 18.1586C12.7504 18.1793 12.7339 18.2093 12.7302 18.2421C12.7265 18.2749 12.7361 18.3079 12.7567 18.3337L13.1713 18.8523C13.1919 18.8781 13.2219 18.8946 13.2547 18.8983C13.2593 18.8988 13.2639 18.899 13.2685 18.899C13.2966 18.899 13.3241 18.8895 13.3462 18.8718L13.3727 18.8506L13.4815 19.019C13.4994 19.0467 13.5276 19.0662 13.5599 19.0731C13.5686 19.075 13.5773 19.0759 13.586 19.0759C13.6098 19.0759 13.6334 19.0691 13.6536 19.0559L13.7341 19.0039L13.7159 19.0404C13.6885 19.0951 13.705 19.1617 13.7548 19.1973L14.9167 20.0273C14.9384 20.0427 14.9637 20.0505 14.9891 20.0505C15.0144 20.0505 15.0397 20.0427 15.0614 20.0273L16.2233 19.1973C16.2731 19.1617 16.2897 19.0952 16.2622 19.0404L15.5241 17.5641C15.5554 17.5493 15.5881 17.5347 15.6222 17.52L15.9509 17.9233C15.9755 17.9534 16.0113 17.9691 16.0475 17.9691C16.0752 17.9691 16.103 17.9599 16.1261 17.9411L16.1584 17.9148L16.4517 18.2746L16.3733 18.3727C16.3527 18.3985 16.3432 18.4314 16.3468 18.4642C16.3505 18.4971 16.367 18.5271 16.3928 18.5477L16.4064 18.5585L16.2591 18.8005C16.2233 18.8592 16.242 18.9357 16.3007 18.9715L16.5133 19.101C16.533 19.113 16.5554 19.1192 16.5781 19.1192C16.588 19.1192 16.5979 19.118 16.6075 19.1156C16.6396 19.1077 16.6673 19.0876 16.6845 19.0593L16.7986 18.8719C16.8215 18.89 16.8487 18.8988 16.8758 18.8988C16.9123 18.8988 16.9485 18.8827 16.9731 18.852L17.3877 18.3334C17.4029 18.3143 17.4116 18.2921 17.4141 18.2696C17.5494 18.674 17.8734 19.0023 17.8888 19.0177C17.9125 19.0416 17.9445 19.0544 17.9769 19.0544C17.993 19.0544 18.009 19.0513 18.0245 19.0449C18.071 19.0257 18.1014 18.9803 18.1014 18.9299V16.7316L18.4493 16.1602C18.4578 16.162 18.4663 16.1629 18.4747 16.1629C18.5168 16.1629 18.5578 16.1416 18.5812 16.1031L19.0791 15.285C19.0964 15.2568 19.1016 15.2229 19.0937 15.1908C19.0859 15.1588 19.0657 15.131 19.0375 15.1139L18.8602 15.006L18.7539 14.9413L18.6829 14.8981C18.6628 14.8858 18.6404 14.88 18.6184 14.88C18.5764 14.88 18.5354 14.9012 18.512 14.9398L18.1014 15.6143V13.2867V13.1207V12.2911C18.1014 11.9479 17.8222 11.6686 17.479 11.6686C17.1358 11.6686 16.8566 11.9479 16.8566 12.2911V12.4998C16.8427 12.499 16.8289 12.4985 16.8151 12.4985C16.4227 12.4985 16.0964 12.7866 16.0365 13.1624H15.9294C15.8902 12.8356 15.7777 11.8632 15.7777 11.4611C15.7777 10.8799 15.3704 10.6728 14.9893 10.6728C14.7071 10.6728 14.5249 10.7803 14.4468 10.8388H14.4427C14.4473 10.8258 14.4498 10.8118 14.4498 10.7973V10.6313C14.4498 10.5625 14.3941 10.5068 14.3254 10.5068H14.2839V10.4653C14.2836 10.3967 14.2279 10.341 14.1591 10.341ZM13.0991 17.0625C13.1309 17.0064 13.1587 16.9511 13.1826 16.8966C13.2864 17.0359 13.4357 17.1349 13.5946 17.2133L13.4856 17.3471C13.4647 17.3727 13.4549 17.4055 13.4582 17.4383C13.4616 17.4712 13.4778 17.5014 13.5034 17.5222L13.5354 17.5483L13.3136 17.8203C13.301 17.8141 13.2872 17.8101 13.2729 17.8085C13.2683 17.808 13.2637 17.8077 13.2591 17.8077C13.2467 17.8077 13.2345 17.8096 13.2228 17.8132C13.2284 17.7506 13.2136 17.6878 13.1788 17.6338C13.1745 17.6273 13.17 17.6209 13.1653 17.6148C13.1874 17.5258 13.1934 17.4309 13.1825 17.3361C13.1713 17.2388 13.1427 17.1456 13.0991 17.0625ZM16.4992 17.1517C16.6088 17.0878 16.7153 17.0068 16.796 16.898C16.8596 17.0431 16.9432 17.1751 17.0223 17.2829C17.0233 17.3522 17.0328 17.4236 17.051 17.4993L16.8621 17.8098C16.8512 17.8118 16.8404 17.8153 16.8303 17.8203L16.6085 17.5483L16.6405 17.5222C16.6661 17.5013 16.6823 17.4712 16.6856 17.4383C16.689 17.4055 16.6792 17.3727 16.6583 17.3471L16.4992 17.1517ZM14.0967 17.9694C14.1328 17.9694 14.1686 17.9538 14.1933 17.9236L14.4032 17.666L13.8351 18.8024C13.8335 18.7995 13.8318 18.7967 13.83 18.7939L13.6985 18.5904L13.7516 18.548C13.7773 18.5274 13.7939 18.4974 13.7976 18.4645C13.8013 18.4317 13.7917 18.3988 13.7711 18.373L13.6927 18.2749L13.986 17.9151L14.0183 17.9414C14.0412 17.9604 14.069 17.9694 14.0967 17.9694ZM17.2768 18.0862L17.3039 18.0417C17.3277 18.0767 17.3529 18.1116 17.3793 18.1465C17.3817 18.1569 17.3841 18.1673 17.3868 18.1777C17.3813 18.1709 17.3749 18.1647 17.3679 18.159L17.2768 18.0862Z" fill="#FFAA5A"/>
</g>
<defs>
<clipPath id="clip0_58_1268">
<rect width="30" height="30" fill="white"/>
</clipPath>
</defs>
</svg>
