<svg width="109" height="34" viewBox="0 0 109 34" fill="none" xmlns="http://www.w3.org/2000/svg">
<path d="M22.7145 15.7136C20.5484 12.6933 20.2375 9.23943 17.2172 6.85611C17.4228 7.51491 17.6504 8.59031 17.8805 9.76502C16.4217 8.35295 13.9472 8.49101 12.5717 8.49101C11.1962 8.49101 8.72168 8.35295 7.26292 9.76502C7.49299 8.59273 7.72062 7.51491 7.92621 6.85611C4.90591 9.24185 4.59507 12.6957 2.42896 15.7136C-1.08576 20.6135 0.289781 26.5136 3.4031 29.3039C3.40065 29.2627 3.3982 29.2215 3.39331 29.1803C3.47163 29.4928 4.14226 28.4295 4.2059 28.5894C5.52025 31.8543 9.45595 33.0871 12.5717 33.0871C15.6875 33.0871 19.6232 31.8543 20.9375 28.5894C21.0012 28.4295 21.6718 29.4904 21.7501 29.1803C21.7477 29.2215 21.7452 29.2627 21.7403 29.3039C24.8536 26.5112 26.2292 20.6135 22.7145 15.7136Z" fill="white"/>
<path d="M22.1148 15.7112C21.662 15.1202 20.9498 13.9479 19.7676 10.712C19.7676 10.712 17.4228 4.72951 12.8189 4.99836H12.3172C7.71572 4.72951 5.3685 10.712 5.3685 10.712C4.18877 13.9479 3.47407 15.1202 3.02127 15.7112C0.644676 18.8211 -0.686804 24.7722 3.68701 29.8415C4.35765 30.619 4.7101 29.9481 4.35765 29.0641C2.45833 24.2829 5.46395 18.562 6.50662 16.9755C7.02061 16.1932 7.16257 15.0839 6.9839 14.1683C6.04648 9.38715 9.06923 9.01416 9.06923 9.01416C12.0479 8.74531 12.0479 12.5867 12.0479 12.5867L12.5693 12.7877L13.0906 12.5867C13.0906 12.5867 13.0906 8.74773 16.0693 9.01416C16.0693 9.01416 19.0896 9.38715 18.1546 14.1683C17.976 15.0839 18.1179 16.1932 18.6319 16.9755C19.6746 18.562 22.6777 24.2829 20.7809 29.0641C20.4309 29.9481 20.7809 30.619 21.4515 29.8415C25.8253 24.7722 24.4938 18.8211 22.1173 15.7112H22.1148Z" fill="black"/>
<g clip-path="url(#clip0_103_151)">
<path d="M16.1576 11.3676C15.6896 11.1516 15.1307 11.3094 14.777 11.7203C14.6577 11.8587 14.7158 12.0707 14.8747 12.1131C15.0828 12.1701 15.3728 12.2607 15.6717 12.3986C15.9707 12.5366 16.2263 12.6957 16.4034 12.8186C16.5478 12.9181 16.7462 12.806 16.7755 12.6158C16.8555 12.093 16.6188 11.5804 16.1576 11.3676Z" fill="black"/>
</g>
<g clip-path="url(#clip1_103_151)">
<path d="M8.98852 11.3676C9.45653 11.1516 10.0154 11.3094 10.3691 11.7203C10.4884 11.8587 10.4303 12.0707 10.2714 12.1131C10.0633 12.1701 9.77328 12.2607 9.47437 12.3986C9.17546 12.5366 8.91981 12.6957 8.74273 12.8186C8.59833 12.9181 8.39992 12.806 8.3706 12.6158C8.2906 12.093 8.52734 11.5804 8.98852 11.3676Z" fill="black"/>
</g>
<path d="M16.3727 4.17731L15.0461 5.49249L13.6681 4.12887L15.2517 1.73828L16.3727 4.17731Z" fill="#F26621"/>
<path d="M8.77063 4.17731L10.0972 5.49249L11.4752 4.12887L9.89162 1.73828L8.77063 4.17731Z" fill="#F26621"/>
<path d="M12.5717 7.49803C9.60522 7.49803 8.00206 6.78837 8.00206 6.78837L7.52478 1.81101L10.3346 4.24519L12.5717 0.507935C12.5717 0.507935 12.5717 3.40473 12.5717 7.50045V7.49803Z" fill="#FFDD00"/>
<path d="M14.8086 4.24269L12.5716 0.505432L10.3345 4.24269L7.52466 1.80851L8.00438 6.78586C8.00438 6.78586 9.6051 7.49553 12.574 7.49553C15.5429 7.49553 17.1436 6.78586 17.1436 6.78586L17.6209 1.80851L14.8111 4.24269H14.8086Z" fill="#FFDD00"/>
<path d="M14.8086 4.24269L12.5716 0.505432L10.3345 4.24269L7.52466 1.80851L8.00438 6.78586C8.00438 6.78586 9.6051 7.49553 12.574 7.49553C15.5429 7.49553 17.1436 6.78586 17.1436 6.78586L17.6209 1.80851L14.8111 4.24269H14.8086Z" fill="#FFC20D"/>
<path d="M14.8086 4.24269L12.5716 0.505432L10.3345 4.24269L7.52466 1.80851L7.91138 5.84126C10.8142 8.05987 14.8086 4.24269 14.8086 4.24269Z" fill="#FFDE00"/>
<path d="M12.5719 13.6767L11.1376 13.759L11.9844 14.7932C12.1362 14.9773 12.354 15.0694 12.5719 15.0694C12.7897 15.0694 13.0075 14.9773 13.1593 14.7932L14.0061 13.759L12.5719 13.6767Z" fill="#D94726"/>
<path d="M14.3241 13.2528L13.2913 11.9933C13.1052 11.7681 12.8385 11.6542 12.5717 11.6542C12.3049 11.6542 12.0381 11.7681 11.8521 11.9933L10.8192 13.2528C10.6405 13.4708 10.7703 13.8632 11.1839 13.8171C11.4605 13.7857 11.9329 13.7106 12.5717 13.7106C13.2105 13.7106 13.6804 13.7857 13.9594 13.8171C14.3706 13.8632 14.5028 13.4708 14.3241 13.2528Z" fill="#F26621"/>
<path d="M45.3768 11.5923C45.3768 10.9518 44.8562 10.4502 44.1927 10.4502C43.6859 10.4502 43.4003 10.7352 43.2206 10.97L39.2536 15.3515L37.0744 15.3219V11.5764C37.0744 10.929 36.5606 10.4206 35.9064 10.4206C35.2521 10.4206 34.7223 10.929 34.7223 11.5764V20.6974C34.7223 21.3471 35.2429 21.8532 35.9064 21.8532C36.5698 21.8532 37.0744 21.3448 37.0744 20.6974V17.401L38.8182 17.4306C38.8482 17.4306 39.537 17.4238 39.5646 17.4215L43.1123 21.4588C43.3888 21.7529 43.6836 21.8828 44.066 21.8828C44.6857 21.8828 45.1718 21.4018 45.1718 20.7886C45.1718 20.4557 45.0405 20.1799 44.7733 19.936L41.4836 16.2634L45.0658 12.4016C45.2156 12.2079 45.3768 11.9708 45.3768 11.5923Z" fill="white"/>
<path d="M49.1548 10.4525C48.4913 10.4525 47.9707 10.9609 47.9707 11.6083V20.7293C47.9707 21.379 48.4913 21.8851 49.1548 21.8851C49.8183 21.8851 50.3228 21.3767 50.3228 20.7293V11.6083C50.3228 10.9609 49.809 10.4525 49.1548 10.4525Z" fill="white"/>
<path d="M75.7623 15.2809H74.1105C73.5185 15.2809 73.037 15.7505 73.037 16.3295C73.037 16.9086 73.5185 17.3622 74.1105 17.3622H74.6565V19.0766C73.9907 19.5348 73.1107 19.7969 72.2192 19.7969C70.1482 19.7969 68.7015 18.3835 68.7015 16.1928C68.7015 14.1958 70.2035 12.5703 72.0464 12.5703C73.0554 12.5703 73.7903 12.8051 74.5897 13.3865C74.7717 13.5119 74.9998 13.6418 75.3061 13.6418C75.9512 13.6418 76.4741 13.1243 76.4741 12.486C76.4741 11.9525 76.1401 11.6494 75.9926 11.5399C74.8684 10.7398 73.712 10.4001 72.1225 10.4001C68.8305 10.4001 66.2504 12.9579 66.2504 16.2566C66.2504 19.5553 68.7337 21.9558 72.1524 21.9558C73.9562 21.9558 75.3338 21.2947 76.1677 20.7453C76.6884 20.4261 76.9418 19.9702 76.9418 19.3569V16.4572C76.9418 15.8006 76.4211 15.2854 75.7577 15.2854L75.7623 15.2809Z" fill="white"/>
<path d="M88.5432 10.4525C87.8797 10.4525 87.3591 10.9609 87.3591 11.6083V16.9108C87.3591 18.7164 86.4538 19.7103 84.8135 19.7103C83.1733 19.7103 82.2518 18.689 82.2518 16.8333V11.6083C82.2518 10.9609 81.7381 10.4525 81.0839 10.4525C80.4296 10.4525 79.8998 10.9609 79.8998 11.6083V16.9108C79.8998 20.0796 81.6805 21.8988 84.7836 21.8988C87.8866 21.8988 89.7135 20.0477 89.7135 16.8174V11.6083C89.7135 10.9609 89.1998 10.4525 88.5455 10.4525H88.5432Z" fill="white"/>
<path d="M100.357 21.8965C101.02 21.8965 101.541 21.3881 101.541 20.7407V15.4382C101.541 13.6327 102.446 12.6387 104.086 12.6387C105.726 12.6387 106.648 13.66 106.648 15.5157V20.7407C106.648 21.3881 107.162 21.8965 107.816 21.8965C108.47 21.8965 109 21.3881 109 20.7407V15.4382C109 12.2694 107.219 10.4502 104.116 10.4502C101.013 10.4502 99.1863 12.3013 99.1863 15.5316V20.7407C99.1863 21.3881 99.7 21.8965 100.354 21.8965H100.357Z" fill="white"/>
<path d="M55.0223 21.876C55.6858 21.876 56.2064 21.3676 56.2064 20.7202V15.4405C56.2064 13.6349 57.1118 12.641 58.752 12.641C60.3922 12.641 61.3137 13.6623 61.3137 15.518V20.743C61.3137 21.3904 61.8274 21.8988 62.4817 21.8988C63.1359 21.8988 63.6657 21.3904 63.6657 20.743V15.4405C63.6657 12.2717 61.885 10.4525 58.7819 10.4525C55.6789 10.4525 53.8521 12.3036 53.8521 15.5339V20.7202C53.8521 21.3676 54.3658 21.876 55.02 21.876H55.0223Z" fill="white"/>
<path d="M94.5237 10.4525C93.8602 10.4525 93.3396 10.9609 93.3396 11.6083V20.7293C93.3396 21.379 93.8602 21.8851 94.5237 21.8851C95.1872 21.8851 95.6917 21.3767 95.6917 20.7293V11.6083C95.6917 10.9609 95.1779 10.4525 94.5237 10.4525Z" fill="white"/>
<defs>
<clipPath id="clip0_103_151">
<rect width="2.21222" height="1.21827" fill="white" transform="matrix(0.90799 0.418991 -0.426263 0.904599 15.1516 10.9034)"/>
</clipPath>
<clipPath id="clip1_103_151">
<rect width="2.21222" height="1.21827" fill="white" transform="matrix(-0.90799 0.418991 0.426263 0.904599 9.99451 10.9034)"/>
</clipPath>
</defs>
</svg>
