<svg width="100%" height="100%"
  xmlns="http://www.w3.org/2000/svg">
  <symbol style="overflow: visible;" id="headerLogo" viewBox="0 0 231 29">
    <path style="transition: all 0.3s;" d="M11.9134 0.758789H0V28.4871C1.30612 28.4871 10.449 28.4871 11.9134 28.4871C23.4706 28.4871 25.5684 20.0102 25.5684 14.6626C25.5684 9.31499 23.629 0.758789 11.9134 0.758789ZM11.9134 23.0207C9.14286 23.0207 7.08472 23.0207 6.01607 23.0207V6.26486C6.01607 6.26486 9.38033 6.26486 11.9134 6.26486C18.1274 6.26486 19.3148 11.5333 19.3148 14.6626C19.3148 17.6336 18.0878 23.0207 11.9134 23.0207Z" fill="var(--logo-main)"/>
    <path style="transition: all 0.3s;" d="M53.2081 10.028C53.2081 0.75879 45.8068 0.758789 42.482 0.758789C40.8594 0.758789 36.4659 0.798395 35.0014 0.798395V0.758789H28.9854V28.4871H35.0014V19.2577C36.2285 19.2577 40.3447 19.2577 41.3738 19.2577C41.7301 19.2577 42.2446 19.2577 42.8383 19.2577L47.3504 28.4871H53.8809L48.5772 17.8712C51.0708 16.564 53.2081 14.8211 53.2081 10.028ZM42.0071 13.8704C41.4926 13.8704 36.3075 13.8704 35.0014 13.8704V6.18563C36.5847 6.18563 41.0175 6.18563 42.1257 6.18563C43.986 6.18563 47.6274 6.18563 47.6274 10.028C47.6274 13.91 43.7486 13.8704 42.0071 13.8704Z" fill="var(--logo-main)"/>
    <path style="transition: all 0.3s;" d="M100.471 0.758789C98.8484 0.758789 95.5634 0.798395 94.0989 0.798395V0.758789H88.0828V28.4871H94.0989V20.7629C95.3259 20.7629 99.4422 20.7629 100.471 20.7629C103.083 20.7629 112.305 21.1194 112.305 10.7806C112.305 0.798395 103.796 0.758789 100.471 0.758789ZM100.669 15.5341C100.155 15.5341 95.4446 15.5341 94.0989 15.5341V5.98758C95.7216 5.98758 99.6796 5.98758 100.788 5.98758C102.806 5.98758 106.646 5.98758 106.646 10.7806C106.646 15.7717 102.292 15.5341 100.669 15.5341Z" fill="var(--logo-main)"/>
    <path style="transition: all 0.3s;" d="M122.081 0.758789H116.065V28.4871H138.823V23.0603H122.081V0.758789Z" fill="var(--logo-main)"/>
    <path style="transition: all 0.3s;" d="M161.677 0.79834H151.585L141.69 28.4871H147.904L149.566 23.9317H163.696L165.319 28.4871H171.572L161.677 0.79834ZM151.506 18.4257L155.859 6.26481H157.403L161.717 18.4257H151.506Z" fill="var(--logo-main)"/>
    <path style="transition: all 0.3s;" d="M195.57 20.6837H194.857L182.746 0.798395H182.192V0.758789H174.078V28.4871H180.094V8.60197H180.767L192.918 28.4871H201.586V0.758789H195.57V20.6837Z" fill="var(--logo-main)"/>
    <path style="transition: all 0.3s;" d="M217.259 0.758789H205.346V28.4871C206.653 28.4871 215.794 28.4871 217.259 28.4871C228.817 28.4871 230.915 20.0102 230.915 14.6626C230.915 9.31499 228.974 0.758789 217.259 0.758789ZM217.259 23.0207C214.489 23.0207 212.431 23.0207 211.362 23.0207V6.26486C211.362 6.26486 214.727 6.26486 217.259 6.26486C223.473 6.26486 224.661 11.5333 224.661 14.6626C224.661 17.6336 223.434 23.0207 217.259 23.0207Z" fill="var(--logo-main)"/>
    <g style="transition: all 0.3s;" filter="var(--header-filterg-hover)">
      <path style="transition: all 0.3s;" filter="var(--header-filter-hover)" fill-rule="evenodd" clip-rule="evenodd" d="M65.1508 18.6741C65.0369 21.55 67.1161 27.7746 75.9588 27.4655C73.8667 28.6753 65.1444 30.3256 59.6728 23.4772C59.4594 23.5554 59.4273 23.5438 59.438 23.5283L58.9407 22.7164L58.261 22.6584C58.1303 22.4145 57.8726 21.8622 57.8888 21.6048C57.8956 21.4934 57.9677 21.2968 58.0548 21.0582C58.2194 20.6081 58.4391 20.0078 58.3822 19.5432C58.2955 18.8321 58.1036 18.0408 57.273 17.6189C56.9896 17.5348 56.5379 17.2265 56.3474 17.0828C56.2972 16.6564 55.7404 11.282 58.327 7.16967C59.2606 5.68555 61.173 3.86439 62.6599 2.92481C62.8166 2.82586 63.018 2.85665 63.1362 2.9995C63.1417 3.00616 63.1473 3.01287 63.1528 3.0196C63.3983 3.31675 63.691 3.67108 64.1544 3.83767C64.6876 4.09509 65.1708 4.55129 65.5658 5.23654C65.8533 5.73524 66.5395 8.42599 63.3079 9.64629C63.0632 9.73134 61.8224 10.5335 62.9768 11.6703C62.5729 11.9885 61.0721 13.3075 62.7886 14.655C62.7632 14.6865 62.723 14.7295 62.6736 14.7824C62.2239 15.2641 61.0064 16.5687 63.0797 17.5035C63.3777 17.613 64.6047 17.7775 64.9374 17.6415C65.127 17.6445 65.2673 17.7046 65.3137 17.7341L65.3879 18.6779L65.1508 18.6741ZM61.5521 4.64885C60.4504 5.28603 60.2034 6.8494 60.8187 7.91701C61.4912 9.08354 62.7557 9.28553 63.8575 8.64835C64.9594 8.0112 65.2767 6.27232 64.5975 5.24299C63.9821 4.17538 62.654 4.01168 61.5521 4.64885Z" fill="var(--logo-second-hover)"/>
    </g>
    <g style="transition: all 0.3s;" filter="var(--header-filterg)">
      <path style="transition: all 0.3s;" filter="var(--header-filter)" fill-rule="evenodd" clip-rule="evenodd" d="M75.9879 10.2851C76.1017 7.40913 74.0225 1.18442 65.1797 1.49373C67.2721 0.283805 75.9942 -1.36656 81.466 5.48194C81.6792 5.4037 81.7113 5.41522 81.7006 5.43075L82.1981 6.2427L82.8776 6.30084C83.0083 6.54474 83.2659 7.09686 83.2498 7.35426C83.2429 7.46579 83.1711 7.66222 83.0838 7.90095C82.9191 8.35101 82.6996 8.95132 82.7563 9.41593C82.8431 10.127 83.0349 10.9182 83.8655 11.3402C84.149 11.4244 84.6007 11.7326 84.7911 11.8763C84.8416 12.3028 85.3984 17.6771 82.8116 21.7895C81.8781 23.2735 79.9656 25.0948 78.4787 26.0342C78.3221 26.1332 78.1206 26.1025 78.0026 25.9596C77.9969 25.953 77.9915 25.9463 77.9858 25.9394C77.7403 25.6424 77.4476 25.288 76.9842 25.1214C76.4509 24.864 75.9677 24.4077 75.5729 23.7225C75.2854 23.2238 74.5993 20.5332 77.8309 19.3129C78.0754 19.2278 79.3163 18.4256 78.1617 17.2887C78.5656 16.9707 80.0664 15.6517 78.3502 14.3041C78.3756 14.2726 78.4157 14.2296 78.4652 14.1767C78.9147 13.6949 80.1324 12.3904 78.0591 11.4556C77.7609 11.3461 76.5341 11.1816 76.2012 11.3176C76.0115 11.3145 75.8713 11.2546 75.8249 11.2251L75.7507 10.2812L75.9879 10.2851ZM79.5865 24.3103C80.6884 23.673 80.9354 22.1098 80.3198 21.042C79.6474 19.8756 78.3831 19.6736 77.2811 20.3107C76.1794 20.9478 75.862 22.6869 76.5411 23.716C77.1564 24.7838 78.4847 24.9475 79.5865 24.3103Z" fill="var(--logo-second)"/>
    </g>
  </symbol>
  <symbol id="checkbox" viewBox="0 0 14 14">
    <path d="M11.6666 3.5L5.24998 9.91667L2.33331 7" stroke-width="2" stroke-linecap="round" stroke-linejoin="round"/>
  </symbol>
  <svg id="steam" viewBox="0 0 27 28">
    <g clip-path="url(#clip0_82_1286)">
      <path d="M27 14C27 21.4922 20.9468 27.5625 13.4782 27.5625C7.28347 27.5625 2.06855 23.3898 0.468145 17.6969L5.6504 19.8461C5.99879 21.6016 7.5502 22.9305 9.40101 22.9305C11.5349 22.9305 13.3149 21.1586 13.2224 18.9109L17.8222 15.6188C20.6583 15.6898 23.0371 13.382 23.0371 10.5055C23.0371 7.68359 20.7508 5.39219 17.9365 5.39219C15.1222 5.39219 12.8359 7.68906 12.8359 10.5055V10.5711L9.61331 15.2578C8.76956 15.2086 7.94214 15.4438 7.24536 15.9195L0 12.9117C0.555242 5.92813 6.3744 0.4375 13.4782 0.4375C20.9468 0.4375 27 6.50781 27 14ZM8.47561 21.0164L6.81532 20.3273C7.12042 20.9638 7.64721 21.4658 8.29597 21.7383C9.76028 22.3508 11.4423 21.6508 12.052 20.1852C12.346 19.4742 12.3514 18.6922 12.0575 17.9812C11.7635 17.2703 11.2137 16.7125 10.506 16.4172C9.80383 16.1219 9.05262 16.1328 8.38851 16.3844L10.1032 17.0953C11.181 17.5438 11.6927 18.7852 11.2409 19.868C10.7891 20.9562 9.55343 21.4648 8.47561 21.0164ZM17.9365 13.9125C16.0639 13.9125 14.5397 12.3813 14.5397 10.5055C14.5397 8.62969 16.0639 7.09844 17.9365 7.09844C19.8091 7.09844 21.3333 8.62969 21.3333 10.5055C21.3333 12.3813 19.8145 13.9125 17.9365 13.9125ZM17.9419 13.0594C19.3518 13.0594 20.495 11.9109 20.495 10.5C20.495 9.08359 19.3518 7.94062 17.9419 7.94062C16.5321 7.94062 15.3889 9.08906 15.3889 10.5C15.3944 11.9109 16.5375 13.0594 17.9419 13.0594Z"/>
    </g>
    <defs>
      <clipPath id="clip0_82_1286">
        <rect/>
      </clipPath>
    </defs>
  </svg>

  <symbol id="prize" viewBox="0 0 20 19">
    <path d="M18.25 5.2501H14.9688C15.4411 4.65355 15.6692 3.89978 15.6067 3.14141C15.5443 2.38304 15.1959 1.67675 14.6323 1.16554C14.0687 0.654329 13.3318 0.376408 12.571 0.388047C11.8101 0.399686 11.0821 0.700016 10.5344 1.22823C10.3134 1.45189 10.1327 1.71194 10 1.99698C9.86734 1.71194 9.68657 1.45189 9.46563 1.22823C8.91788 0.700016 8.18989 0.399686 7.42904 0.388047C6.66819 0.376408 5.93135 0.654329 5.36771 1.16554C4.80407 1.67675 4.45575 2.38304 4.39328 3.14141C4.33081 3.89978 4.55886 4.65355 5.03125 5.2501H1.75C1.35218 5.2501 0.970644 5.40814 0.68934 5.68944C0.408035 5.97075 0.25 6.35228 0.25 6.7501V9.7501C0.25 10.1479 0.408035 10.5295 0.68934 10.8108C0.970644 11.0921 1.35218 11.2501 1.75 11.2501V17.2501C1.75 17.6479 1.90804 18.0295 2.18934 18.3108C2.47064 18.5921 2.85218 18.7501 3.25 18.7501H16.75C17.1478 18.7501 17.5294 18.5921 17.8107 18.3108C18.092 18.0295 18.25 17.6479 18.25 17.2501V11.2501C18.6478 11.2501 19.0294 11.0921 19.3107 10.8108C19.592 10.5295 19.75 10.1479 19.75 9.7501V6.7501C19.75 6.35228 19.592 5.97075 19.3107 5.68944C19.0294 5.40814 18.6478 5.2501 18.25 5.2501ZM11.5938 2.2876C11.7302 2.13702 11.8958 2.01573 12.0805 1.93109C12.2653 1.84646 12.4653 1.80023 12.6684 1.79523C12.8715 1.79023 13.0736 1.82655 13.2622 1.902C13.4509 1.97744 13.6223 2.09044 13.766 2.23412C13.9097 2.3778 14.0227 2.54918 14.0981 2.73785C14.1735 2.92653 14.2099 3.12856 14.2049 3.3317C14.1999 3.53484 14.1536 3.73484 14.069 3.91957C13.9844 4.1043 13.8631 4.26991 13.7125 4.40635C13.2531 4.8751 11.9125 5.12823 10.7781 5.22198C10.8719 4.0876 11.125 2.74698 11.5938 2.2876ZM6.2875 2.2876C6.56989 2.00935 6.95043 1.85337 7.34687 1.85337C7.74332 1.85337 8.12386 2.00935 8.40625 2.2876C8.875 2.74698 9.12812 4.0876 9.22187 5.22198C8.0875 5.12823 6.74688 4.8751 6.2875 4.40635C6.00925 4.12396 5.85327 3.74342 5.85327 3.34698C5.85327 2.95053 6.00925 2.57 6.2875 2.2876ZM18.25 9.7501H10.75V16.5001C10.75 16.699 10.671 16.8898 10.5303 17.0304C10.3897 17.1711 10.1989 17.2501 10 17.2501C9.80109 17.2501 9.61032 17.1711 9.46967 17.0304C9.32902 16.8898 9.25 16.699 9.25 16.5001V9.7501H1.75V6.7501H9.25V9.7501H10.75V6.7501H18.25V9.7501Z"/>
  </symbol>
  <symbol id="partners" viewBox="0 0 24 17">
    <path d="M11.2312 15.6375C11.1898 15.8002 11.0955 15.9447 10.9632 16.0482C10.8309 16.1516 10.668 16.2083 10.5 16.2093C10.4395 16.2091 10.3795 16.1997 10.3219 16.1812L7.49062 15.4781C7.26098 15.4201 7.04872 15.3075 6.87187 15.15L4.7625 13.3125C4.68863 13.2484 4.62809 13.1705 4.58435 13.0831C4.5406 12.9957 4.5145 12.9005 4.50754 12.803C4.50057 12.7055 4.51288 12.6076 4.54376 12.5148C4.57464 12.4221 4.62348 12.3363 4.6875 12.2625C4.75152 12.1886 4.82946 12.1281 4.91687 12.0843C5.00429 12.0406 5.09946 12.0145 5.19697 12.0075C5.29447 12.0005 5.39239 12.0128 5.48513 12.0437C5.57787 12.0746 5.66363 12.1234 5.7375 12.1875L7.85625 14.025L10.6781 14.7281C10.8711 14.7769 11.0372 14.8996 11.1407 15.0697C11.2441 15.2397 11.2767 15.4436 11.2312 15.6375ZM23.6625 6.71246C23.6008 6.90128 23.5019 7.07577 23.3714 7.22555C23.2409 7.37533 23.0817 7.49735 22.9031 7.58434L20.7188 8.68121L19.3219 10.3218H19.3031C19.3031 10.3312 19.2937 10.3312 19.2937 10.3406H19.2844L15.8344 13.7906C15.5485 14.0701 15.1654 14.228 14.7656 14.2312C14.6454 14.2301 14.5258 14.2144 14.4094 14.1843L8.97187 12.8437C8.76657 12.7958 8.57445 12.703 8.40937 12.5718L3.34687 8.61559L1.09687 7.49059C0.737465 7.30844 0.464542 6.99171 0.337498 6.60934C0.277436 6.41988 0.255624 6.22038 0.273327 6.02243C0.291031 5.82447 0.347897 5.632 0.440623 5.45621L2.74687 1.04059C2.92913 0.693103 3.23954 0.43025 3.6123 0.307744C3.98507 0.185239 4.39089 0.212711 4.74375 0.384338L6.84375 1.43434L11.4094 0.103088C11.7516 0.00982652 12.1155 0.0362881 12.4406 0.178089L15.5344 1.58434H17.0719L19.2562 0.487464C19.6076 0.312673 20.0134 0.282506 20.3867 0.403434C20.76 0.524361 21.071 0.786752 21.2531 1.13434L23.5594 5.54996C23.6524 5.72736 23.7094 5.9214 23.7271 6.12091C23.7448 6.32042 23.7228 6.52147 23.6625 6.71246ZM17.5969 9.91871L14.6344 7.76246L13.875 8.33434C13.2247 8.8183 12.4356 9.07968 11.625 9.07968C10.8144 9.07968 10.0253 8.8183 9.375 8.33434L8.86875 7.94996C8.6958 7.82188 8.55263 7.65786 8.4491 7.46918C8.34556 7.28051 8.28411 7.07165 8.26896 6.85696C8.25382 6.64228 8.28535 6.42686 8.36137 6.22552C8.43739 6.02418 8.55612 5.84169 8.70937 5.69059L12.375 2.01559L12.5437 1.87496L11.8219 1.54684L7.25625 2.87809L4.70625 7.77184L9.3375 11.3906L14.7656 12.75L17.5969 9.91871ZM19.35 7.97809L16.8 3.08434H13.4344L9.76875 6.74996L10.275 7.13434C10.6663 7.42218 11.1393 7.57743 11.625 7.57743C12.1107 7.57743 12.5837 7.42218 12.975 7.13434L14.175 6.23434C14.303 6.13781 14.4585 6.08482 14.6188 6.08313C14.779 6.08144 14.9357 6.13115 15.0656 6.22496L18.6281 8.81246L19.35 7.97809Z"/>
  </symbol>
  <symbol id="faq" viewBox="0 0 20 21">
    <path d="M10 0.75C8.07164 0.75 6.18657 1.32183 4.58319 2.39317C2.97982 3.46451 1.73013 4.98726 0.992179 6.76884C0.254225 8.55042 0.061142 10.5108 0.437348 12.4021C0.813554 14.2934 1.74215 16.0307 3.10571 17.3943C4.46928 18.7579 6.20656 19.6865 8.09787 20.0627C9.98919 20.4389 11.9496 20.2458 13.7312 19.5078C15.5127 18.7699 17.0355 17.5202 18.1068 15.9168C19.1782 14.3134 19.75 12.4284 19.75 10.5C19.745 7.91566 18.7162 5.43859 16.8888 3.61118C15.0614 1.78378 12.5843 0.754956 10 0.75ZM10 16.5C9.7775 16.5 9.55999 16.434 9.37499 16.3104C9.18998 16.1868 9.04579 16.0111 8.96064 15.8055C8.87549 15.6 8.85321 15.3738 8.89662 15.1555C8.94003 14.9373 9.04718 14.7368 9.20451 14.5795C9.36184 14.4222 9.5623 14.315 9.78053 14.2716C9.99876 14.2282 10.225 14.2505 10.4305 14.3356C10.6361 14.4208 10.8118 14.565 10.9354 14.75C11.059 14.935 11.125 15.1525 11.125 15.375C11.125 15.6734 11.0065 15.9595 10.7955 16.1705C10.5845 16.3815 10.2984 16.5 10 16.5ZM10.75 11.9156V12C10.75 12.1989 10.671 12.3897 10.5303 12.5303C10.3897 12.671 10.1989 12.75 10 12.75C9.80109 12.75 9.61033 12.671 9.46967 12.5303C9.32902 12.3897 9.25 12.1989 9.25 12V11.25C9.25 11.0511 9.32902 10.8603 9.46967 10.7197C9.61033 10.579 9.80109 10.5 10 10.5C10.3708 10.5 10.7334 10.39 11.0417 10.184C11.35 9.97798 11.5904 9.68514 11.7323 9.34253C11.8742 8.99992 11.9113 8.62292 11.839 8.25921C11.7666 7.89549 11.5881 7.5614 11.3258 7.29917C11.0636 7.03695 10.7295 6.85837 10.3658 6.78603C10.0021 6.71368 9.62508 6.75081 9.28247 6.89273C8.93986 7.03464 8.64703 7.27496 8.441 7.58331C8.23497 7.89165 8.125 8.25416 8.125 8.625C8.125 8.82391 8.04599 9.01468 7.90533 9.15533C7.76468 9.29598 7.57392 9.375 7.375 9.375C7.17609 9.375 6.98533 9.29598 6.84467 9.15533C6.70402 9.01468 6.625 8.82391 6.625 8.625C6.62501 7.98966 6.80434 7.36723 7.14239 6.82929C7.48043 6.29134 7.96345 5.85974 8.53589 5.58413C9.10833 5.30851 9.74694 5.20007 10.3783 5.27128C11.0096 5.34249 11.608 5.59045 12.1047 5.98666C12.6014 6.38286 12.9761 6.91121 13.1858 7.51094C13.3955 8.11066 13.4317 8.75741 13.2902 9.37678C13.1487 9.99616 12.8352 10.563 12.3858 11.0121C11.9365 11.4613 11.3695 11.7744 10.75 11.9156Z"/>
  </symbol>
  <symbol id="notification" viewBox="0 0 18 20">
    <path d="M14 6.6665C14 5.34042 13.4732 4.06865 12.5355 3.13097C11.5979 2.19329 10.3261 1.6665 9 1.6665C7.67392 1.6665 6.40215 2.19329 5.46447 3.13097C4.52678 4.06865 4 5.34042 4 6.6665C4 12.4998 1.5 14.1665 1.5 14.1665H16.5C16.5 14.1665 14 12.4998 14 6.6665Z" stroke-width="2" stroke-linecap="round" stroke-linejoin="round"/>
    <path d="M10.4417 17.5C10.2951 17.7526 10.0849 17.9622 9.83184 18.1079C9.57883 18.2537 9.29197 18.3304 8.99999 18.3304C8.708 18.3304 8.42114 18.2537 8.16813 18.1079C7.91512 17.9622 7.70483 17.7526 7.55832 17.5" stroke-width="2" stroke-linecap="round" stroke-linejoin="round"/>
  </symbol>
  <symbol id="pay" viewBox="0 0 15 15">
    <path d="M12.8125 0.0341797H2.1875C1.6091 0.0398786 1.05601 0.272176 0.647004 0.681183C0.237997 1.09019 0.00569889 1.64328 0 2.22168V10.703C0.0220177 11.3011 0.234265 11.8766 0.605874 12.3458C0.977484 12.815 1.48908 13.1533 2.06625 13.3117L9.04062 14.9499C9.30606 15.0186 9.58355 15.0268 9.85258 14.9739C10.1216 14.921 10.3753 14.8083 10.595 14.6442C10.8074 14.4704 10.977 14.2499 11.0906 14C11.2041 13.7501 11.2587 13.4774 11.25 13.203V6.94562C11.249 6.36435 11.058 5.79934 10.706 5.33671C10.3541 4.87408 9.86055 4.53921 9.30062 4.38312L2.535 2.51749C2.47566 2.50108 2.42013 2.47314 2.37159 2.43526C2.32305 2.39739 2.28244 2.35032 2.25209 2.29676C2.22173 2.24319 2.20223 2.18417 2.19469 2.12306C2.18714 2.06195 2.19171 1.99996 2.20813 1.94062C2.22454 1.88128 2.25248 1.82575 2.29036 1.77721C2.32823 1.72867 2.3753 1.68806 2.42886 1.65771C2.48243 1.62735 2.54145 1.60785 2.60256 1.60031C2.66367 1.59276 2.72566 1.59733 2.785 1.61374L4.99375 2.22312H5.00125H12.8125C12.9368 2.22312 13.056 2.27251 13.144 2.36041C13.2319 2.44832 13.2812 2.56755 13.2812 2.69187C13.2812 2.81619 13.2319 2.93542 13.144 3.02333C13.056 3.11123 12.9368 3.16062 12.8125 3.16062H9.54063C9.50279 3.16054 9.46621 3.17419 9.43767 3.19904C9.40914 3.22389 9.3906 3.25825 9.38548 3.29574C9.38037 3.33323 9.38903 3.37131 9.40986 3.40289C9.43069 3.43448 9.46227 3.45743 9.49875 3.4675L9.5525 3.4825C10.2645 3.68024 10.8977 4.09379 11.365 4.66625C11.3798 4.68399 11.3984 4.69827 11.4193 4.7081C11.4403 4.71792 11.4631 4.72305 11.4862 4.72312H12.8125C12.9368 4.72312 13.056 4.77251 13.144 4.86041C13.2319 4.94832 13.2812 5.06755 13.2812 5.19187C13.2812 5.31619 13.2319 5.43542 13.144 5.52333C13.056 5.61123 12.9368 5.66062 12.8125 5.66062H12.1637C12.1391 5.66047 12.1147 5.6662 12.0926 5.67733C12.0706 5.68847 12.0515 5.70469 12.037 5.72466C12.0224 5.74463 12.0129 5.76778 12.009 5.79218C12.0052 5.81658 12.0073 5.84154 12.015 5.865C12.1299 6.21418 12.1892 6.57927 12.1906 6.94687V11.2856C12.1906 11.3271 12.2071 11.3668 12.2364 11.3961C12.2657 11.4254 12.3054 11.4419 12.3469 11.4419H12.8125C13.3927 11.4419 13.9491 11.2114 14.3593 10.8012C14.7695 10.3909 15 9.83454 15 9.25438V2.22293C15.0002 1.93556 14.9437 1.65097 14.8338 1.38543C14.724 1.11988 14.5629 0.878586 14.3597 0.675326C14.1566 0.472065 13.9154 0.310823 13.6499 0.200813C13.3844 0.0908024 13.0999 0.0341796 12.8125 0.0341797ZM9.6875 9.56563C9.6875 9.81285 9.61419 10.0545 9.47684 10.2601C9.33949 10.4656 9.14426 10.6259 8.91585 10.7205C8.68745 10.8151 8.43611 10.8398 8.19364 10.7916C7.95116 10.7434 7.72843 10.6243 7.55362 10.4495C7.3788 10.2747 7.25975 10.052 7.21152 9.80949C7.16329 9.56701 7.18804 9.31568 7.28265 9.08727C7.37726 8.85886 7.53748 8.66364 7.74304 8.52629C7.9486 8.38894 8.19027 8.31563 8.4375 8.31563C8.76902 8.31563 9.08696 8.44732 9.32138 8.68174C9.5558 8.91616 9.6875 9.2341 9.6875 9.56563Z"/>
  </symbol>
  <symbol id="cards" viewBox="0 0 34 34">
    <path d="M23.9024 22.3682H11.2483C10.4718 22.3682 9.84229 21.7492 9.84229 20.9855V8.54049C9.84229 7.77681 10.4718 7.15771 11.2483 7.15771H23.9024M23.9024 22.3682H28.1205C28.897 22.3682 29.5265 21.7492 29.5265 20.9855V8.54049C29.5265 7.7768 28.897 7.15771 28.1205 7.15771H23.9024" fill="url(#paint0_linear_69_1450)" fill-opacity="0.4"/>
    <path d="M23.9023 22.3682H11.2481C10.4716 22.3682 9.8421 21.7492 9.8421 20.9855V8.54049C9.8421 7.77681 10.4716 7.15771 11.2481 7.15771H23.9023M23.9023 22.3682H28.1203C28.8968 22.3682 29.5263 21.7492 29.5263 20.9855V8.54049C29.5263 7.7768 28.8968 7.15771 28.1203 7.15771H23.9023" stroke="#30B6C2" stroke-width="2" stroke-linecap="round" stroke-linejoin="round"/>
    <path d="M9.84212 12.5264H5.87971C5.10319 12.5264 4.47369 13.1819 4.47369 13.9905V27.1675C4.47369 27.9761 5.10319 28.6316 5.87971 28.6316H18.5338H22.7519C23.5284 28.6316 24.1579 27.9761 24.1579 27.1675V23.5072" stroke="#30B6C2" stroke-width="2" stroke-linecap="round" stroke-linejoin="round"/>
    <g clip-path="url(#clip0_69_1450)">
      <path fill-rule="evenodd" clip-rule="evenodd" d="M16.1812 11.0814V10.5059H15.4507V11.0814H14.9638V10.5059H14.2089V11.0814H13.6002V12.9629H21.8302C21.7907 12.8116 21.7184 12.6646 21.6474 12.5204C21.6255 12.4758 21.6037 12.4315 21.583 12.3874C21.5002 12.2106 21.4202 12.0326 21.3403 11.8546C21.3007 11.7665 21.2611 11.6784 21.2212 11.5905L21.0705 11.2585C21.0671 11.2509 21.0638 11.2431 21.0604 11.2351C21.0397 11.1866 21.0168 11.1325 20.9684 11.1041C20.8991 11.0635 20.7793 11.0711 20.6791 11.0773C20.6458 11.0794 20.6147 11.0814 20.5884 11.0814H19.6631H16.1812ZM24.7277 12.9629H26.0669V12.1439C26.0669 12.1105 26.0693 12.0737 26.0718 12.0355C26.0784 11.9363 26.0856 11.8278 26.0522 11.7454C26.0153 11.6545 25.9189 11.5756 25.8316 11.5043C25.8027 11.4806 25.7748 11.4577 25.7504 11.4355C25.7196 11.4076 25.6875 11.3745 25.6538 11.34C25.5593 11.2428 25.4534 11.134 25.3364 11.0947C25.2161 11.0544 25.0497 11.0647 24.8992 11.074C24.8381 11.0778 24.7795 11.0814 24.7277 11.0814H23.3398C23.4318 11.3873 23.5807 11.6865 23.7281 11.9827C23.8029 12.133 23.8773 12.2825 23.9436 12.4316L24.1044 12.7858C24.1083 12.7946 24.1121 12.8039 24.116 12.8134C24.1352 12.8603 24.1568 12.9128 24.2022 12.9401C24.2883 12.9919 24.46 12.9796 24.5986 12.9696C24.6475 12.9661 24.6923 12.9629 24.7277 12.9629ZM22.585 12.9629H23.4129C23.3874 12.8285 23.323 12.6977 23.2603 12.5704C23.241 12.5312 23.2218 12.4923 23.204 12.4538C23.1446 12.3249 23.0862 12.1956 23.0279 12.0663C22.9529 11.9 22.8779 11.7337 22.8005 11.5684C22.7592 11.4802 22.7189 11.3916 22.6786 11.303C22.6718 11.2881 22.6651 11.2733 22.6583 11.2585C22.6533 11.2476 22.6486 11.2356 22.6437 11.2233C22.6263 11.1794 22.6068 11.1303 22.568 11.1041C22.5228 11.0737 22.4502 11.077 22.3887 11.0799C22.3719 11.0806 22.3559 11.0814 22.3415 11.0814H21.7571C21.7845 11.2212 21.8544 11.3604 21.9219 11.4949C21.9457 11.5422 21.9691 11.5888 21.9903 11.6348C22.0495 11.7631 22.1141 11.8926 22.1791 12.0231C22.333 12.3316 22.4895 12.6457 22.585 12.9629ZM25.7991 14.8001V13.6048H14.842C14.8875 13.7026 14.963 13.7871 15.0373 13.8704C15.0571 13.8926 15.0768 13.9146 15.0958 13.9368C15.1449 13.9941 15.194 14.0512 15.2432 14.1083C15.3461 14.228 15.4491 14.3477 15.551 14.4681C15.5709 14.4916 15.5918 14.5195 15.6139 14.549C15.6838 14.6424 15.7656 14.7516 15.8656 14.7868C15.9879 14.8297 16.1629 14.8184 16.3198 14.8082C16.3837 14.8041 16.4447 14.8001 16.4977 14.8001H17.9587C18.0076 14.8001 18.0653 14.7962 18.1264 14.7919C18.2784 14.7815 18.4516 14.7695 18.5639 14.8135C18.6656 14.8533 18.7174 15.0428 18.7551 15.1811C18.7665 15.223 18.7767 15.2602 18.7866 15.2871C18.9096 15.6227 19.0285 15.9273 19.3709 16.1304C19.747 16.3536 20.2535 16.3335 20.7167 16.3151C20.8404 16.3101 20.9611 16.3053 21.0754 16.3053C21.1206 16.3053 21.1733 16.3018 21.2291 16.2981C21.3687 16.2887 21.527 16.2782 21.6321 16.3187C21.7054 16.3469 21.7251 16.4201 21.7427 16.485C21.7444 16.4916 21.7462 16.4981 21.748 16.5046C21.7681 16.576 21.7889 16.6472 21.8098 16.7183C21.8343 16.8019 21.8588 16.8855 21.882 16.9694C21.9605 17.2538 22.045 17.5369 22.1294 17.82C22.1834 18.0012 22.2375 18.1824 22.29 18.3639C22.3078 18.4257 22.3277 18.4877 22.3476 18.55C22.3934 18.6935 22.4397 18.8382 22.4632 18.9837H23.8024C23.8331 18.9837 23.8636 18.9838 23.8938 18.9839C24.3482 18.9854 24.7507 18.9867 25.0907 18.6517C25.1645 18.5789 25.2221 18.4984 25.2667 18.4082C25.4374 18.0631 25.3401 17.7268 25.2396 17.3796L25.2362 17.3678C25.2036 17.255 25.1711 17.142 25.1387 17.0291C25.0396 16.6841 24.9404 16.3389 24.8354 15.9954C24.8242 15.9588 24.8116 15.9209 24.7987 15.8823C24.7484 15.7319 24.6943 15.57 24.7057 15.4199C24.7455 14.8947 25.3422 14.8001 25.7991 14.8001ZM20.3203 15.6188H21.489C21.4456 15.4275 21.386 15.2367 21.3273 15.0486L21.3256 15.0433C21.321 15.0283 21.3168 15.0106 21.3123 14.9918C21.2977 14.9298 21.2801 14.8551 21.2318 14.8226C21.1554 14.7713 20.9856 14.7837 20.8529 14.7935C20.8072 14.7968 20.7658 14.7998 20.7342 14.7998H19.4194C19.4235 14.8162 19.4278 14.8331 19.4321 14.8505C19.489 15.0778 19.564 15.3775 19.7606 15.5217C19.9019 15.6252 20.0684 15.6225 20.238 15.6197C20.2653 15.6193 20.2928 15.6188 20.3203 15.6188Z" fill="#30B6C2"/>
    </g>
    <defs>
      <linearGradient id="paint0_linear_69_1450" x1="19.6844" y1="7.15771" x2="19.6844" y2="22.3682" gradientUnits="userSpaceOnUse">
        <stop stop-color="#30B6C2"/>
        <stop offset="1" stop-color="#30B6C2" stop-opacity="0"/>
      </linearGradient>
      <clipPath id="clip0_69_1450">
        <rect width="12.4667" height="11.3333" fill="white" transform="matrix(-1 0 0 1 26.0667 9.06689)"/>
      </clipPath>
    </defs>
  </symbol>
  <symbol id="upgrade" viewBox="0 0 35 34">
    <path d="M16.2975 21.6096L12.4078 25.5728C11.8952 26.0952 11.0072 25.7322 11.0072 25.0004C11.0072 24.7749 11.1003 24.5595 11.2646 24.405L16.3261 19.6444C16.7111 19.2823 17.3113 19.2823 17.6963 19.6444L22.7579 24.405C22.9221 24.5595 23.0152 24.7749 23.0152 25.0004C23.0152 25.7322 22.1272 26.0952 21.6146 25.5728L17.7249 21.6096C17.3329 21.2102 16.6895 21.2102 16.2975 21.6096Z" fill="url(#paint0_linear_69_1463)"/>
    <path d="M29.0192 19L18.425 8.4128C17.644 7.63238 16.3784 7.63238 15.5975 8.4128L5.0032 19" stroke="#8C45FF" stroke-width="2" stroke-linecap="round" stroke-linejoin="round"/>
    <path d="M22.0145 23L17.0112 18L12.0079 23" stroke="#8C45FF" stroke-width="2" stroke-linecap="round" stroke-linejoin="round"/>
    <path d="M4.00253 22.5869V20.438C4.00253 20.1588 4.11927 19.8923 4.3245 19.703L16.3332 8.62546C16.7162 8.27217 17.3063 8.27217 17.6892 8.62546L29.6979 19.703C29.9031 19.8923 30.0199 20.1588 30.0199 20.438V22.5869C30.0199 23.4777 28.9431 23.9239 28.313 23.2943L17.7181 12.7064C17.3276 12.3162 16.6948 12.3162 16.3043 12.7064L5.7094 23.2943C5.07934 23.9239 4.00253 23.4777 4.00253 22.5869Z" fill="url(#paint1_linear_69_1463)"/>
    <defs>
      <linearGradient id="paint0_linear_69_1463" x1="17.0112" y1="19" x2="17.0112" y2="26.0588" gradientUnits="userSpaceOnUse">
        <stop stop-color="#8C45FF"/>
        <stop offset="1" stop-color="#8C45FF" stop-opacity="0"/>
      </linearGradient>
      <linearGradient id="paint1_linear_69_1463" x1="17.0112" y1="8" x2="17.0112" y2="23" gradientUnits="userSpaceOnUse">
        <stop stop-color="#8C45FF"/>
        <stop offset="1" stop-color="#8C45FF" stop-opacity="0"/>
      </linearGradient>
    </defs>
  </symbol>
  <symbol id="coliseum" viewBox="0 0 31 30">
    <ellipse cx="15.0102" cy="14" rx="11.0073" ry="10" fill="url(#paint0_linear_69_1475)" fill-opacity="0.5"/>
    <path d="M6.25432 20.8216C4.68978 18.8895 3.75266 16.4291 3.75266 13.75C3.75266 7.5368 8.79282 3.75 15.0102 3.75C21.2276 3.75 26.2677 7.5368 26.2677 13.75C26.2677 16.4291 25.3305 18.8895 23.766 20.8216M6.25432 20.8216V23.75C6.25432 25.1307 7.37436 26.25 8.75599 26.25H21.2643C22.646 26.25 23.766 25.1307 23.766 23.75V20.8216M6.25432 20.8216H8.13057M23.766 20.8216H21.8897" stroke="#4A69FF" stroke-width="2" stroke-linecap="round" stroke-linejoin="round"/>
    <path d="M10.0068 16.25C10.6976 16.25 11.2577 15.6904 11.2577 15C11.2577 14.3096 10.6976 13.75 10.0068 13.75C9.31601 13.75 8.756 14.3096 8.756 15C8.756 15.6904 9.31601 16.25 10.0068 16.25Z" stroke="#4A69FF" stroke-width="2" stroke-linecap="round" stroke-linejoin="round"/>
    <path d="M13.7593 20L15.0102 17.5L16.261 20H13.7593Z" stroke="#4A69FF" stroke-width="2" stroke-linecap="round" stroke-linejoin="round"/>
    <path d="M11.2577 23.75V26.25" stroke="#4A69FF" stroke-width="2" stroke-linecap="round" stroke-linejoin="round"/>
    <path d="M15.0102 23.75V26.25" stroke="#4A69FF" stroke-width="2" stroke-linecap="round" stroke-linejoin="round"/>
    <path d="M18.7627 23.75V26.25" stroke="#4A69FF" stroke-width="2" stroke-linecap="round" stroke-linejoin="round"/>
    <path d="M20.0135 16.25C20.7043 16.25 21.2643 15.6904 21.2643 15C21.2643 14.3096 20.7043 13.75 20.0135 13.75C19.3227 13.75 18.7627 14.3096 18.7627 15C18.7627 15.6904 19.3227 16.25 20.0135 16.25Z" stroke="#4A69FF" stroke-width="2" stroke-linecap="round" stroke-linejoin="round"/>
    <defs>
      <linearGradient id="paint0_linear_69_1475" x1="15.0102" y1="4" x2="15.0102" y2="24" gradientUnits="userSpaceOnUse">
        <stop stop-color="#4A69FF"/>
        <stop offset="1" stop-color="#4A69FF" stop-opacity="0"/>
      </linearGradient>
    </defs>
  </symbol>
  <symbol id="daily" viewBox="0 0 35 34">
    <path d="M10.0069 17.9998L17.5119 21.7165C16.4218 21.8996 15.2417 21.9998 14.0095 21.9998C8.483 21.9998 4.00286 19.9851 4.00286 17.4998C4.00286 15.6545 6.4727 14.0684 10.0069 13.374C10.0069 13.374 10.0069 15.5145 10.0069 17.9998Z" fill="url(#paint0_linear_69_1490)" fill-opacity="0.5"/>
    <path d="M29.77 11.3335C29.77 8.98629 25.3272 7.0835 19.8468 7.0835C14.3663 7.0835 9.92348 8.98629 9.92348 11.3335M29.77 11.3335V17.0002C29.77 18.4445 28.088 19.7204 25.5172 20.4884C23.9099 20.9685 21.955 21.2502 19.8468 21.2502C17.7385 21.2502 15.7836 20.9685 14.1763 20.4884C11.6055 19.7204 9.92348 18.4445 9.92348 17.0002V11.3335M29.77 11.3335C29.77 12.7777 28.088 14.0537 25.5172 14.8218C23.9099 15.3019 21.955 15.5835 19.8468 15.5835C17.7385 15.5835 15.7836 15.3019 14.1763 14.8218C11.6055 14.0537 9.92348 12.7777 9.92348 11.3335" stroke="#73AF00" stroke-width="2" stroke-linecap="round" stroke-linejoin="round"/>
    <ellipse cx="20.0135" cy="14.5" rx="10.0067" ry="7.5" fill="url(#paint1_linear_69_1490)" fill-opacity="0.5"/>
    <path d="M4.25303 17.0002V22.6668C4.25303 24.1111 5.93505 25.3871 8.50586 26.1551C10.1132 26.6352 12.068 26.9168 14.1763 26.9168C16.2846 26.9168 18.2395 26.6352 19.8468 26.1551C22.4176 25.3871 24.0996 24.1111 24.0996 22.6668V21.2502M4.25303 17.0002C4.25303 15.3048 6.5709 13.8413 9.92348 13.1592M4.25303 17.0002C4.25303 18.4445 5.93505 19.7204 8.50586 20.4884C10.1132 20.9685 12.068 21.2502 14.1763 21.2502C15.1616 21.2502 16.1132 21.1887 17.0115 21.0742" stroke="#73AF00" stroke-width="2" stroke-linecap="round" stroke-linejoin="round"/>
    <defs>
      <linearGradient id="paint0_linear_69_1490" x1="14.0095" y1="13" x2="14.0095" y2="22" gradientUnits="userSpaceOnUse">
        <stop stop-color="#73AF00"/>
        <stop offset="1" stop-color="#73AF00" stop-opacity="0"/>
      </linearGradient>
      <linearGradient id="paint1_linear_69_1490" x1="20.0135" y1="7" x2="20.0135" y2="22" gradientUnits="userSpaceOnUse">
        <stop stop-color="#73AF00"/>
        <stop offset="1" stop-color="#73AF00" stop-opacity="0"/>
      </linearGradient>
    </defs>
  </symbol>
  <symbol id="contracts" viewBox="0 0 31 30">
    <path d="M7.05626 5H22.0663V24H4.05426V19.5H7.05626V5Z" fill="url(#paint0_linear_69_1501)" fill-opacity="0.4"/>
    <path d="M18.8141 25C14.8114 25 13.8108 21.6666 13.8108 20H3.80411V22.5C3.80411 23.8807 4.92414 25 6.30578 25H18.8141ZM18.8141 25C20.8866 25 22.5666 23.3211 22.5666 21.25V12.5M22.5666 12.5H23.8175C25.1991 12.5 26.3191 11.3807 26.3191 10V7.5C26.3191 6.11929 25.1991 5 23.8175 5H22.5666M22.5666 12.5V5M22.5666 5H8.80744C7.42581 5 6.30578 6.11929 6.30578 7.5V20M17.5633 10H11.3091M13.8108 15H11.3091" stroke="#FF4B55" stroke-width="2" stroke-linecap="round" stroke-linejoin="round"/>
    <defs>
      <linearGradient id="paint0_linear_69_1501" x1="13.0603" y1="5" x2="13.0603" y2="24" gradientUnits="userSpaceOnUse">
        <stop stop-color="#FF4B55"/>
        <stop offset="1" stop-color="#FF4B55" stop-opacity="0"/>
      </linearGradient>
    </defs>
  </symbol>
  <symbol id="plus" viewBox="0 0 7 7">
    <g filter="url(#filter0_b_80_567)">
      <path fill-rule="evenodd" clip-rule="evenodd" d="M3.5 0C3.22386 0 3 0.223858 3 0.5V3H0.5C0.223858 3 0 3.22386 0 3.5C0 3.77614 0.223858 4 0.5 4H3V6.5C3 6.77614 3.22386 7 3.5 7C3.77614 7 4 6.77614 4 6.5V4H6.5C6.77614 4 7 3.77614 7 3.5C7 3.22386 6.77614 3 6.5 3H4V0.5C4 0.223858 3.77614 0 3.5 0Z" fill="white"/>
    </g>
    <defs>
      <filter id="filter0_b_80_567" x="-7" y="-7" width="21" height="21" filterUnits="userSpaceOnUse" color-interpolation-filters="sRGB">
        <feFlood flood-opacity="0" result="BackgroundImageFix"/>
        <feGaussianBlur in="BackgroundImageFix" stdDeviation="3.5"/>
        <feComposite in2="SourceAlpha" operator="in" result="effect1_backgroundBlur_80_567"/>
        <feBlend mode="normal" in="SourceGraphic" in2="effect1_backgroundBlur_80_567" result="shape"/>
      </filter>
    </defs>
  </symbol>
  <symbol id="arrow" viewBox="0 0 9 7">
    <path d="M1.25 1.875L4.5 5.125L7.75 1.875" stroke-width="2" stroke-linecap="round" stroke-linejoin="round"/>
  </symbol>

  <symbol id="pulse" viewBox="0 0 18 14">
    <path d="M1.5 6.99984H4.83333L7.33333 12.8332L10.6667 1.1665L13.1667 6.99984H16.5" stroke-width="2" stroke-linecap="round" stroke-linejoin="round"/>
  </symbol>
  <symbol id="cube" viewBox="0 0 16 18">
    <path d="M1.33331 5.66667L7.99998 1.5L11.3333 3.58333M1.33331 5.66667V12.3333L7.99998 16.5M1.33331 5.66667L4.66665 7.75M11.3333 3.58333L14.6666 5.66667M11.3333 3.58333L4.66665 7.75M7.99998 16.5V9.83333M7.99998 16.5L14.6666 12.3333V5.66667M4.66665 7.75L7.99998 9.83333M7.99998 9.83333L14.6666 5.66667" stroke="#FF4B55" stroke-width="2" stroke-linecap="round" stroke-linejoin="round"/>
  </symbol>
  <symbol id="crown" viewBox="0 0 17 16">
    <path d="M17 7.19027C17 6.26459 16.1998 5.5115 15.2163 5.5115C14.2328 5.5115 13.4326 6.26459 13.4326 7.19027C13.4326 7.61136 13.5986 7.99637 13.8716 8.29136L12.0277 9.88336L9.67609 5.30932L11.0505 3.7899L8.50966 0.980957L5.96885 3.78998L7.2821 5.24176L4.94723 9.85732L3.12924 8.29048C3.40185 7.99557 3.56745 7.61092 3.56745 7.19027C3.56745 6.26459 2.76729 5.5115 1.78376 5.5115C0.800159 5.5115 0 6.26459 0 7.19027C0 8.04801 0.687341 8.75717 1.5708 8.85667L2.11735 15.0192H14.8827L15.4293 8.85667C16.3127 8.75717 17 8.04801 17 7.19027Z"/>
  </symbol>
  <symbol id="live" viewBox="0 0 15 16">
    <g clip-path="url(#clip0_69_1439)">
      <rect x="11" width="16" height="7" rx="1" transform="rotate(90 11 0)" fill-opacity="1"/>
      <rect x="15" y="3" width="10" height="2" rx="1" transform="rotate(90 15 3)" fill-opacity="0.4"/>
      <rect x="2" y="3" width="10" height="2" rx="1" transform="rotate(90 2 3)" fill-opacity="0.4"/>
    </g>
    <defs>
      <clipPath id="clip0_69_1439">
        <rect width="16" height="15" transform="translate(15) rotate(90)"/>
      </clipPath>
    </defs>
  </symbol>
  <symbol id="bgLogo" viewBox="0 0 99 100">
    <g style="mix-blend-mode:color-dodge">
      <path fill-rule="evenodd" clip-rule="evenodd" d="M31.3713 64.4843C30.9808 74.6316 38.1037 96.5946 68.3969 95.5037C61.2298 99.7724 31.3492 105.595 12.6049 81.4314C11.8737 81.7073 11.7638 81.6667 11.8004 81.6118L10.0968 78.747L7.76834 78.5424C7.32048 77.6818 6.4379 75.7332 6.49319 74.8248C6.51669 74.432 6.76343 73.7382 7.062 72.8962C7.62596 71.3084 8.37862 69.1901 8.18372 67.5509C7.88653 65.0419 7.22925 62.2498 4.38385 60.7611C3.4128 60.4645 1.86536 59.3765 1.21293 58.8695C1.04083 57.3651 -0.866714 38.4022 7.99434 23.8922C11.1929 18.6557 17.7442 12.2299 22.8379 8.91474C23.3749 8.56559 24.0646 8.67425 24.4696 9.17826C24.4883 9.20179 24.5077 9.22546 24.5263 9.24921C25.3674 10.2977 26.3703 11.5479 27.9578 12.1357C29.7845 13.044 31.4398 14.6536 32.793 17.0714C33.7779 18.831 36.1284 28.325 25.0578 32.6307C24.2195 32.9308 19.969 35.7611 23.9236 39.7722C22.54 40.8948 17.3986 45.5487 23.2788 50.3034C23.1917 50.4145 23.0542 50.5663 22.8849 50.7531C21.3443 52.4526 17.1733 57.0557 24.2761 60.354C25.2969 60.7404 29.5004 61.3208 30.6401 60.841C31.2898 60.8517 31.7701 61.0634 31.9291 61.1675L32.1834 64.4979L31.3713 64.4843ZM19.0429 14.9978C15.2686 17.246 14.4226 22.7622 16.5306 26.5292C18.8341 30.6451 23.1662 31.3578 26.9405 29.1096C30.7155 26.8615 31.8026 20.7261 29.4756 17.0942C27.3676 13.3272 22.8178 12.7496 19.0429 14.9978Z" />
      <path fill-rule="evenodd" clip-rule="evenodd" d="M68.4963 34.8838C68.8861 24.7364 61.7632 2.77326 31.47 3.86463C38.6378 -0.404466 68.5177 -6.2276 87.2627 17.9366C87.9932 17.6605 88.1031 17.7011 88.0665 17.756L89.7708 20.6208L92.0985 20.826C92.5464 21.6865 93.429 23.6346 93.3737 24.5428C93.3502 24.9363 93.1041 25.6294 92.8049 26.4718C92.2409 28.0597 91.489 30.1779 91.6832 31.8172C91.9804 34.326 92.6376 37.1179 95.483 38.6067C96.4541 38.9037 98.0015 39.9915 98.654 40.4982C98.8268 42.0032 100.734 60.9658 91.8725 75.4759C88.6747 80.7121 82.1227 87.1382 77.029 90.4529C76.4927 90.8023 75.8022 90.6939 75.3979 90.1898C75.3786 90.1663 75.3599 90.1428 75.3406 90.1185C74.4995 89.0704 73.4966 87.8198 71.9091 87.2323C70.0824 86.324 68.4271 84.7141 67.0746 82.2963C66.0897 80.5367 63.7392 71.0432 74.8098 66.7374C75.6474 66.4373 79.8986 63.6067 75.9432 59.5954C77.3269 58.4732 82.4683 53.8195 76.5888 49.0646C76.6759 48.9535 76.8134 48.8017 76.9827 48.6149C78.5226 46.9152 82.6943 42.3124 75.5915 39.0141C74.57 38.6275 70.3672 38.0471 69.2268 38.527C68.5771 38.5162 68.0968 38.3049 67.9378 38.2006L67.6835 34.8703L68.4963 34.8838ZM80.8241 84.3704C84.599 82.1216 85.445 76.6059 83.3363 72.8385C81.0328 68.7231 76.7014 68.0101 72.9264 70.2582C69.1521 72.5062 68.065 78.6422 70.3914 82.2735C72.4993 86.0409 77.0498 86.6185 80.8241 84.3704Z" />
    </g>
  </symbol>
  <symbol id="footerLogo" viewBox="0 0 231 39">
    <path d="M11.9134 5.75879H0V33.4871C1.30612 33.4871 10.449 33.4871 11.9134 33.4871C23.4706 33.4871 25.5684 25.0102 25.5684 19.6626C25.5684 14.315 23.629 5.75879 11.9134 5.75879ZM11.9134 28.0207C9.14286 28.0207 7.08472 28.0207 6.01607 28.0207V11.2649C6.01607 11.2649 9.38033 11.2649 11.9134 11.2649C18.1274 11.2649 19.3148 16.5333 19.3148 19.6626C19.3148 22.6336 18.0878 28.0207 11.9134 28.0207Z" fill="#3A424A"/>
    <path d="M53.2081 15.028C53.2081 5.75879 45.8068 5.75879 42.482 5.75879C40.8594 5.75879 36.4659 5.7984 35.0014 5.7984V5.75879H28.9854V33.4871H35.0014V24.2577C36.2285 24.2577 40.3447 24.2577 41.3738 24.2577C41.7301 24.2577 42.2446 24.2577 42.8383 24.2577L47.3504 33.4871H53.8809L48.5772 22.8712C51.0708 21.564 53.2081 19.8211 53.2081 15.028ZM42.0071 18.8704C41.4926 18.8704 36.3075 18.8704 35.0014 18.8704V11.1856C36.5847 11.1856 41.0175 11.1856 42.1257 11.1856C43.986 11.1856 47.6274 11.1856 47.6274 15.028C47.6274 18.91 43.7486 18.8704 42.0071 18.8704Z" fill="#3A424A"/>
    <path d="M100.471 5.75879C98.8484 5.75879 95.5634 5.7984 94.0989 5.7984V5.75879H88.0828V33.4871H94.0989V25.7629C95.3259 25.7629 99.4422 25.7629 100.471 25.7629C103.083 25.7629 112.305 26.1194 112.305 15.7806C112.305 5.7984 103.796 5.75879 100.471 5.75879ZM100.669 20.5341C100.155 20.5341 95.4446 20.5341 94.0989 20.5341V10.9876C95.7216 10.9876 99.6796 10.9876 100.788 10.9876C102.806 10.9876 106.646 10.9876 106.646 15.7806C106.646 20.7717 102.292 20.5341 100.669 20.5341Z" fill="#3A424A"/>
    <path d="M122.081 5.75879H116.065V33.4871H138.823V28.0603H122.081V5.75879Z" fill="#3A424A"/>
    <path d="M161.677 5.79834H151.585L141.69 33.4871H147.904L149.566 28.9317H163.696L165.319 33.4871H171.572L161.677 5.79834ZM151.506 23.4257L155.859 11.2648H157.403L161.717 23.4257H151.506Z" fill="#3A424A"/>
    <path d="M195.57 25.6837H194.857L182.746 5.7984H182.192V5.75879H174.078V33.4871H180.094V13.602H180.767L192.918 33.4871H201.586V5.75879H195.57V25.6837Z" fill="#3A424A"/>
    <path d="M217.259 5.75879H205.346V33.4871C206.653 33.4871 215.794 33.4871 217.259 33.4871C228.817 33.4871 230.915 25.0102 230.915 19.6626C230.915 14.315 228.974 5.75879 217.259 5.75879ZM217.259 28.0207C214.489 28.0207 212.431 28.0207 211.362 28.0207V11.2649C211.362 11.2649 214.727 11.2649 217.259 11.2649C223.473 11.2649 224.661 16.5333 224.661 19.6626C224.661 22.6336 223.434 28.0207 217.259 28.0207Z" fill="#3A424A"/>
    <path fill-rule="evenodd" clip-rule="evenodd" d="M65.1508 23.6741C65.0369 26.55 67.1161 32.7746 75.9588 32.4655C73.8667 33.6753 65.1444 35.3256 59.6728 28.4772C59.4594 28.5554 59.4273 28.5438 59.438 28.5283L58.9407 27.7164L58.261 27.6584C58.1303 27.4145 57.8726 26.8622 57.8888 26.6048C57.8956 26.4934 57.9677 26.2968 58.0548 26.0582C58.2194 25.6081 58.4391 25.0078 58.3822 24.5432C58.2955 23.8321 58.1036 23.0408 57.273 22.6189C56.9896 22.5348 56.5379 22.2265 56.3474 22.0828C56.2972 21.6564 55.7404 16.282 58.327 12.1697C59.2606 10.6855 61.173 8.86439 62.6599 7.92481C62.8166 7.82586 63.018 7.85665 63.1362 7.9995C63.1417 8.00616 63.1473 8.01287 63.1528 8.0196C63.3983 8.31675 63.691 8.67108 64.1544 8.83767C64.6876 9.09509 65.1708 9.55129 65.5658 10.2365C65.8533 10.7352 66.5395 13.426 63.3079 14.6463C63.0632 14.7313 61.8224 15.5335 62.9768 16.6703C62.5729 16.9885 61.0721 18.3075 62.7886 19.655C62.7632 19.6865 62.723 19.7295 62.6736 19.7824C62.2239 20.2641 61.0064 21.5687 63.0797 22.5035C63.3777 22.613 64.6047 22.7775 64.9374 22.6415C65.127 22.6445 65.2673 22.7046 65.3137 22.7341L65.3879 23.6779L65.1508 23.6741ZM61.5521 9.64885C60.4504 10.286 60.2034 11.8494 60.8187 12.917C61.4912 14.0835 62.7557 14.2855 63.8575 13.6484C64.9594 13.0112 65.2767 11.2723 64.5975 10.243C63.9821 9.17538 62.654 9.01168 61.5521 9.64885Z" fill="#3A424A"/>
    <path fill-rule="evenodd" clip-rule="evenodd" d="M75.9879 15.2851C76.1017 12.4091 74.0225 6.18442 65.1797 6.49373C67.2721 5.28381 75.9942 3.63344 81.466 10.4819C81.6792 10.4037 81.7113 10.4152 81.7006 10.4308L82.1981 11.2427L82.8776 11.3008C83.0083 11.5447 83.2659 12.0969 83.2498 12.3543C83.2429 12.4658 83.1711 12.6622 83.0838 12.9009C82.9191 13.351 82.6996 13.9513 82.7563 14.4159C82.8431 15.127 83.0349 15.9182 83.8655 16.3402C84.149 16.4244 84.6007 16.7326 84.7911 16.8763C84.8416 17.3028 85.3984 22.6771 82.8116 26.7895C81.8781 28.2735 79.9656 30.0948 78.4787 31.0342C78.3221 31.1332 78.1206 31.1025 78.0026 30.9596C77.9969 30.953 77.9915 30.9463 77.9858 30.9394C77.7403 30.6424 77.4476 30.288 76.9842 30.1214C76.4509 29.864 75.9677 29.4077 75.5729 28.7225C75.2854 28.2238 74.5993 25.5332 77.8309 24.3129C78.0754 24.2278 79.3163 23.4256 78.1617 22.2887C78.5656 21.9707 80.0664 20.6517 78.3502 19.3041C78.3756 19.2726 78.4157 19.2296 78.4652 19.1767C78.9147 18.6949 80.1324 17.3904 78.0591 16.4556C77.7609 16.3461 76.5341 16.1816 76.2012 16.3176C76.0115 16.3145 75.8713 16.2546 75.8249 16.2251L75.7507 15.2812L75.9879 15.2851ZM79.5865 29.3103C80.6884 28.673 80.9354 27.1098 80.3198 26.042C79.6474 24.8756 78.3831 24.6736 77.2811 25.3107C76.1794 25.9478 75.862 27.6869 76.5411 28.716C77.1564 29.7838 78.4847 29.9475 79.5865 29.3103Z" fill="#3A424A"/>
  </symbol>
  <symbol id="mastercard" viewBox="0 0 119 22">
    <path fill-rule="evenodd" clip-rule="evenodd" d="M16.8275 2.72733C16.6934 2.83278 16.5623 2.9414 16.434 3.05291C14.2425 4.95987 12.8553 7.767 12.8553 10.9C12.8553 14.0327 14.2425 16.8398 16.434 18.7468C16.5623 18.8583 16.6934 18.9666 16.8275 19.0724C16.9615 18.9666 17.0927 18.8583 17.221 18.7468C19.4125 16.8398 20.7997 14.0327 20.7997 10.9C20.7997 7.767 19.4125 4.95987 17.221 3.05291C17.0927 2.9414 16.9615 2.83278 16.8275 2.72733ZM23.255 0.5C21.1256 0.5 19.1461 1.14018 17.4977 2.23796C17.5821 2.307 17.6673 2.37518 17.749 2.44624C20.1991 4.57767 21.6043 7.65896 21.6043 10.9C21.6043 14.1405 20.1991 17.2218 17.7493 19.3535C17.6679 19.424 17.5821 19.4924 17.4977 19.5618C19.1461 20.6595 21.1256 21.2997 23.255 21.2997C28.9987 21.2997 33.655 16.6434 33.655 10.9C33.655 5.15602 28.9987 0.5 23.255 0.5ZM15.9059 19.3535C15.9871 19.424 16.0729 19.4924 16.1573 19.5618C14.5089 20.6598 12.5294 21.3 10.4 21.3C4.65602 21.3 0 16.6434 0 10.9C0 5.15631 4.65602 0.5 10.4 0.5C12.5291 0.5 14.5086 1.14018 16.1573 2.23796C16.0729 2.307 15.9877 2.37518 15.9059 2.44596C13.4559 4.57767 12.0507 7.65896 12.0507 10.9C12.0507 14.1408 13.4559 17.222 15.9059 19.3535ZM54.4258 10.9448C54.4258 9.72942 55.2214 8.73102 56.5237 8.73102C57.7682 8.73102 58.6075 9.68609 58.6075 10.9448C58.6075 12.2035 57.7682 13.1585 56.5237 13.1585C55.2214 13.1585 54.4258 12.1604 54.4258 10.9448ZM60.0253 10.9448V7.48678H58.5205V8.32571C58.043 7.70373 57.3196 7.31315 56.3356 7.31315C54.3966 7.31315 52.8776 8.83242 52.8776 10.9448C52.8776 13.0574 54.3966 14.5767 56.3356 14.5767C57.3196 14.5767 58.043 14.1861 58.5205 13.5638V14.4034H60.0253V10.9448ZM110.842 10.9448C110.842 9.72942 111.638 8.73102 112.941 8.73102C114.185 8.73102 115.024 9.68609 115.024 10.9448C115.024 12.2035 114.185 13.1585 112.941 13.1585C111.638 13.1585 110.842 12.1604 110.842 10.9448ZM118.126 14.0749V14.1835H118.226C118.249 14.1835 118.267 14.1789 118.28 14.1699C118.294 14.161 118.301 14.1471 118.301 14.1283C118.301 14.1107 118.294 14.0971 118.28 14.0882C118.267 14.0789 118.249 14.0749 118.226 14.0749H118.126ZM118.227 13.9983C118.279 13.9983 118.319 14.0099 118.348 14.0333C118.376 14.0564 118.39 14.0885 118.39 14.1283C118.39 14.1624 118.379 14.1899 118.356 14.2118C118.334 14.2338 118.301 14.2471 118.26 14.2523L118.394 14.406H118.289L118.165 14.2531H118.126V14.406H118.038V13.9983H118.227ZM118.201 14.5461C118.248 14.5461 118.292 14.5368 118.333 14.5192C118.374 14.501 118.41 14.4764 118.441 14.4458C118.472 14.4152 118.496 14.3788 118.513 14.3372C118.531 14.2956 118.54 14.2511 118.54 14.2037C118.54 14.1564 118.531 14.1122 118.513 14.0703C118.496 14.029 118.472 13.9928 118.441 13.9616C118.41 13.931 118.374 13.9068 118.333 13.8891C118.292 13.8715 118.248 13.8626 118.201 13.8626C118.153 13.8626 118.108 13.8715 118.066 13.8891C118.024 13.9068 117.987 13.931 117.957 13.9616C117.926 13.9928 117.902 14.029 117.884 14.0703C117.866 14.1122 117.857 14.1564 117.857 14.2037C117.857 14.2511 117.866 14.2956 117.884 14.3372C117.902 14.3788 117.926 14.4152 117.957 14.4458C117.987 14.4764 118.024 14.501 118.066 14.5192C118.108 14.5368 118.153 14.5461 118.201 14.5461ZM118.201 13.7649C118.263 13.7649 118.321 13.7765 118.375 13.7993C118.429 13.8224 118.476 13.8536 118.516 13.8935C118.557 13.9333 118.589 13.9798 118.612 14.0333C118.636 14.0867 118.648 14.1434 118.648 14.2037C118.648 14.2641 118.636 14.3207 118.612 14.3739C118.589 14.427 118.557 14.4733 118.516 14.5128C118.476 14.553 118.429 14.5842 118.375 14.6079C118.321 14.6313 118.263 14.6428 118.201 14.6428C118.138 14.6428 118.079 14.6313 118.024 14.6079C117.969 14.5842 117.922 14.553 117.881 14.5128C117.841 14.4733 117.809 14.427 117.786 14.3739C117.763 14.3207 117.751 14.2641 117.751 14.2037C117.751 14.1434 117.763 14.0867 117.786 14.0333C117.809 13.9798 117.841 13.9333 117.881 13.8935C117.922 13.8536 117.969 13.8224 118.024 13.7993C118.079 13.7765 118.138 13.7649 118.201 13.7649ZM116.442 10.9448V4.70853H114.937V8.32571C114.46 7.70373 113.736 7.31315 112.752 7.31315C110.813 7.31315 109.294 8.83242 109.294 10.9448C109.294 13.0574 110.813 14.5767 112.752 14.5767C113.736 14.5767 114.46 14.1861 114.937 13.5638V14.4034H116.442V10.9448ZM78.691 8.6588C79.6605 8.6588 80.2828 9.26633 80.442 10.3372H76.8534C77.0126 9.33884 77.6204 8.6588 78.691 8.6588ZM78.7202 7.31315C76.6942 7.31315 75.2764 8.7888 75.2764 10.9448C75.2764 13.1444 76.752 14.5767 78.8213 14.5767C79.8633 14.5767 80.8181 14.3164 81.6576 13.6075L80.9195 12.4929C80.3406 12.9563 79.6028 13.2166 78.908 13.2166C77.9388 13.2166 77.0559 12.768 76.839 11.5237H81.9757C81.9901 11.3354 82.0046 11.1476 82.0046 10.9448C81.9901 8.7888 80.6592 7.31315 78.7202 7.31315ZM96.8792 10.9448C96.8792 9.72942 97.6751 8.73102 98.9774 8.73102C100.222 8.73102 101.061 9.68609 101.061 10.9448C101.061 12.2035 100.222 13.1585 98.9774 13.1585C97.6751 13.1585 96.8792 12.1604 96.8792 10.9448ZM102.479 10.9448V7.48678H100.974V8.32571C100.497 7.70373 99.7733 7.31315 98.789 7.31315C96.8503 7.31315 95.331 8.83242 95.331 10.9448C95.331 13.0574 96.8503 14.5767 98.789 14.5767C99.7733 14.5767 100.497 14.1861 100.974 13.5638V14.4034H102.479V10.9448ZM88.3856 10.9448C88.3856 13.043 89.847 14.5767 92.0755 14.5767C93.1173 14.5767 93.8118 14.345 94.564 13.7519L93.8406 12.5366C93.2762 12.9419 92.6831 13.1585 92.0319 13.1585C90.8313 13.1444 89.9484 12.276 89.9484 10.9448C89.9484 9.61358 90.8313 8.74547 92.0319 8.73102C92.6831 8.73102 93.2762 8.94798 93.8406 9.35329L94.564 8.13793C93.8118 7.54455 93.1173 7.31315 92.0755 7.31315C89.847 7.31315 88.3856 8.84687 88.3856 10.9448ZM107.775 7.31315C106.907 7.31315 106.342 7.71818 105.952 8.32571V7.48678H104.461V14.4034H105.966V10.5253C105.966 9.38218 106.458 8.74547 107.442 8.74547C107.746 8.74547 108.064 8.7888 108.382 8.91909L108.846 7.50122C108.513 7.37093 108.079 7.31315 107.775 7.31315ZM67.4628 8.03653C66.7391 7.559 65.7407 7.31315 64.6412 7.31315C62.8902 7.31315 61.7616 8.15209 61.7616 9.52691C61.7616 10.6556 62.6011 11.3501 64.1489 11.567L64.8582 11.6684C65.6829 11.784 66.0735 12.001 66.0735 12.3918C66.0735 12.9271 65.5238 13.231 64.4965 13.231C63.4547 13.231 62.7022 12.8982 62.1955 12.5077L61.4865 13.6797C62.3116 14.2872 63.3533 14.5767 64.482 14.5767C66.4788 14.5767 67.6361 13.6361 67.6361 12.3196C67.6361 11.104 66.7247 10.4672 65.2198 10.2503L64.5109 10.1489C63.8598 10.0622 63.3389 9.93193 63.3389 9.46913C63.3389 8.96242 63.8309 8.6588 64.6556 8.6588C65.5382 8.6588 66.3919 8.9916 66.8116 9.25189L67.4628 8.03653ZM86.8663 7.31315C85.9982 7.31315 85.434 7.71818 85.0431 8.32571V7.48678H83.5527V14.4034H85.0575V10.5253C85.0575 9.38218 85.5495 8.74547 86.5338 8.74547C86.8374 8.74547 87.1558 8.7888 87.4741 8.91909L87.9372 7.50122C87.6044 7.37093 87.1702 7.31315 86.8663 7.31315ZM74.0318 7.48678H71.5719V5.38858H70.053V7.48678H68.6492V8.86131H70.053V12.0157C70.053 13.6216 70.6749 14.5767 72.4545 14.5767C73.1059 14.5767 73.8582 14.3742 74.3357 14.0414L73.9018 12.7538C73.4529 13.0141 72.9609 13.1444 72.5706 13.1444C71.8181 13.1444 71.5719 12.6813 71.5719 11.9865V8.86131H74.0318V7.48678ZM51.5462 14.4034V10.0622C51.5462 8.42711 50.5044 7.3276 48.826 7.31315C47.9434 7.29871 47.0317 7.57344 46.3953 8.54296C45.9177 7.77624 45.1652 7.31315 44.109 7.31315C43.3709 7.31315 42.6475 7.53011 42.0833 8.34044V7.48678H40.5782V14.4034H42.0977V10.5686C42.0977 9.36773 42.7634 8.73102 43.7906 8.73102C44.789 8.73102 45.2955 9.38218 45.2955 10.5542V14.4034H46.8147V10.5686C46.8147 9.36773 47.5092 8.73102 48.5076 8.73102C49.5349 8.73102 50.0269 9.38218 50.0269 10.5542V14.4034H51.5462ZM33.33 17.3442V16.9407H33.2248L33.1035 17.2183L32.9822 16.9407H32.877V17.3442H32.9512V17.0398L33.0651 17.3024H33.1422L33.2557 17.0392V17.3442H33.33ZM32.6626 17.3442V17.0094H32.7976V16.9415H32.4538V17.0094H32.589V17.3442H32.6626Z"/>
  </symbol>
  <symbol id="visa" viewBox="0 0 56 19">
    <path d="M28.5614 6.53243C28.5275 9.01601 30.7784 10.4019 32.464 11.2224C34.205 12.0651 34.7809 12.6084 34.7809 13.3623C34.7702 14.5154 33.3956 15.0254 32.1093 15.0476C29.8691 15.0808 28.5614 14.4378 27.53 13.961L26.7206 17.7418C27.7627 18.2186 29.681 18.6399 31.6769 18.6621C36.3667 18.6621 39.427 16.3448 39.4493 12.7636C39.4716 8.21773 33.1513 7.9627 33.1959 5.92263C33.2066 5.30173 33.7941 4.64757 35.092 4.48126C35.7347 4.39256 37.4979 4.33712 39.493 5.25738L40.281 1.59853C39.1943 1.21047 37.8082 0.833496 36.0895 0.833496C31.6876 0.833496 28.5837 3.17294 28.5614 6.53243ZM47.8091 1.14395C46.9551 1.14395 46.2348 1.64288 45.913 2.40791L39.2166 18.3849H43.8948L44.8264 15.8126H50.5476L51.0904 18.3849H55.2151L51.6119 1.14395H47.8091ZM48.4634 5.81175L49.8157 12.2868H46.1127L48.4634 5.81175ZM22.8844 1.14395L19.1923 18.396H23.6496L27.3419 1.14395H22.8844ZM16.2763 1.14395L11.6307 12.8855L9.75695 2.90684C9.53517 1.7981 8.67039 1.14395 7.69463 1.14395H0.110894L0 1.65397C1.5633 1.99768 3.32619 2.54096 4.4017 3.11751C5.05583 3.4723 5.24436 3.78275 5.46606 4.63648L9.02518 18.396H13.7373L20.9663 1.14395H16.2763Z"/>
  </symbol>
  <symbol id="crypto" viewBox="0 0 62 24">
    <path fill-rule="evenodd" clip-rule="evenodd" d="M11.4737 0.733398C15.0567 0.733398 18.2491 2.40597 20.3127 5.01294C18.9982 7.02082 18.2337 9.42116 18.2337 12.0001C18.2337 14.579 18.9982 16.9793 20.313 18.9868C18.2491 21.5942 15.0567 23.2667 11.4737 23.2667C5.25129 23.2667 0.207031 18.2225 0.207031 12.0001C0.207031 5.77766 5.25129 0.733398 11.4737 0.733398ZM10.3295 5.11488H9.0531V7.20342C8.87072 7.20896 8.60278 7.21178 8.24919 7.21178L6.49221 7.20342V8.56265H7.4121C7.83202 8.56265 8.07789 8.75055 8.14971 9.12621V11.5049C8.20504 11.5049 8.24919 11.5077 8.28237 11.5132H8.14971V14.8448C8.10556 15.1265 7.94535 15.2675 7.66905 15.2675H6.74923L6.49221 16.7842L8.29836 16.7849C8.38387 16.7855 8.48629 16.7866 8.60569 16.7881C8.80456 16.7909 8.95368 16.7923 9.05316 16.7923V18.9056H10.3297V16.8171C10.4955 16.8212 10.7148 16.8237 10.9876 16.8248L11.3408 16.8255V18.9056H12.617V16.7923C13.0702 16.7702 13.4721 16.729 13.8228 16.668C14.1737 16.607 14.5094 16.5119 14.8298 16.3819C15.1502 16.2522 15.4181 16.0904 15.6335 15.8971C15.8491 15.7038 16.0271 15.4579 16.1683 15.1594C16.3089 14.861 16.3988 14.5157 16.4374 14.1233C16.5095 13.3555 16.3851 12.7643 16.0647 12.3498C15.7443 11.9355 15.2608 11.651 14.6143 11.4963C15.4376 11.0763 15.7994 10.3636 15.7001 9.35788C15.6669 8.9932 15.5661 8.67713 15.3975 8.40923C15.2288 8.14127 15.0011 7.92585 14.7136 7.76288C14.4264 7.59972 14.1139 7.4755 13.777 7.38987C13.4401 7.30423 13.0532 7.24206 12.6167 7.20342V5.11488H11.3405V7.14539C11.1195 7.14539 10.7825 7.15091 10.3295 7.16197V5.11488ZM11.2825 12.4577C11.4206 12.4577 11.6113 12.4659 11.8545 12.4826C12.0975 12.499 12.3019 12.5238 12.4678 12.5569C12.6335 12.5901 12.8143 12.6412 13.0106 12.7103C13.2067 12.7793 13.3656 12.8636 13.4872 12.963C13.6088 13.0627 13.7109 13.1895 13.7938 13.3443C13.8768 13.499 13.9183 13.6758 13.9183 13.8748C13.9183 14.0296 13.892 14.1703 13.8395 14.2975C13.7868 14.4246 13.7193 14.5352 13.6364 14.6292C13.5535 14.7229 13.4443 14.8059 13.309 14.8776C13.1737 14.9496 13.0424 15.0075 12.9154 15.0517C12.7883 15.0961 12.6349 15.1345 12.4555 15.1678C12.2757 15.201 12.1183 15.2243 11.9828 15.2382C11.8475 15.2521 11.686 15.2631 11.498 15.2714C11.3102 15.2796 11.1637 15.2838 11.0588 15.2838C10.9538 15.2838 10.8212 15.2823 10.6609 15.2796C10.5006 15.277 10.3985 15.2756 10.3542 15.2756V12.4742C10.3984 12.4742 10.5296 12.4715 10.7479 12.4659C10.9663 12.4603 11.1443 12.4577 11.2825 12.4577ZM11.61 8.66178C11.8117 8.67835 11.9816 8.7005 12.1197 8.72808C12.2578 8.75566 12.4098 8.80126 12.5754 8.8648C12.7413 8.92829 12.8739 9.00568 12.9732 9.09683C13.0727 9.18798 13.157 9.30406 13.2259 9.44497C13.2951 9.58584 13.3296 9.74744 13.3296 9.92974C13.3296 10.0845 13.3048 10.2254 13.2551 10.3525C13.2055 10.4796 13.1308 10.586 13.0314 10.6716C12.9321 10.7573 12.8296 10.8319 12.7246 10.8954C12.6198 10.9589 12.4857 11.0101 12.3227 11.0487C12.1598 11.0874 12.0175 11.1178 11.8961 11.1399C11.7745 11.162 11.6226 11.1772 11.4402 11.1855C11.2578 11.1937 11.1197 11.1993 11.0258 11.2021C10.9318 11.2048 10.8034 11.2048 10.6403 11.2021C10.4773 11.1993 10.3821 11.1979 10.3544 11.1979V8.65354C10.393 8.65356 10.5021 8.65217 10.6817 8.64938C10.8613 8.64654 11.0105 8.64381 11.1292 8.64102C11.2481 8.63829 11.4083 8.6452 11.61 8.66178Z"/>
    <path fill-rule="evenodd" clip-rule="evenodd" d="M31.001 0.733398C34.5841 0.733398 37.7765 2.40597 39.8401 5.01294C38.5256 7.02082 37.761 9.42116 37.761 12.0001C37.761 14.579 38.5256 16.9793 39.8403 18.9868C37.7765 21.5942 34.5841 23.2667 31.001 23.2667C24.7786 23.2667 19.7344 18.2225 19.7344 12.0001C19.7344 5.77766 24.7786 0.733398 31.001 0.733398ZM34.7914 12.2918L31.0184 14.0867L27.2455 12.2918L31.0184 18.8853L34.7914 12.2918ZM31.0184 10.2602L27.9442 11.7186L31.0184 13.1747L34.0977 11.7162L31.0184 10.2602ZM31.0184 5.11488L27.6525 10.961L31.0184 9.36433L34.3805 10.9543L31.0184 5.11488Z"/>
    <path fill-rule="evenodd" clip-rule="evenodd" d="M50.5362 0.733398C56.7586 0.733398 61.8029 5.77766 61.8029 12.0001C61.8029 18.2225 56.7586 23.2667 50.5362 23.2667C44.3138 23.2667 39.2695 18.2225 39.2695 12.0001C39.2695 5.77766 44.3138 0.733398 50.5362 0.733398ZM54.6897 6.99266H46.082V9.30466H49.2297V10.421C46.7544 10.5644 44.9029 11.1401 44.9029 11.8287C44.9029 12.5175 46.7544 13.0932 49.2297 13.2364V17.2257H51.5418V13.2418C54.0632 13.1079 55.9604 12.526 55.9604 11.8287C55.9604 11.1315 54.0632 10.5498 51.542 10.4156L51.5418 9.30466H54.6897V6.99266ZM51.5421 10.6683C53.713 10.7643 55.3315 11.1357 55.3315 11.5798C55.3315 12.0968 53.1377 12.5156 50.4316 12.5156C47.7255 12.5156 45.5317 12.0968 45.5317 11.5798C45.5317 11.1421 47.1047 10.7746 49.2297 10.6723L49.2299 12.0155C49.613 12.037 50.0156 12.0483 50.4316 12.0483C50.8146 12.0483 51.1865 12.0385 51.5421 12.0207V10.6683Z"/>
  </symbol>
  <symbol id="paypal" viewBox="0 0 87 23">
    <path d="M27.1394 4.09961C26.9583 4.09961 26.8044 4.22923 26.7761 4.40573L24.6797 17.5125C24.6721 17.5604 24.6751 17.6093 24.6885 17.656C24.7019 17.7026 24.7254 17.7458 24.7573 17.7826C24.7893 17.8195 24.8289 17.849 24.8736 17.8693C24.9182 17.8896 24.9668 17.9001 25.0159 17.9001H27.5021C27.683 17.9001 27.8371 17.7702 27.8654 17.594L28.4812 13.7451C28.5093 13.5688 28.6634 13.439 28.8445 13.439H31.1048C33.7459 13.439 35.9878 11.5392 36.3973 8.96499C36.8102 6.36899 34.753 4.10525 31.8373 4.09961H27.1394ZM29.5562 7.02555H31.3647C32.8536 7.02555 33.3384 7.89165 33.1851 8.84946C33.0318 9.80932 32.2788 10.5163 30.8385 10.5163H28.9978L29.5562 7.02555ZM41.4538 7.9165C40.826 7.91881 40.1037 8.04561 39.2927 8.37863C37.4325 9.14303 36.5392 10.7228 36.1598 11.8745C36.1598 11.8745 34.9523 15.3884 37.6804 17.3189C37.6804 17.3189 40.2105 19.1774 43.0586 17.2044L43.0095 17.5125C43.0019 17.5604 43.0049 17.6092 43.0182 17.6558C43.0316 17.7024 43.055 17.7456 43.0869 17.7824C43.1188 17.8193 43.1584 17.8488 43.203 17.8692C43.2476 17.8895 43.2961 17.9 43.3452 17.9001H45.7054C45.8865 17.9001 46.0403 17.7702 46.0686 17.594L47.5043 8.6184C47.512 8.57053 47.509 8.52158 47.4957 8.47492C47.4824 8.42827 47.459 8.38501 47.4271 8.34813C47.3952 8.31125 47.3555 8.28162 47.3109 8.26128C47.2663 8.24094 47.2177 8.23037 47.1685 8.23031H44.8084C44.6273 8.23031 44.4732 8.36018 44.4451 8.53642L44.368 9.01956C44.368 9.01956 43.3374 7.90958 41.4538 7.9165ZM41.531 10.7515C41.802 10.7515 42.0499 10.7884 42.2723 10.8588C43.2907 11.1811 43.868 12.1456 43.7009 13.191C43.4949 14.4782 42.4241 15.426 41.0508 15.426C40.7801 15.426 40.5322 15.3894 40.3095 15.319C39.2914 14.9967 38.7104 14.0322 38.8775 12.9868C39.0835 11.6996 40.1577 10.7515 41.531 10.7515Z"/>
    <path d="M61.1267 4.09961C60.9456 4.09961 60.7918 4.22923 60.7635 4.40573L58.6671 17.5125C58.6595 17.5604 58.6625 17.6093 58.6758 17.656C58.6892 17.7026 58.7127 17.7458 58.7447 17.7826C58.7766 17.8195 58.8163 17.849 58.8609 17.8693C58.9056 17.8896 58.9542 17.9001 59.0033 17.9001H61.4895C61.6703 17.9001 61.8244 17.7702 61.8527 17.594L62.4686 13.7451C62.4966 13.5688 62.6507 13.439 62.8318 13.439H65.0922C67.7332 13.439 69.9749 11.5392 70.3841 8.96499C70.7973 6.36899 68.7404 4.10525 65.8247 4.09961H61.1267ZM63.5435 7.02555H65.352C66.8409 7.02555 67.3258 7.89165 67.1725 8.84946C67.0192 9.80932 66.2664 10.5163 64.8259 10.5163H62.9851L63.5435 7.02555ZM75.4409 7.9165C74.8132 7.91881 74.0908 8.04561 73.2798 8.37863C71.4196 9.14303 70.5263 10.7228 70.1469 11.8745C70.1469 11.8745 68.9399 15.3884 71.668 17.3189C71.668 17.3189 74.1976 19.1774 77.046 17.2044L76.9969 17.5125C76.9893 17.5604 76.9922 17.6093 77.0056 17.656C77.019 17.7026 77.0425 17.7458 77.0745 17.7826C77.1064 17.8195 77.1461 17.849 77.1907 17.8693C77.2354 17.8896 77.2839 17.9001 77.3331 17.9001H79.693C79.8741 17.9001 80.0279 17.7702 80.0563 17.594L81.4924 8.6184C81.5001 8.57048 81.4972 8.52149 81.4838 8.4748C81.4705 8.42811 81.447 8.38483 81.415 8.34794C81.3831 8.31105 81.3434 8.28143 81.2987 8.26112C81.254 8.24081 81.2054 8.2303 81.1562 8.23031H78.796C78.6149 8.23031 78.4608 8.36018 78.4328 8.53642L78.3556 9.01956C78.3556 9.01956 77.3245 7.90958 75.4409 7.9165ZM75.5181 10.7515C75.7891 10.7515 76.037 10.7884 76.2594 10.8588C77.2778 11.1811 77.8551 12.1456 77.6881 13.191C77.482 14.4782 76.4112 15.426 75.0379 15.426C74.7672 15.426 74.5193 15.3894 74.2966 15.319C73.2785 14.9967 72.6975 14.0322 72.8646 12.9868C73.0707 11.6996 74.1448 10.7515 75.5181 10.7515Z"/>
    <path d="M48.6242 8.23024C48.4371 8.23024 48.304 8.41032 48.3612 8.5858L50.9487 16.5016L48.6091 20.2319C48.4955 20.413 48.6275 20.6469 48.8435 20.6469H51.6087C51.6878 20.6468 51.7655 20.6267 51.8344 20.5884C51.9033 20.55 51.9609 20.4949 52.0018 20.4281L59.2283 8.64267C59.3393 8.46156 59.2068 8.22998 58.9921 8.22998H56.2272C56.1473 8.23005 56.0688 8.25061 55.9995 8.28964C55.9301 8.32867 55.8723 8.38483 55.8317 8.45259L52.9872 13.1871L51.5432 8.48768C51.4962 8.33475 51.353 8.22998 51.1911 8.22998L48.6242 8.23024Z"/>
    <path d="M84.1739 4.09961C83.9931 4.09961 83.839 4.22949 83.8107 4.40573L81.7138 17.512C81.7061 17.5599 81.709 17.6089 81.7224 17.6556C81.7357 17.7023 81.7592 17.7456 81.7911 17.7825C81.8231 17.8194 81.8628 17.849 81.9075 17.8693C81.9522 17.8896 82.0008 17.9001 82.05 17.9001H84.5362C84.717 17.9001 84.8711 17.7702 84.8994 17.594L86.9958 4.48719C87.0034 4.43936 87.0005 4.39046 86.9871 4.34387C86.9737 4.29728 86.9503 4.25409 86.9184 4.21727C86.8865 4.18045 86.8469 4.15087 86.8023 4.13056C86.7577 4.11025 86.7092 4.09969 86.6601 4.09961H84.1739Z"/>
    <path d="M15.1274 4.77173C15.1225 5.01136 15.1013 5.2504 15.0637 5.4872C14.5591 8.65907 11.7972 10.9997 8.54297 10.9997H5.30923C4.97845 10.9997 4.69653 11.2369 4.64508 11.5594L3.63039 17.9L2.99482 21.8778C2.98242 21.9547 2.98706 22.0332 3.00846 22.1082C3.02985 22.1831 3.06749 22.2525 3.11875 22.3117C3.17 22.3708 3.23367 22.4184 3.30536 22.4509C3.37705 22.4835 3.45506 22.5003 3.53399 22.5003H7.04394C7.2041 22.5002 7.35895 22.4437 7.48068 22.3411C7.60242 22.2385 7.68305 22.0965 7.70809 21.9406L8.63261 16.1596C8.65766 16.0036 8.73838 15.8615 8.86022 15.7589C8.98207 15.6563 9.13705 15.5999 9.29729 15.5999H11.3638C14.6183 15.5999 17.3799 13.2593 17.8846 10.0875C18.2429 7.83626 17.0928 5.78769 15.1274 4.77173Z"/>
    <path fill-rule="evenodd" clip-rule="evenodd" d="M3.76087 2.05946C3.81232 1.73746 4.09424 1.50024 4.42502 1.50024H11.4436C13.7129 1.50024 15.5596 2.61198 16.4847 4.23666C17.0276 4.10868 17.5354 4.03522 17.9998 4.31121C17.9947 4.60031 17.9723 4.8887 17.9329 5.1744C17.4034 9.00112 14.5054 12.825 11.0902 12.825H7.69671C7.34945 12.825 7.05396 13.1112 6.99982 13.4998L8.0109 6.23152C7.99893 6.24031 7.98723 6.24952 7.97582 6.25914C7.85409 6.36173 7.77344 6.50376 7.7484 6.65971L6.64486 13.5598L5.76538 19.0584C5.68778 19.5436 5.26924 19.9005 4.77793 19.9005H1.54623C1.21052 19.9005 0.954306 19.6049 1.00653 19.278L3.76087 2.05946Z" fill="#191E24"/>
    <path fill-rule="evenodd" clip-rule="evenodd" d="M2.76087 1.05946C2.81232 0.737455 3.09424 0.500244 3.42502 0.500244H10.4436C13.7663 0.500244 16.1832 2.88382 16.1272 5.77113C16.1272 5.77126 16.1272 5.77139 16.1274 5.77145C16.1275 5.77151 16.1276 5.77163 16.1276 5.77177C16.1227 6.01133 16.1014 6.25029 16.0639 6.48702C15.5593 9.65889 12.7977 11.9995 9.54315 11.9995H6.30941C5.9785 11.9995 5.69692 12.2368 5.64532 12.5589L6.7488 5.65909C6.76345 5.56784 6.79715 5.48135 6.84697 5.40474C6.79693 5.4815 6.76309 5.56821 6.7484 5.65971L5.64486 12.5598L4.76538 18.0584C4.68778 18.5436 4.26924 18.9005 3.77793 18.9005H0.546234C0.210518 18.9005 -0.0456936 18.6049 0.00653468 18.278L2.76087 1.05946Z"/>
  </symbol>
  <symbol id="facebook" viewBox="0 0 17 17">
    <path fill-rule="evenodd" clip-rule="evenodd" d="M8.46753 16.9999L8.47513 17H8.47251L8.46753 16.9999ZM8.52749 17H8.52487L8.53247 16.9999L8.52749 17ZM8.44156 16.9998L8.44976 16.9998H8.44505L8.44156 16.9998ZM8.55495 16.9998H8.55024L8.55844 16.9998L8.55495 16.9998ZM8.41653 16.9996L8.42201 16.9996L8.41762 16.9996H8.41653ZM8.58238 16.9996L8.57799 16.9996L8.58347 16.9996H8.58238ZM8.6098 16.9993L8.60788 16.9993L8.61528 16.9992L8.6098 16.9993ZM8.38472 16.9992L8.39212 16.9993L8.3902 16.9993L8.38472 16.9992ZM8.63719 16.9989L8.63271 16.999L8.64184 16.9988L8.63719 16.9989ZM8.35816 16.9988L8.36729 16.999L8.3628 16.9989L8.35816 16.9988ZM8.66455 16.9984L8.65851 16.9985L8.66695 16.9984L8.66455 16.9984ZM8.33305 16.9984L8.34149 16.9985L8.33545 16.9984L8.33305 16.9984ZM8.30194 16.9977L8.30941 16.9979L8.30809 16.9979L8.30194 16.9977ZM8.69191 16.9979L8.69059 16.9979L8.69806 16.9977L8.69191 16.9979ZM8.27465 16.997L8.28491 16.9973L8.28076 16.9972L8.27465 16.997ZM8.71924 16.9972L8.71509 16.9973L8.72535 16.997L8.71924 16.9972ZM8.74657 16.9965L8.73989 16.9967L8.75038 16.9964L8.74657 16.9965ZM8.24962 16.9964L8.26011 16.9967L8.25343 16.9965L8.24962 16.9964ZM8.22571 16.9956L8.23318 16.9959L8.22614 16.9956L8.2197 16.9955L8.22571 16.9956ZM8.77386 16.9956L8.76682 16.9959L8.77429 16.9956L8.7803 16.9955L8.77386 16.9956ZM8.80112 16.9948L8.7974 16.9949L8.80886 16.9945L8.80112 16.9948ZM8.19114 16.9945L8.2026 16.9949L8.19888 16.9948L8.19114 16.9945ZM8.16628 16.9936L8.1783 16.994L8.17162 16.9938L8.16628 16.9936ZM8.82838 16.9938L8.8217 16.994L8.83372 16.9936L8.82838 16.9938ZM8.14187 16.9926L8.15362 16.9931L8.14443 16.9927L8.14187 16.9926ZM8.85557 16.9927L8.84638 16.9931L8.85813 16.9926L8.85557 16.9927ZM8.10767 16.9911L8.12029 16.9916L8.1172 16.9915L8.10767 16.9911ZM8.8828 16.9915L8.87971 16.9916L8.89233 16.9911L8.8828 16.9915ZM8.08313 16.9899L8.09622 16.9905L8.09004 16.9903L8.08313 16.9899ZM8.90996 16.9903L8.90378 16.9905L8.91687 16.9899L8.90996 16.9903ZM8.05896 16.9887L8.07214 16.9894L8.06288 16.9889L8.05896 16.9887ZM8.93712 16.9889L8.92785 16.9894L8.94104 16.9887L8.93712 16.9889ZM8.96428 16.9875L8.95226 16.9881L8.96292 16.9876L8.97547 16.9869L8.96428 16.9875ZM8.03708 16.9876L8.04774 16.9881L8.03572 16.9875L8.02453 16.9869L8.03708 16.9876ZM8.99137 16.986L8.98606 16.9863L8.99954 16.9855L8.99137 16.986ZM8.00046 16.9855L8.01394 16.9863L8.00863 16.986L8.00046 16.9855ZM7.97649 16.9841L7.98993 16.9849L7.98153 16.9844L7.97649 16.9841ZM9.01847 16.9844L9.01007 16.9849L9.02351 16.9841L9.01847 16.9844ZM7.95361 16.9827L7.96573 16.9834L7.95444 16.9827L7.94308 16.982L7.95361 16.9827ZM9.04556 16.9827L9.03427 16.9834L9.04639 16.9827L9.05692 16.982L9.04556 16.9827ZM9.07259 16.981L9.06854 16.9812L9.08139 16.9804L9.07259 16.981ZM7.91861 16.9804L7.93146 16.9812L7.92741 16.981L7.91861 16.9804ZM7.89467 16.9787L7.90729 16.9796L7.90038 16.9791L7.89467 16.9787ZM9.09962 16.9791L9.09271 16.9796L9.10533 16.9787L9.09962 16.9791ZM7.8708 16.977L7.88239 16.9779L7.87339 16.9772L7.8708 16.977ZM9.12661 16.9772L9.11761 16.9779L9.1292 16.977L9.12661 16.9772ZM7.83869 16.9746L7.84885 16.9754L7.8464 16.9752L7.83869 16.9746ZM9.1536 16.9752L9.15115 16.9754L9.16131 16.9746L9.1536 16.9752ZM9.18053 16.9731L9.17568 16.9735L9.18601 16.9726L9.18053 16.9731ZM7.81399 16.9726L7.82432 16.9735L7.81947 16.9731L7.81399 16.9726ZM7.78992 16.9707L7.79868 16.9714L7.79251 16.9709L7.78992 16.9707ZM9.20749 16.9709L9.20132 16.9714L9.21008 16.9707L9.20749 16.9709ZM7.76342 16.9685L7.76605 16.9687L7.76561 16.9687L7.76342 16.9685ZM9.23439 16.9687L9.23396 16.9687L9.23658 16.9685L9.23439 16.9687ZM9.26128 16.9663L9.25889 16.9665L9.2649 16.966L9.26128 16.9663ZM7.7351 16.966L7.74111 16.9665L7.73872 16.9663L7.7351 16.966ZM7.7102 16.9637L7.71468 16.9641L7.71189 16.9639L7.7102 16.9637ZM9.28811 16.9639L9.28532 16.9641L9.2898 16.9637L9.28811 16.9639ZM7.17188 16.8966C3.1105 16.2583 0 12.7395 0 8.5C0 3.80873 3.80873 0 8.5 0C13.1913 0 17 3.80873 17 8.5C17 12.7395 13.8895 16.2583 9.82812 16.8966V10.957H11.8087L12.1855 8.5H9.82812V6.90555C9.82812 6.23336 10.1574 5.57812 11.2133 5.57812H12.2852V3.48633C12.2852 3.48633 11.3124 3.32031 10.3825 3.32031C8.44087 3.32031 7.17188 4.49703 7.17188 6.62734V8.5H5.01367V10.957H7.17188V16.8966Z"/>
  </symbol>
  <symbol id="insta" viewBox="0 0 15 15">
    <path fill-rule="evenodd" clip-rule="evenodd" d="M12.6508 3.16433C12.6503 2.99958 12.6011 2.83866 12.5092 2.7019C12.4174 2.56514 12.287 2.45866 12.1347 2.39593C11.9824 2.3332 11.8148 2.31703 11.6533 2.34946C11.4918 2.38188 11.3435 2.46145 11.2272 2.57811C11.1109 2.69478 11.0317 2.8433 10.9998 3.00492C10.9678 3.16653 10.9845 3.334 11.0476 3.48615C11.1108 3.63831 11.2177 3.76832 11.3547 3.85978C11.4917 3.95124 11.6528 4.00003 11.8175 4C12.0387 3.99913 12.2505 3.91073 12.4066 3.75413C12.5628 3.59753 12.6505 3.38547 12.6508 3.16433ZM7.50586 3.33502C6.6824 3.33421 5.8772 3.57766 5.19212 4.03457C4.50705 4.49148 3.97289 5.14131 3.65721 5.90187C3.34154 6.66242 3.25854 7.49951 3.41871 8.30725C3.57888 9.11498 3.97503 9.85706 4.55704 10.4396C5.13905 11.0221 5.88077 11.419 6.68836 11.5799C7.49595 11.7408 8.33312 11.6586 9.09396 11.3436C9.8548 11.0286 10.5051 10.495 10.9627 9.81039C11.4202 9.12573 11.6644 8.32076 11.6643 7.49729C11.6649 6.95087 11.5577 6.40969 11.3489 5.90471C11.1402 5.39972 10.834 4.94083 10.4478 4.55427C10.0616 4.16771 9.60295 3.86106 9.09816 3.65185C8.59337 3.44265 8.05229 3.33499 7.50586 3.33502ZM14.9954 7.56924C14.9954 8.67456 15.0081 9.78012 14.9919 10.8852C14.979 11.797 14.6673 12.6795 14.1047 13.3972C13.542 14.115 12.7595 14.6283 11.8771 14.8586C11.5531 14.945 11.2193 14.9895 10.884 14.991C8.62982 14.992 6.37538 15.0156 4.12174 14.9834C3.37491 14.9903 2.6409 14.7891 2.00199 14.4023C1.36308 14.0155 0.844525 13.4584 0.504436 12.7934C0.173434 12.204 0.00279601 11.5381 0.00955184 10.8621C0.006898 8.61399 -0.0135251 6.3656 0.0161865 4.11791C0.00904844 3.38051 0.204821 2.65536 0.582094 2.02174C0.959367 1.38813 1.50361 0.870459 2.1553 0.525351C2.77462 0.170675 3.47825 -0.0101166 4.19184 0.00208166C6.4314 0.00265858 8.67107 -0.00512988 10.9105 0.00617781C11.8785 0.00739514 12.8128 0.361859 13.5381 1.00304C14.272 1.61971 14.7637 2.47641 14.9261 3.42116C14.9704 3.67529 14.9927 3.93276 14.9928 4.19072C14.9997 5.31681 14.9954 6.44314 14.9954 7.56924Z"/>
    <path fill-rule="evenodd" clip-rule="evenodd" d="M7.49827 4.82153C8.02808 4.8212 8.54609 4.978 8.98678 5.27208C9.42747 5.56617 9.77106 5.98434 9.97408 6.4737C10.1771 6.96307 10.2304 7.50165 10.1273 8.02133C10.0243 8.54101 9.76937 9.01845 9.39492 9.39326C9.02047 9.76808 8.54328 10.0234 8.0237 10.127C7.50411 10.2306 6.96548 10.1778 6.47592 9.97526C5.98636 9.77271 5.56785 9.42953 5.27334 8.98912C4.97883 8.54872 4.82153 8.03086 4.82135 7.50105C4.82118 7.14934 4.89028 6.80104 5.02471 6.47604C5.15915 6.15104 5.35628 5.85569 5.60486 5.60688C5.85343 5.35806 6.14858 5.16064 6.47346 5.02589C6.79833 4.89114 7.14656 4.8217 7.49827 4.82153Z"/>
  </symbol>
  <symbol id="open" viewBox="0 0 34 25">
    <path d="M33.9095 5.11608L31.1736 0.494209C31.0089 0.155147 30.6529 -0.0417286 30.2864 0.00749015L16.9998 1.75202L21.8714 9.06999C22.0732 9.41452 22.477 9.57858 22.8542 9.46921L33.3676 6.37936C33.8936 6.22077 34.1486 5.61921 33.9095 5.11608ZM2.82606 0.494209L0.0901197 5.11608C-0.154255 5.61921 0.106057 6.22077 0.626682 6.3739L11.1401 9.46374C11.5173 9.57312 11.9211 9.40905 12.1229 9.06452L16.9998 1.75202L3.70793 0.00749015C3.34137 -0.0362598 2.99074 0.155147 2.82606 0.494209Z"/>
    <path d="M22.7805 13.3353C21.8563 13.3353 20.9867 12.8249 20.5164 12.0083L17 7.5L13.4891 12.0083C13.0133 12.8306 12.1437 13.341 11.2195 13.341C10.9734 13.341 10.7273 13.307 10.4922 13.2333L3 11.0102V20.0676C3 20.9013 3.54687 21.6272 4.32344 21.8257L16.1469 24.8937C16.7047 25.0354 17.2898 25.0354 17.8422 24.8937L29.6766 21.8257C30.4531 21.6215 31 20.8956 31 20.0676V11.0102L23.5078 13.2276C23.2727 13.3013 23.0266 13.3353 22.7805 13.3353Z"/>
  </symbol>
  <symbol id="total" viewBox="0 0 32 28">
    <path d="M15.032 20.188C15.376 19.218 18 15.876 18 10C18 6.686 15.314 4 12 4C8.686 4 6 6.686 6 10C6 15.876 8.626 19.218 8.968 20.188C5.906 20.468 0 22.422 0 26C0 26.844 0.672 28 2 28H22C23.328 28 24 26.844 24 26C24 22.422 18.094 20.468 15.032 20.188ZM25.296 14.078C25.778 12.622 28 8.546 28 6C28 2.686 25.312 0 22 0C20.32 0 18.802 0.692 17.714 1.804C20.3 3.616 22 6.612 22 10C22 13.042 21.406 15.558 20.71 17.496C22.26 18.11 23.764 18.942 25.002 20H30C31.156 20 32 19.094 32 18C32 15.484 27.156 14.422 25.296 14.078Z"/>
  </symbol>
  <symbol id="contractss2" viewBox="0 0 26 34">
    <path d="M22.75 4.25H17.3333C17.3333 1.90586 15.3901 0 13 0C10.6099 0 8.66667 1.90586 8.66667 4.25H3.25C1.45573 4.25 0 5.67773 0 7.4375V30.8125C0 32.5723 1.45573 34 3.25 34H22.75C24.5443 34 26 32.5723 26 30.8125V7.4375C26 5.67773 24.5443 4.25 22.75 4.25ZM6.5 28.1562C5.59948 28.1562 4.875 27.4457 4.875 26.5625C4.875 25.6793 5.59948 24.9688 6.5 24.9688C7.40052 24.9688 8.125 25.6793 8.125 26.5625C8.125 27.4457 7.40052 28.1562 6.5 28.1562ZM6.5 21.7812C5.59948 21.7812 4.875 21.0707 4.875 20.1875C4.875 19.3043 5.59948 18.5938 6.5 18.5938C7.40052 18.5938 8.125 19.3043 8.125 20.1875C8.125 21.0707 7.40052 21.7812 6.5 21.7812ZM6.5 15.4062C5.59948 15.4062 4.875 14.6957 4.875 13.8125C4.875 12.9293 5.59948 12.2188 6.5 12.2188C7.40052 12.2188 8.125 12.9293 8.125 13.8125C8.125 14.6957 7.40052 15.4062 6.5 15.4062ZM13 2.65625C13.9005 2.65625 14.625 3.3668 14.625 4.25C14.625 5.1332 13.9005 5.84375 13 5.84375C12.0995 5.84375 11.375 5.1332 11.375 4.25C11.375 3.3668 12.0995 2.65625 13 2.65625ZM21.6667 27.0938C21.6667 27.3859 21.4229 27.625 21.125 27.625H11.375C11.0771 27.625 10.8333 27.3859 10.8333 27.0938V26.0312C10.8333 25.7391 11.0771 25.5 11.375 25.5H21.125C21.4229 25.5 21.6667 25.7391 21.6667 26.0312V27.0938ZM21.6667 20.7188C21.6667 21.0109 21.4229 21.25 21.125 21.25H11.375C11.0771 21.25 10.8333 21.0109 10.8333 20.7188V19.6562C10.8333 19.3641 11.0771 19.125 11.375 19.125H21.125C21.4229 19.125 21.6667 19.3641 21.6667 19.6562V20.7188ZM21.6667 14.3438C21.6667 14.6359 21.4229 14.875 21.125 14.875H11.375C11.0771 14.875 10.8333 14.6359 10.8333 14.3438V13.2812C10.8333 12.9891 11.0771 12.75 11.375 12.75H21.125C21.4229 12.75 21.6667 12.9891 21.6667 13.2812V14.3438Z"/>
  </symbol>
  <symbol id="upgrade2" viewBox="0 0 28 30">
    <path d="M19 25H9C8.46957 25 7.96086 25.2107 7.58579 25.5858C7.21071 25.9609 7 26.4696 7 27V28C7 28.5304 7.21071 29.0391 7.58579 29.4142C7.96086 29.7893 8.46957 30 9 30H19C19.5304 30 20.0391 29.7893 20.4142 29.4142C20.7893 29.0391 21 28.5304 21 28V27C21 26.4696 20.7893 25.9609 20.4142 25.5858C20.0391 25.2107 19.5304 25 19 25Z"/>
    <path d="M27.6847 13.2077L14.7614 0.307686C14.6614 0.210144 14.5427 0.132763 14.4121 0.0799687C14.2815 0.027174 14.1414 0 14 0C13.8586 0 13.7185 0.027174 13.5879 0.0799687C13.4573 0.132763 13.3386 0.210144 13.2386 0.307686L0.315139 13.2077C0.164572 13.3545 0.0620405 13.5416 0.0205055 13.7452C-0.0210294 13.9489 0.000297241 14.16 0.0817894 14.3518C0.163282 14.5436 0.30128 14.7076 0.47834 14.823C0.6554 14.9384 0.863571 15 1.07654 15H6.99982L7 18.9C7.00065 19.4568 7.22779 19.9905 7.63158 20.3842C8.03537 20.7779 8.58284 20.9994 9.15388 21H18.8459C19.417 20.9993 19.9644 20.7778 20.3681 20.3841C20.7719 19.9904 20.9991 19.4567 20.9998 18.9V15H26.9233C27.1363 15 27.3444 14.9384 27.5215 14.823C27.6985 14.7076 27.8365 14.5436 27.918 14.3518C27.9995 14.16 28.0209 13.9489 27.9793 13.7452C27.9378 13.5416 27.8353 13.3545 27.6847 13.2077Z"/>
  </symbol>
  <symbol id="terms" viewBox="0 0 18 18">
    <path d="M16.5 0H1.5C1.10218 0 0.720644 0.158035 0.43934 0.43934C0.158035 0.720644 0 1.10218 0 1.5V16.5C0 16.8978 0.158035 17.2794 0.43934 17.5607C0.720644 17.842 1.10218 18 1.5 18H11.6906C11.8876 18.0002 12.0826 17.9613 12.2644 17.8857C12.4462 17.8101 12.6113 17.6992 12.75 17.5594L17.5594 12.75C17.6992 12.6113 17.8101 12.4462 17.8857 12.2644C17.9613 12.0826 18.0002 11.8876 18 11.6906V1.5C18 1.10218 17.842 0.720644 17.5607 0.43934C17.2794 0.158035 16.8978 0 16.5 0ZM6 5.25H12C12.1989 5.25 12.3897 5.32902 12.5303 5.46967C12.671 5.61032 12.75 5.80109 12.75 6C12.75 6.19891 12.671 6.38968 12.5303 6.53033C12.3897 6.67098 12.1989 6.75 12 6.75H6C5.80109 6.75 5.61032 6.67098 5.46967 6.53033C5.32902 6.38968 5.25 6.19891 5.25 6C5.25 5.80109 5.32902 5.61032 5.46967 5.46967C5.61032 5.32902 5.80109 5.25 6 5.25ZM9 12.75H6C5.80109 12.75 5.61032 12.671 5.46967 12.5303C5.32902 12.3897 5.25 12.1989 5.25 12C5.25 11.8011 5.32902 11.6103 5.46967 11.4697C5.61032 11.329 5.80109 11.25 6 11.25H9C9.19891 11.25 9.38968 11.329 9.53033 11.4697C9.67098 11.6103 9.75 11.8011 9.75 12C9.75 12.1989 9.67098 12.3897 9.53033 12.5303C9.38968 12.671 9.19891 12.75 9 12.75ZM6 9.75C5.80109 9.75 5.61032 9.67098 5.46967 9.53033C5.32902 9.38968 5.25 9.19891 5.25 9C5.25 8.80109 5.32902 8.61032 5.46967 8.46967C5.61032 8.32902 5.80109 8.25 6 8.25H12C12.1989 8.25 12.3897 8.32902 12.5303 8.46967C12.671 8.61032 12.75 8.80109 12.75 9C12.75 9.19891 12.671 9.38968 12.5303 9.53033C12.3897 9.67098 12.1989 9.75 12 9.75H6ZM12 16.1906V12H16.1906L12 16.1906Z"/>
  </symbol>
  <symbol id="privacy" viewBox="0 0 18 20">
    <path d="M16.5 0.75H1.5C1.10218 0.75 0.720644 0.908035 0.43934 1.18934C0.158035 1.47064 0 1.85218 0 2.25V7.75312C0 16.1344 7.10625 18.9188 8.53125 19.3875C8.83572 19.4877 9.16428 19.4877 9.46875 19.3875C10.8938 18.9188 18 16.1344 18 7.75312V2.25C18 1.85218 17.842 1.47064 17.5607 1.18934C17.2794 0.908035 16.8978 0.75 16.5 0.75ZM9 17.9625C7.80937 17.5688 2.22188 15.375 1.56563 9H9V2.25H16.5V7.75312C16.5023 8.16967 16.4803 8.58599 16.4344 9H9V17.9625Z"/>
  </symbol>
  <symbol id="contact" viewBox="0 0 19 20">
    <path d="M13 8.5C13 8.94501 12.868 9.38002 12.6208 9.75003C12.3736 10.12 12.0222 10.4084 11.611 10.5787C11.1999 10.749 10.7475 10.7936 10.311 10.7068C9.87459 10.62 9.47368 10.4057 9.15901 10.091C8.84434 9.77632 8.63005 9.37541 8.54323 8.93895C8.45642 8.5025 8.50097 8.0501 8.67127 7.63896C8.84157 7.22783 9.12996 6.87643 9.49997 6.62919C9.86998 6.38196 10.305 6.25 10.75 6.25C11.346 6.25247 11.9168 6.49031 12.3383 6.91174C12.7597 7.33316 12.9975 7.90402 13 8.5ZM19 1.75V18.25C19 18.6478 18.842 19.0294 18.5607 19.3107C18.2794 19.592 17.8978 19.75 17.5 19.75H4C3.60218 19.75 3.22064 19.592 2.93934 19.3107C2.65804 19.0294 2.5 18.6478 2.5 18.25V16.375H1C0.801088 16.375 0.610322 16.296 0.46967 16.1553C0.329018 16.0147 0.25 15.8239 0.25 15.625C0.25 15.4261 0.329018 15.2353 0.46967 15.0947C0.610322 14.954 0.801088 14.875 1 14.875H2.5V12.625H1C0.801088 12.625 0.610322 12.546 0.46967 12.4053C0.329018 12.2647 0.25 12.0739 0.25 11.875C0.25 11.6761 0.329018 11.4853 0.46967 11.3447C0.610322 11.204 0.801088 11.125 1 11.125H2.5V8.875H1C0.801088 8.875 0.610322 8.79598 0.46967 8.65533C0.329018 8.51468 0.25 8.32391 0.25 8.125C0.25 7.92609 0.329018 7.73532 0.46967 7.59467C0.610322 7.45402 0.801088 7.375 1 7.375H2.5V5.125H1C0.801088 5.125 0.610322 5.04598 0.46967 4.90533C0.329018 4.76468 0.25 4.57391 0.25 4.375C0.25 4.17609 0.329018 3.98532 0.46967 3.84467C0.610322 3.70402 0.801088 3.625 1 3.625H2.5V1.75C2.5 1.35218 2.65804 0.970644 2.93934 0.68934C3.22064 0.408035 3.60218 0.25 4 0.25H17.5C17.8978 0.25 18.2794 0.408035 18.5607 0.68934C18.842 0.970644 19 1.35218 19 1.75ZM15.85 13.3C15.1863 12.409 14.3006 11.7076 13.2812 11.2656C13.8389 10.7554 14.2294 10.0886 14.4015 9.35254C14.5736 8.61651 14.5192 7.84566 14.2456 7.14106C13.9719 6.43647 13.4917 5.83103 12.8679 5.40413C12.2441 4.97723 11.5059 4.74881 10.75 4.74881C9.99412 4.74881 9.25589 4.97723 8.6321 5.40413C8.00832 5.83103 7.5281 6.43647 7.25443 7.14106C6.98075 7.84566 6.92639 8.61651 7.09847 9.35254C7.27056 10.0886 7.66105 10.7554 8.21875 11.2656C7.19942 11.7076 6.31374 12.409 5.65 13.3C5.53065 13.4591 5.47941 13.6592 5.50754 13.8561C5.53567 14.053 5.64087 14.2307 5.8 14.35C5.92882 14.4493 6.08739 14.5021 6.25 14.5C6.36643 14.5 6.48127 14.4729 6.58541 14.4208C6.68955 14.3687 6.78014 14.2931 6.85 14.2C7.30409 13.5945 7.89291 13.1031 8.56983 12.7647C9.24675 12.4262 9.99318 12.25 10.75 12.25C11.5068 12.25 12.2532 12.4262 12.9302 12.7647C13.6071 13.1031 14.1959 13.5945 14.65 14.2C14.7708 14.3571 14.9483 14.4607 15.1445 14.4887C15.3407 14.5167 15.54 14.4669 15.7 14.35C15.7788 14.2909 15.8452 14.2169 15.8954 14.1321C15.9455 14.0474 15.9785 13.9536 15.9925 13.8561C16.0064 13.7586 16.001 13.6593 15.9765 13.5639C15.9521 13.4685 15.9091 13.3788 15.85 13.3Z"/>
  </symbol>
  <symbol id="support" viewBox="0 0 20 20">
    <path d="M16.9562 16.8249C18.7472 15.0047 19.7509 12.5535 19.7509 9.99991C19.7509 7.44636 18.7472 4.99513 16.9562 3.17491C16.9394 3.14853 16.917 3.12614 16.8906 3.10929C16.8737 3.08291 16.8514 3.06051 16.825 3.04366C15.0048 1.25273 12.5535 0.249023 9.99997 0.249023C7.44642 0.249023 4.99519 1.25273 3.17497 3.04366C3.14859 3.06051 3.1262 3.08291 3.10935 3.10929C3.08297 3.12614 3.06057 3.14853 3.04372 3.17491C1.25279 4.99513 0.249084 7.44636 0.249084 9.99991C0.249084 12.5535 1.25279 15.0047 3.04372 16.8249L3.10935 16.8905C3.1262 16.9169 3.14859 16.9393 3.17497 16.9562C4.99519 18.7471 7.44642 19.7508 9.99997 19.7508C12.5535 19.7508 15.0048 18.7471 16.825 16.9562C16.8514 16.9393 16.8737 16.9169 16.8906 16.8905C16.917 16.8737 16.9394 16.8513 16.9562 16.8249ZM6.99997 9.99991C6.99997 9.40657 7.17592 8.82655 7.50556 8.3332C7.83521 7.83985 8.30374 7.45533 8.85192 7.22827C9.4001 7.00121 10.0033 6.9418 10.5852 7.05755C11.1672 7.17331 11.7017 7.45903 12.1213 7.87859C12.5408 8.29815 12.8266 8.8327 12.9423 9.41464C13.0581 9.99658 12.9987 10.5998 12.7716 11.148C12.5445 11.6961 12.16 12.1647 11.6667 12.4943C11.1733 12.824 10.5933 12.9999 9.99997 12.9999C9.20508 12.9974 8.44346 12.6806 7.88138 12.1185C7.31931 11.5564 7.00244 10.7948 6.99997 9.99991ZM15.2781 3.66241L12.6062 6.33429C11.8454 5.79203 10.9343 5.5006 9.99997 5.5006C9.06565 5.5006 8.15459 5.79203 7.39372 6.33429L4.72185 3.66241C6.2032 2.42692 8.07102 1.75024 9.99997 1.75024C11.9289 1.75024 13.7967 2.42692 15.2781 3.66241ZM4.72185 16.3374L7.39372 13.6655C8.15459 14.2078 9.06565 14.4992 9.99997 14.4992C10.9343 14.4992 11.8454 14.2078 12.6062 13.6655L15.2781 16.3374C13.7967 17.5729 11.9289 18.2496 9.99997 18.2496C8.07102 18.2496 6.2032 17.5729 4.72185 16.3374Z"/>
  </symbol>
  <symbol id="items" viewBox="0 0 20 19">
    <path fill-rule="evenodd" clip-rule="evenodd" d="M7 2H13C13.5523 2 14 2.44772 14 3C14 3.55228 13.5523 4 13 4H7C6.44772 4 6 3.55228 6 3C6 2.44772 6.44771 2 7 2ZM3 4C3.55228 4 4 3.55228 4 3C4 1.34315 5.34315 0 7 0H13C14.6569 0 16 1.34315 16 3C16 3.55228 16.4477 4 17 4H18C19.1046 4 20 4.89543 20 6V17C20 18.1046 19.1046 19 18 19H2C0.895431 19 0 18.1046 0 17V6C0 4.89543 0.895431 4 2 4H3ZM5.66647 7.67882V7H4.75339V7.67882H4.14466V7H3.20114V7.67882H2.44024V9.89804H12.7277C12.6784 9.71962 12.588 9.54624 12.4992 9.37607C12.4718 9.3235 12.4446 9.27123 12.4187 9.21922C12.3152 9.01072 12.2152 8.80075 12.1153 8.59083C12.0658 8.48692 12.0163 8.38302 11.9664 8.27931L11.778 7.88769C11.7738 7.8788 11.7697 7.86956 11.7654 7.86015C11.7396 7.80291 11.7109 7.7391 11.6504 7.70565C11.5638 7.65777 11.414 7.66664 11.2889 7.67405C11.2473 7.67652 11.2084 7.67882 11.1754 7.67882H10.0188H5.66647ZM16.3496 9.89804H18.0236V8.93203C18.0236 8.89264 18.0266 8.84926 18.0298 8.80425C18.038 8.68721 18.0469 8.55919 18.0052 8.46207C17.9591 8.35482 17.8385 8.26176 17.7295 8.17761C17.6933 8.14968 17.6584 8.12272 17.6279 8.09656C17.5895 8.06361 17.5493 8.0246 17.5073 7.98383C17.3891 7.86925 17.2568 7.74084 17.1105 7.69457C16.96 7.64699 16.7521 7.65911 16.564 7.67009C16.4875 7.67455 16.4143 7.67882 16.3496 7.67882H14.6147C14.7298 8.03964 14.9159 8.39259 15.1001 8.74193C15.1936 8.91918 15.2866 9.09549 15.3695 9.27144L15.5704 9.68917C15.5753 9.69956 15.5801 9.71052 15.5849 9.72175C15.609 9.77708 15.636 9.83899 15.6927 9.8712C15.8003 9.93226 16.0149 9.91772 16.1882 9.90598C16.2493 9.90183 16.3053 9.89804 16.3496 9.89804ZM13.6712 9.89804H14.706C14.6742 9.73954 14.5937 9.58526 14.5153 9.43506C14.4912 9.38884 14.4672 9.343 14.445 9.29755C14.3707 9.14554 14.2978 8.99301 14.2248 8.84047C14.1311 8.64434 14.0374 8.4482 13.9406 8.25321C13.8889 8.14922 13.8385 8.04466 13.7882 7.94018C13.7797 7.92268 13.7713 7.90518 13.7628 7.88769C13.7566 7.87485 13.7507 7.86077 13.7446 7.8462C13.7228 7.79449 13.6985 7.73655 13.6499 7.70565C13.5935 7.66975 13.5027 7.67369 13.4258 7.67704C13.4048 7.67795 13.3848 7.67882 13.3668 7.67882H12.6364C12.6705 7.84372 12.7579 8.00791 12.8424 8.16659C12.872 8.22232 12.9013 8.27737 12.9278 8.33153C13.0019 8.48288 13.0826 8.63561 13.1639 8.78952C13.3561 9.15341 13.5519 9.52386 13.6712 9.89804ZM17.6888 12.065V10.6552H3.99248C4.04937 10.7705 4.14374 10.8702 4.23661 10.9684C4.26134 10.9946 4.28596 11.0206 4.30975 11.0468C4.37104 11.1143 4.43246 11.1817 4.49389 11.2491C4.62258 11.3902 4.75128 11.5314 4.87875 11.6734C4.90363 11.7011 4.92972 11.734 4.95729 11.7688C5.04469 11.879 5.14691 12.0078 5.27199 12.0493C5.42482 12.0999 5.64363 12.0866 5.83974 12.0746C5.91964 12.0697 5.99577 12.065 6.06214 12.065H7.88832C7.94944 12.065 8.02156 12.0604 8.098 12.0554C8.2879 12.043 8.5044 12.029 8.64484 12.0808C8.77197 12.1277 8.83665 12.3513 8.88384 12.5144C8.89813 12.5638 8.91081 12.6077 8.92315 12.6394C9.07697 13.0353 9.22562 13.3945 9.65361 13.6341C10.1237 13.8973 10.7568 13.8736 11.3358 13.8519C11.4905 13.8461 11.6413 13.8404 11.7841 13.8404C11.8407 13.8404 11.9066 13.8363 11.9763 13.8319C12.1508 13.8208 12.3487 13.8084 12.4801 13.8562C12.5717 13.8895 12.5964 13.9758 12.6183 14.0523C12.6205 14.0601 12.6227 14.0678 12.625 14.0754C12.6501 14.1596 12.6761 14.2436 12.7022 14.3276C12.7328 14.4261 12.7634 14.5247 12.7924 14.6237C12.8906 14.9591 12.9962 15.293 13.1017 15.6269C13.1693 15.8407 13.2368 16.0544 13.3024 16.2685C13.3248 16.3414 13.3495 16.4145 13.3744 16.488C13.4317 16.6572 13.4896 16.8278 13.519 16.9995H15.193C15.2313 16.9995 15.2694 16.9997 15.3072 16.9998C15.8753 17.0015 16.3784 17.003 16.8033 16.6079C16.8955 16.5221 16.9675 16.4271 17.0233 16.3207C17.2366 15.9136 17.115 15.517 16.9895 15.1075L16.9852 15.0936C16.9444 14.9605 16.9039 14.8273 16.8633 14.6941C16.7394 14.2871 16.6155 13.8801 16.4842 13.4749C16.4702 13.4316 16.4544 13.387 16.4383 13.3415C16.3755 13.164 16.3079 12.973 16.3221 12.7961C16.3719 12.1766 17.1177 12.065 17.6888 12.065ZM10.8403 13.0309H12.3012C12.2469 12.8052 12.1724 12.5801 12.0991 12.3583L12.097 12.3521C12.0912 12.3344 12.0859 12.3135 12.0804 12.2913C12.0621 12.2181 12.0401 12.13 11.9797 12.0917C11.8842 12.0312 11.672 12.0459 11.506 12.0574C11.4489 12.0613 11.3973 12.0649 11.3577 12.0649H9.71415C9.71936 12.0842 9.72465 12.1042 9.73007 12.1246C9.80115 12.3927 9.8949 12.7463 10.1407 12.9163C10.3173 13.0384 10.5254 13.0352 10.7374 13.0319C10.7716 13.0314 10.806 13.0309 10.8403 13.0309Z"/>
  </symbol>
  <symbol id="exit" viewBox="0 0 22 16">
    <path d="M13 8.72519H7.05596V7.27064H13V2.00006C13 0.895467 12.1046 2.71293e-05 11 6.05944e-05L1.99994 0.000333262C0.895394 0.000366725 0 0.895787 0 2.00033V14C0 15.1046 0.895431 16 2 16H11C12.1046 16 13 15.1046 13 14L13 8.72519Z"/>
    <path d="M19.0353 8.7795L15.9376 11.8975L17.0329 13L22 8L17.0329 3L15.9376 4.1025L19.0353 7.2205H13V8.7795H19.0353Z"/>
  </symbol>
  <symbol id="prize2" viewBox="0 0 24 24">
    <path d="M3.83337 12.0002H2.66671V21.3335C2.66671 21.9523 2.91254 22.5458 3.35013 22.9834C3.78771 23.421 4.3812 23.6668 5.00004 23.6668H10.8334V12.0002H3.83337ZM19 12.0002H13.1667V23.6668H19C19.6189 23.6668 20.2124 23.421 20.65 22.9834C21.0875 22.5458 21.3334 21.9523 21.3334 21.3335V12.0002H19ZM19.9229 6.16683C20.094 5.59958 20.1762 5.00925 20.1667 4.41683C20.1667 2.16516 18.335 0.333496 16.0834 0.333496C14.191 0.333496 12.9275 2.0625 12.112 3.93266C11.3082 2.16516 9.98054 0.333496 7.91671 0.333496C5.66504 0.333496 3.83337 2.16516 3.83337 4.41683C3.83337 5.11216 3.92554 5.68733 4.07721 6.16683H0.333374V10.8335H10.8334V8.50016H13.1667V10.8335H23.6667V6.16683H19.9229ZM6.16671 4.41683C6.16671 3.452 6.95187 2.66683 7.91671 2.66683C8.95271 2.66683 9.91637 4.446 10.481 6.16683H7.33337C6.89704 6.16683 6.16671 6.16683 6.16671 4.41683ZM16.0834 2.66683C17.0482 2.66683 17.8334 3.452 17.8334 4.41683C17.8334 6.16683 17.103 6.16683 16.6667 6.16683H13.7769C14.3719 4.32816 15.2364 2.66683 16.0834 2.66683Z"/>
  </symbol>
  <symbol id="news" viewBox="0 0 24 20">
    <path d="M21.3334 15.8332C21.3334 16.1426 21.2105 16.4393 20.9917 16.6581C20.7729 16.8769 20.4761 16.9998 20.1667 16.9998C19.8573 16.9998 19.5605 16.8769 19.3417 16.6581C19.123 16.4393 19 16.1426 19 15.8332V1.83317C19 1.52375 18.8771 1.22701 18.6583 1.00821C18.4395 0.78942 18.1428 0.666504 17.8334 0.666504H1.50004C1.19062 0.666504 0.893875 0.78942 0.675083 1.00821C0.45629 1.22701 0.333374 1.52375 0.333374 1.83317V16.9998C0.333374 17.6187 0.579207 18.2122 1.01679 18.6498C1.45438 19.0873 2.04787 19.3332 2.66671 19.3332H20.1667C22.0964 19.3332 23.6667 17.7628 23.6667 15.8332V4.1665H21.3334V15.8332ZM12 4.1665H15.5V6.49984H12V4.1665ZM12 8.83317H15.5V11.1665H12V8.83317ZM3.83337 4.1665H9.66671V11.1665H3.83337V4.1665ZM3.83337 15.8332V13.4998H15.5V15.8332H3.83337Z"/>
  </symbol>
  <symbol id="warning" viewBox="0 0 20 18">
    <path d="M19.1711 12.3982L13.2591 2.54423C12.4831 1.25123 11.2961 0.51123 10.0001 0.51123C8.70405 0.51123 7.51705 1.25123 6.74105 2.54223L0.829052 12.3982C0.043052 13.7072 -0.042948 15.1032 0.594052 16.2282C1.23005 17.3542 2.47205 18.0002 4.00005 18.0002H16.0001C17.5281 18.0002 18.7701 17.3542 19.4061 16.2292C20.0431 15.1042 19.9571 13.7082 19.1711 12.3982ZM10.0001 14.5492C9.14605 14.5492 8.45005 13.8542 8.45005 13.0002C8.45005 12.1452 9.14505 11.4492 10.0001 11.4492C10.8551 11.4492 11.5501 12.1452 11.5501 13.0002C11.5501 13.8542 10.8541 14.5492 10.0001 14.5492ZM11.6331 7.12523C11.6221 7.15623 10.2321 10.5932 10.2321 10.5932C10.1941 10.6872 10.1021 10.7492 10.0011 10.7492C9.90005 10.7492 9.80805 10.6872 9.77005 10.5932L8.37905 7.15523C8.28905 6.92223 8.25005 6.71223 8.25005 6.50023C8.25005 5.53523 9.03505 4.75023 10.0001 4.75023C10.9651 4.75023 11.7501 5.53523 11.7501 6.50023C11.7501 6.71223 11.7111 6.92223 11.6331 7.12523Z"/>
  </symbol>
  <symbol id="discount" viewBox="0 0 30 22">
    <path fill-rule="evenodd" clip-rule="evenodd" d="M21.9634 2.80464C21.9295 2.55761 21.8578 2.31145 21.7871 2.06875L21.7871 2.06872C21.7653 1.99397 21.7436 1.91954 21.7232 1.84551C21.6912 1.72993 21.6613 1.61398 21.6314 1.49809L21.6314 1.49799L21.6313 1.49789L21.6313 1.49778L21.6313 1.49765C21.5653 1.2421 21.4994 0.986842 21.4123 0.736521C21.2973 0.406053 21.1335 0.141938 20.7696 0.0408106C20.3696 -0.0703384 19.8872 0.0680692 19.4717 0.18728C19.3913 0.210365 19.3133 0.23273 19.2389 0.252424C18.8063 0.367014 18.3713 0.473343 17.9363 0.579671L17.9363 0.579682C17.4305 0.703319 16.9247 0.826956 16.4226 0.963583C15.6697 1.16844 14.9109 1.3533 14.1521 1.53814L14.1521 1.53815L14.1521 1.53815C13.6225 1.66717 13.093 1.79617 12.5655 1.93196C10.5176 2.45915 8.46668 2.97998 6.41241 3.48283C5.3997 3.73071 4.38757 3.98686 3.3818 4.2606C3.29411 4.28446 3.19822 4.30582 3.09889 4.32795C2.73948 4.40802 2.3349 4.49816 2.10955 4.75332C1.69664 5.2209 1.92373 5.9549 2.11028 6.55783C2.15231 6.69369 2.19228 6.82288 2.22241 6.94088C2.23398 6.9862 2.25421 7.04381 2.27646 7.10717L2.27646 7.10718L2.27647 7.10718C2.3386 7.28412 2.41647 7.50586 2.36543 7.6298C2.30437 7.77812 2.10134 7.88416 1.92 7.97887C1.83595 8.02277 1.75656 8.06423 1.69813 8.10634C1.25953 8.42249 0.868064 8.79425 0.578491 9.24878C0.115182 9.97601 -0.0476476 10.8326 0.0117143 11.6766C0.116552 13.1671 0.730239 14.6647 2.00425 15.5602C2.50444 15.9118 3.07834 16.1206 3.68792 16.1939C3.83842 16.212 3.9939 16.2085 4.14773 16.2051H4.14777C4.20917 16.2038 4.27032 16.2024 4.33078 16.2025C4.34641 16.2025 4.36293 16.202 4.37995 16.2015C4.46349 16.1989 4.55912 16.1961 4.6212 16.2505C4.72347 16.3402 4.76614 16.5634 4.79991 16.74C4.81094 16.7977 4.82101 16.8503 4.8319 16.8918C4.91606 17.2122 5.00315 17.5317 5.09146 17.851L5.09175 17.852C5.21899 18.3121 5.35975 18.821 5.892 18.9621C6.11153 19.0203 6.32848 18.9721 6.54404 18.9242L6.56547 18.9195L6.67061 18.8962C6.91142 18.843 7.15252 18.7897 7.39201 18.7314C7.66617 18.6646 7.94062 18.5985 8.21511 18.5325L8.21518 18.5324L8.21524 18.5324L8.21531 18.5324L8.21537 18.5324L8.21544 18.5324C9.00379 18.3427 9.79246 18.1529 10.5757 17.9454C13.1721 17.2577 15.7835 16.6127 18.3928 15.9682L18.3929 15.9682L18.393 15.9682L18.3935 15.9681C18.9918 15.8203 19.59 15.6725 20.1879 15.5243C21.1385 15.2887 22.0885 15.0492 23.0349 14.7983C23.1396 14.7705 23.2536 14.7452 23.3712 14.719C23.7352 14.6381 24.1351 14.5493 24.412 14.3547C24.9409 13.9829 24.7388 13.2611 24.5836 12.7067L24.5835 12.7065C24.5619 12.6292 24.5412 12.5552 24.5234 12.4858C24.5 12.394 24.4785 12.3019 24.457 12.2097L24.457 12.2097L24.4568 12.2092C24.4434 12.1515 24.4299 12.0938 24.416 12.0362C24.4054 11.9925 24.3878 11.939 24.3687 11.8809C24.3132 11.712 24.2447 11.5035 24.2961 11.377C24.3395 11.2701 24.457 11.1956 24.5566 11.1325C24.5702 11.1239 24.5834 11.1155 24.5961 11.1072L24.6575 11.0673L24.6576 11.0673C24.8678 10.9308 25.0734 10.7974 25.2696 10.6391C25.7466 10.2539 26.1243 9.69112 26.3468 9.12889C26.5968 8.49707 26.6254 7.7886 26.5605 7.12072C26.4194 5.66989 25.7854 4.15554 24.4736 3.35101C23.6863 2.86813 22.8659 2.80464 21.9634 2.80464ZM16.8819 3.60037C16.6094 3.65937 16.5338 3.88427 16.4573 4.11171L16.4431 4.15375C16.2708 4.65993 16.1037 5.17034 15.9505 5.68236C15.7757 6.2669 15.585 6.84734 15.3942 7.42765L15.3942 7.42776C15.2768 7.78485 15.1595 8.14189 15.0459 8.4998C14.9233 8.88614 14.8024 9.27314 14.6814 9.66018C14.4303 10.464 14.179 11.2679 13.9125 12.0666C13.8212 12.34 13.7356 12.6153 13.6499 12.8906L13.6499 12.8907L13.6499 12.8907L13.6499 12.8907L13.6499 12.8907C13.6048 13.0357 13.5597 13.1807 13.5138 13.3254C13.4975 13.3766 13.4764 13.4308 13.4547 13.4864L13.4547 13.4864C13.4024 13.6208 13.3467 13.7637 13.3477 13.8949C13.3493 14.1176 13.6152 14.27 13.8207 14.2485C14.0793 14.2213 14.1536 13.9997 14.2236 13.7907L14.239 13.745C14.3247 13.4942 14.4077 13.2427 14.4906 12.9912C14.5692 12.7527 14.6479 12.5142 14.7288 12.2764C15.4586 10.1328 16.1864 7.97351 16.825 5.80225C16.8852 5.59759 16.9507 5.39445 17.0163 5.19131L17.0163 5.19126L17.0163 5.19122L17.0164 5.19118L17.0164 5.19114L17.0164 5.1911C17.0827 4.98572 17.149 4.78034 17.2097 4.57337C17.225 4.52144 17.2427 4.46845 17.2606 4.41487L17.2607 4.4148C17.3028 4.28905 17.346 4.16006 17.3605 4.03386C17.3879 3.79555 17.1242 3.54788 16.8819 3.60037ZM9.70671 6.07177C9.99835 5.50067 10.6596 5.19069 11.2799 5.09583C11.4451 5.07056 11.6339 5.07041 11.8003 5.08788C13.0428 5.21821 13.5905 6.63274 13.6382 7.6903C13.6569 8.10458 13.6576 8.51035 13.4495 8.88921C13.1742 9.3905 12.6038 9.68828 12.0452 9.77985C11.8423 9.81306 11.6378 9.83293 11.4329 9.80563C11.264 9.78312 11.0999 9.75827 10.9431 9.68909C10.0071 9.27592 9.69174 8.28067 9.59112 7.3606C9.54554 6.94362 9.50914 6.4586 9.70671 6.07177ZM11.3719 5.90987C10.811 5.92513 10.7283 6.37505 10.729 6.82107C10.7298 7.32594 10.8693 7.85525 11.0661 8.31971L11.0662 8.31999C11.1452 8.50643 11.2427 8.73646 11.4081 8.86522C11.5557 8.98004 11.7426 8.98655 11.9229 8.97791C12.3746 8.95624 12.5051 8.57457 12.5045 8.19982C12.5035 7.60621 12.3266 6.92292 12.0358 6.40146C11.9001 6.1582 11.6831 5.90139 11.3719 5.90987ZM17.1381 8.88924C17.4475 8.27944 18.1224 7.97516 18.7797 7.88299C18.9493 7.85923 19.1309 7.86198 19.3001 7.88785C20.5481 8.07872 21.1061 9.45297 21.1062 10.5677C21.1062 10.6118 21.1067 10.656 21.1072 10.7003V10.7004V10.7005C21.1102 10.9496 21.1132 11.1996 21.0232 11.4369C20.8085 12.0032 20.1734 12.4536 19.5756 12.5419C19.1958 12.598 18.7449 12.6165 18.3817 12.4717C17.4774 12.1113 17.1181 11.0154 17.0296 10.1481C16.9892 9.75269 16.9516 9.25682 17.1381 8.88924ZM18.8104 8.69401C18.7248 8.70765 18.6429 8.74032 18.5655 8.77767C17.9329 9.08311 18.1449 9.8855 18.2909 10.4383L18.3093 10.5079C18.3409 10.6289 18.3795 10.7486 18.4184 10.8676C18.4791 11.0532 18.5496 11.2439 18.6605 11.4071C18.8376 11.6674 19.1033 11.8038 19.4226 11.7536C19.8422 11.6876 19.9429 11.3561 19.943 10.9875C19.9433 10.3868 19.7969 9.78688 19.522 9.24905C19.3876 8.98586 19.1633 8.63787 18.8104 8.69401ZM6.54417 10.5438C6.99429 10.4185 7.45014 10.2917 7.91233 10.2212C8.09594 10.1932 8.33346 10.1822 8.4935 10.289C8.77575 10.4775 8.85372 11.0125 8.58249 11.2412C8.41784 11.3801 8.17401 11.4448 7.95735 11.5024C7.92101 11.512 7.88542 11.5215 7.85111 11.531L7.84572 11.5325C7.32029 11.679 6.77408 11.8313 6.22866 11.8814C5.68064 11.9318 5.32015 11.2344 5.74538 10.8492C5.8957 10.713 6.11929 10.6557 6.32224 10.6037C6.36359 10.5931 6.4041 10.5827 6.44294 10.5719C6.47665 10.5625 6.51039 10.5532 6.54417 10.5438Z"/>
    <path d="M27.5655 10.3579C27.29 10.758 27.0262 11.1514 26.6776 11.4969C26.5202 11.6528 26.1845 11.873 26.1376 12.0963C26.1102 12.2268 26.1826 12.3903 26.2146 12.5159C26.2775 12.7622 26.3312 13.0131 26.3628 13.2653C26.4857 14.2451 26.072 15.1601 25.2389 15.7223C24.8067 16.014 24.2374 16.0984 23.7389 16.2368C22.7538 16.5102 21.7598 16.7535 20.7695 17.0084C17.4371 17.8663 14.1024 18.7225 10.7593 19.5408C9.72755 19.7933 8.69935 20.0601 7.6675 20.3127L6.81036 20.5225C6.70591 20.548 6.54262 20.5591 6.46138 20.6342C6.3261 20.7592 6.39495 21.082 6.42235 21.238C6.5463 21.9441 7.43355 21.9973 8 22C9.4464 22.0068 10.5511 22 12 22H22H25C25.4753 22 25.8981 21.9952 26.2741 21.6478C26.5186 21.4219 26.5245 21.0053 26.5246 20.6985C26.5249 20.0707 26.5859 19.4382 26.5859 18.8102C26.897 18.7969 27.2204 18.6816 27.5042 18.562C28.3458 18.2075 29.0602 17.5446 29.471 16.7421C29.8008 16.0979 29.9237 15.4173 29.9544 14.704C30.0292 12.9679 29.3202 11.0732 27.5655 10.3579Z" fill-opacity="0.2"/>
  </symbol>

</svg>