<svg width="32" height="32" viewBox="0 0 32 32" fill="none" xmlns="http://www.w3.org/2000/svg">
<path d="M11.2 6.40002H7.60001C5.16996 6.40002 3.20001 8.36998 3.20001 10.8V14.4H6.82811C6.55584 13.9294 6.40001 13.3829 6.40001 12.8C6.40001 11.0327 7.8327 9.60002 9.60001 9.60002C10.1829 9.60002 10.7293 9.75585 11.2 10.0281V6.40002ZM12.8 12.8V14.4H14.4C15.2837 14.4 16 13.6837 16 12.8C16 11.9164 15.2837 11.2 14.4 11.2C13.5164 11.2 12.8 11.9164 12.8 12.8ZM17.1719 14.4C17.4442 13.9294 17.6 13.3829 17.6 12.8C17.6 11.0327 16.1674 9.60002 14.4 9.60002C13.8171 9.60002 13.2707 9.75585 12.8 10.0281V6.40002H24.4C26.8301 6.40002 28.8 8.36998 28.8 10.8V14.4H17.1719ZM13.9314 16L16.5658 18.6343C16.8781 18.9467 16.8781 19.4533 16.5658 19.7658C16.2533 20.0781 15.7467 20.0781 15.4343 19.7658L12.8 17.1314V25.6H24.4C26.8301 25.6 28.8 23.6301 28.8 21.2V16H13.9314ZM11.2 25.6V17.1314L8.56569 19.7658C8.25328 20.0781 7.74675 20.0781 7.43433 19.7658C7.1219 19.4533 7.1219 18.9467 7.43433 18.6343L10.0686 16H3.20001V21.2C3.20001 23.6301 5.16996 25.6 7.60001 25.6H11.2ZM11.2 12.8C11.2 11.9164 10.4837 11.2 9.60001 11.2C8.71636 11.2 8.00001 11.9164 8.00001 12.8C8.00001 13.6837 8.71636 14.4 9.60001 14.4H11.2V12.8Z" fill="url(#paint0_linear_58_1297)"/>
<defs>
<linearGradient id="paint0_linear_58_1297" x1="23.296" y1="31" x2="-6.77468" y2="10.4399" gradientUnits="userSpaceOnUse">
<stop stop-color="#FABE00"/>
<stop offset="1" stop-color="#F8661F"/>
</linearGradient>
</defs>
</svg>
