<svg width="68" height="68" viewBox="0 0 68 68" fill="none" xmlns="http://www.w3.org/2000/svg">
<rect width="68" height="68" rx="5" fill="url(#paint0_linear_123_113)" fill-opacity="0.1"/>
<path d="M45.3333 21.25H22.6667C19.55 21.25 17 23.8 17 26.9167V41.0833C17 44.2 19.55 46.75 22.6667 46.75H45.3333C48.45 46.75 51 44.2 51 41.0833V26.9167C51 23.8 48.45 21.25 45.3333 21.25ZM47.6 29.4667L36.4083 36.975C35.7 37.4 34.85 37.6833 34 37.6833C33.15 37.6833 32.3 37.4 31.5917 36.975L20.4 29.4667C19.8333 29.0417 19.6917 28.1917 20.1167 27.4833C20.5417 26.9167 21.3917 26.775 22.1 27.2L33.2917 34.7083C33.7167 34.9917 34.425 34.9917 34.85 34.7083L46.0417 27.2C46.75 26.775 47.6 26.9167 48.025 27.625C48.3083 28.1917 48.1667 29.0417 47.6 29.4667Z" fill="#FFA216"/>
<path d="M45.3333 21.25H22.6667C19.55 21.25 17 23.8 17 26.9167V41.0833C17 44.2 19.55 46.75 22.6667 46.75H45.3333C48.45 46.75 51 44.2 51 41.0833V26.9167C51 23.8 48.45 21.25 45.3333 21.25ZM47.6 29.4667L36.4083 36.975C35.7 37.4 34.85 37.6833 34 37.6833C33.15 37.6833 32.3 37.4 31.5917 36.975L20.4 29.4667C19.8333 29.0417 19.6917 28.1917 20.1167 27.4833C20.5417 26.9167 21.3917 26.775 22.1 27.2L33.2917 34.7083C33.7167 34.9917 34.425 34.9917 34.85 34.7083L46.0417 27.2C46.75 26.775 47.6 26.9167 48.025 27.625C48.3083 28.1917 48.1667 29.0417 47.6 29.4667Z" fill="url(#paint1_linear_123_113)"/>
<defs>
<linearGradient id="paint0_linear_123_113" x1="53.38" y1="87.125" x2="-39.4303" y2="39.5324" gradientUnits="userSpaceOnUse">
<stop stop-color="#FABE00"/>
<stop offset="1" stop-color="#F8661F"/>
</linearGradient>
<linearGradient id="paint1_linear_123_113" x1="43.69" y1="53.9219" x2="3.75237" y2="26.6154" gradientUnits="userSpaceOnUse">
<stop stop-color="#FABE00"/>
<stop offset="1" stop-color="#F8661F"/>
</linearGradient>
</defs>
</svg>
