<svg width="68" height="68" viewBox="0 0 68 68" fill="none" xmlns="http://www.w3.org/2000/svg">
<rect width="68" height="68" rx="5" fill="url(#paint0_radial_123_114)"/>
<path d="M47.7414 13.9938C49.1336 14.5353 50.3109 15.2571 51.4883 16.4345C52.6656 17.6032 53.3875 18.7892 53.9289 20.1728C54.4531 21.5134 54.8055 23.0517 54.9086 25.3032C55.0117 27.5548 55.0375 28.2767 55.0375 34.0173C55.0375 39.7579 55.0117 40.4798 54.9086 42.7313C54.8055 44.9829 54.4445 46.5212 53.9289 47.8618C53.3875 49.254 52.6656 50.4313 51.4883 51.6087C50.3109 52.786 49.1336 53.5079 47.7414 54.0493C46.4008 54.5735 44.8625 54.9259 42.6109 55.029C40.3594 55.1321 39.6375 55.1579 33.8969 55.1579C28.1563 55.1579 27.4344 55.1321 25.1828 55.029C22.9313 54.9259 21.393 54.5649 20.0524 54.0493C18.6602 53.5079 17.4828 52.786 16.3055 51.6087C15.1281 50.4313 14.4063 49.254 13.8649 47.8618C13.3406 46.5212 12.9883 44.9829 12.8852 42.7313C12.782 40.4798 12.7563 39.7579 12.7563 34.0173C12.7563 28.2767 12.782 27.5548 12.8852 25.3032C12.9883 23.0517 13.3492 21.5134 13.8649 20.1728C14.4063 18.7892 15.1281 17.6032 16.2969 16.4345C17.4742 15.2571 18.6516 14.5353 20.0438 13.9938C21.3844 13.4696 22.9227 13.1173 25.1742 13.0142C27.4258 12.911 28.1477 12.8853 33.8883 12.8853C39.6289 12.8853 40.3508 12.911 42.6024 13.0142C44.8625 13.1087 46.4008 13.4696 47.7414 13.9938ZM25.3547 16.8126C23.2922 16.9071 22.175 17.2509 21.4274 17.5431C20.4391 17.9298 19.7344 18.3853 18.9953 19.1243C18.2563 19.8634 17.8008 20.5681 17.4141 21.5563C17.1219 22.304 16.7781 23.4212 16.6836 25.4837C16.5805 27.7095 16.5633 28.3798 16.5633 34.0259C16.5633 39.672 16.5891 40.3423 16.6836 42.5681C16.7781 44.6306 17.1219 45.7478 17.4141 46.4954C17.8008 47.4837 18.2563 48.1884 18.9953 48.9274C19.7344 49.6665 20.4391 50.122 21.4274 50.5087C22.175 50.8009 23.2922 51.1446 25.3547 51.2392C27.5805 51.3423 28.2508 51.3595 33.8969 51.3595C39.543 51.3595 40.2133 51.3337 42.4391 51.2392C44.5016 51.1446 45.6188 50.8009 46.3664 50.5087C47.3547 50.122 48.0594 49.6665 48.7984 48.9274C49.5375 48.1884 49.993 47.4837 50.3797 46.4954C50.6719 45.7478 51.0156 44.6306 51.1102 42.5681C51.2133 40.3423 51.2305 39.672 51.2305 34.0259C51.2305 28.3798 51.2047 27.7095 51.1102 25.4837C51.0156 23.4212 50.6719 22.304 50.3797 21.5563C49.993 20.5681 49.5375 19.8634 48.7984 19.1243C48.0594 18.3853 47.3547 17.9298 46.3664 17.5431C45.6188 17.2509 44.5016 16.9071 42.4391 16.8126C40.2133 16.7095 39.543 16.6923 33.8969 16.6923C28.2508 16.6923 27.5805 16.7095 25.3547 16.8126Z" fill="white"/>
<path d="M44.7508 34.0258C44.7508 40.0242 39.8867 44.8797 33.8969 44.8797C27.907 44.8797 23.043 40.0156 23.043 34.0258C23.043 28.0359 27.8984 23.1719 33.8969 23.1719C39.8953 23.1719 44.7508 28.0273 44.7508 34.0258ZM26.85 34.0258C26.85 37.9187 30.0039 41.0727 33.8969 41.0727C37.7899 41.0727 40.9438 37.9187 40.9438 34.0258C40.9438 30.1328 37.7899 26.9789 33.8969 26.9789C30.0039 26.9789 26.85 30.1328 26.85 34.0258Z" fill="white"/>
<path d="M22.6047 25.2773C21.2046 25.2773 20.0695 24.1423 20.0695 22.7422C20.0695 21.3421 21.2046 20.207 22.6047 20.207C24.0048 20.207 25.1398 21.3421 25.1398 22.7422C25.1398 24.1423 24.0048 25.2773 22.6047 25.2773Z" fill="white"/>
<defs>
<radialGradient id="paint0_radial_123_114" cx="0" cy="0" r="1" gradientUnits="userSpaceOnUse" gradientTransform="translate(72 71.5) rotate(-138.389) scale(107.668 91.5171)">
<stop stop-color="#FED576"/>
<stop offset="0.2634" stop-color="#F47133"/>
<stop offset="0.6091" stop-color="#BC3081"/>
<stop offset="1" stop-color="#4C63D2"/>
</radialGradient>
</defs>
</svg>
