<svg width="207" height="126" viewBox="0 0 207 126" fill="none" xmlns="http://www.w3.org/2000/svg">
<g filter="url(#filter0_d_1_1961)">
<mask id="path-1-inside-1_1_1961" fill="white">
<path d="M165.387 65.0056C165.296 64.9082 165.126 64.7677 165.012 64.6923C164.748 64.5266 159.213 62.093 158.963 62.0431C158.858 62.0152 158.517 62.115 158.118 62.2835C157.463 62.5465 157.089 62.6037 156.728 62.4851C156.574 62.4328 156.51 62.3372 156.252 61.7526L155.951 61.078L152.579 59.658C150.719 58.8764 149.16 58.2478 149.108 58.2509C149.054 58.2646 148.82 58.4264 148.577 58.6197L148.134 58.9727L147.605 58.8094C147.217 58.6891 147.057 58.596 147.026 58.4812C146.993 58.394 146.903 58.1456 146.808 57.9353L146.634 57.5411L142.94 56.501C140.904 55.936 139.235 55.4239 139.232 55.3727C139.218 55.3186 139.1 55.2984 138.954 55.321C138.723 55.366 138.687 55.3957 138.618 55.6298C138.575 55.7696 138.458 55.9517 138.357 56.0368C138.203 56.1697 138.121 56.1645 137.749 56.0431L137.318 55.8945L137.183 55.4774L137.042 55.064L136.573 54.9109C136.316 54.8202 134.731 54.3305 133.049 53.8261L129.987 52.8983L129.216 53.3434L128.435 53.7857L128.013 53.6228C127.605 53.4694 127.573 53.4439 127.349 53.0253C127.144 52.6399 127.086 52.5851 126.917 52.568C126.806 52.5611 125.52 52.3584 124.063 52.1216C122.599 51.8886 121.045 51.6371 120.597 51.5684L119.789 51.4429L119.111 51.8343C118.447 52.218 118.416 52.2267 118.151 52.1503C117.766 52.0366 117.427 51.8172 117.461 51.6916C117.478 51.6288 117.391 51.5552 117.246 51.4886C117.112 51.4248 116.911 51.2929 116.792 51.1939C116.637 51.0627 115.889 50.858 113.94 50.4283C110.984 49.7753 111.189 49.8691 110.164 48.7379C109.564 48.0679 109.426 47.8293 109.101 46.8508L108.838 46.0573L109.159 44.5727L109.491 43.0909L109.111 42.4794L108.736 41.8746L107.9 41.809C107.444 41.7717 107.025 41.7665 106.968 41.7906C106.915 41.8213 106.807 42.0954 106.732 42.3951C106.612 42.8621 106.613 43.0645 106.742 43.7324C106.916 44.6481 106.871 44.8155 106.312 45.2442L105.921 45.5495L105.637 46.6064L105.349 47.6738L103.286 47.1241L101.233 46.5772L100.762 46.8667L100.292 47.1562L100.134 46.8228L99.9708 46.4931L99.7069 46.6808L99.4326 46.8657L99.1801 46.4283L98.9275 45.9908L98.6285 46.1635L98.3294 46.3362L98.1534 46.0313L97.9774 45.7265L97.5721 46.0223L97.1669 46.3181L96.8953 45.8475L96.6236 45.377L96.3577 45.5304L96.0919 45.6839L95.9388 45.4188L95.7858 45.1537L95.3338 45.4147L94.8886 45.6717L94.7363 45.362L94.5907 45.0484L94.285 45.2249L93.9793 45.4014L93.8071 45.1032L93.6349 44.805L93.3358 44.9776L93.0367 45.1503L92.8646 44.8521L92.6924 44.5538L92.3002 44.7802L91.9081 45.0066L91.6368 44.6595L91.3551 44.3097L91.0083 44.4304L90.6587 44.5615L90.4865 44.2633L90.3105 43.9584L90.1075 44.1287L89.9006 44.2923L89.6092 43.895C89.3359 43.5137 89.3112 43.5015 89.145 43.5974C89.0453 43.655 88.8411 43.7464 88.69 43.8071C88.4782 43.8852 88.4021 43.8761 88.337 43.7635C88.1342 43.4122 88.018 43.3644 87.7322 43.5294L87.4664 43.6829L87.2767 43.2622L87.0803 42.8454L86.748 43.0373L86.4157 43.2291L86.2701 42.9155L86.1178 42.6058L85.7058 42.8437C85.3137 43.0701 85.2794 43.0722 85.2029 42.9396C84.9924 42.5751 84.8762 42.5273 84.6038 42.6846L84.3446 42.8343L84.1724 42.5361L84.004 42.2444L83.5472 42.4816L83.0838 42.7227L82.8726 42.4028C82.647 42.0735 82.5375 42.0219 82.3048 42.1562C82.1919 42.2215 82.1175 42.1848 81.9447 41.993L81.7204 41.7425L81.3071 41.9016L80.8872 42.0645L80.715 41.7663L80.5428 41.468L80.2335 41.6997L79.9241 41.9313L79.664 41.4806L79.4038 41.0299L79.1284 41.1977L78.8465 41.3693L78.662 41.0959L78.4814 40.829L78.0826 41.0593L77.6905 41.2856L77.5183 40.9874L77.3461 40.6892L77.0138 40.881L76.6815 41.0729L76.4384 40.6212L76.1982 40.159L75.8546 40.3927C75.4673 40.6428 75.3636 40.632 75.1684 40.294C75.046 40.0819 75.0355 40.0791 74.7431 40.248L74.444 40.4206L74.2756 40.129L74.1073 39.8374L73.8312 40.0498L73.5512 40.2557L73.2834 39.7917L73.0117 39.3212L72.7827 39.4004C72.6582 39.4457 72.4341 39.5486 72.2879 39.633C72.0287 39.7827 72.0287 39.7827 71.9385 39.5343L71.8587 39.2888L71.4996 39.4342L71.151 39.5825L71.0253 39.2574L70.8997 38.9323L69.9773 38.7314C69.469 38.6184 67.0903 38.136 64.6945 37.6547C62.2987 37.1733 60.2437 36.7604 60.1257 36.7401C60.0038 36.7133 59.712 36.7757 59.4498 36.8741C56.6453 37.9719 53.243 38.3103 48.4981 37.9658C47.6494 37.9079 45.9263 37.7628 44.6722 37.6474C43.4114 37.5358 41.8919 37.4057 41.2954 37.3701L40.2089 37.2993L40.58 37.9422C42.9973 42.1137 46.9025 45.4703 53.4393 48.9954L54.6428 49.6525L60.0084 51.0261C62.9568 51.7892 68.2777 53.1621 71.8258 54.0738C75.3778 54.9922 81.2118 56.5018 84.7914 57.4219C96.4479 60.4212 95.393 60.1289 95.4804 60.3877C95.5255 60.5119 95.5537 60.6989 95.5426 60.8025C95.5382 60.9022 95.5442 61.0048 95.5595 61.0313C95.5748 61.0578 96.5671 61.3951 97.7612 61.775C98.9514 62.1482 99.9437 62.4855 99.959 62.512C99.9743 62.5385 100.267 62.6613 100.604 62.7847L101.211 63.0083L100.788 64.6227C100.322 66.394 100.271 66.7676 100.362 67.8461C100.438 68.7747 100.727 69.5975 101.175 70.1431C101.905 71.0556 102.227 71.2143 102.732 70.9227C103.297 70.5965 103.392 70.33 103.39 69.0847C103.39 66.7518 103.608 65.6098 104.221 64.6906C104.618 64.0899 104.998 63.8266 105.983 63.461C107.063 63.0588 107.518 63.1408 110.695 64.3462L113.285 65.3337L113.54 65.1157C113.995 64.7208 114.09 64.7013 114.595 64.8694L115.078 65.0319L115.168 65.6165C115.24 66.0787 115.289 66.2095 115.409 66.2639C115.491 66.3138 117.049 66.9253 118.874 67.6302L122.203 68.9155L122.793 68.6633C123.635 68.31 123.701 68.3333 124.294 69.2371L124.761 69.9393L128.167 71.0038C130.037 71.586 131.632 72.0785 131.706 72.098C131.81 72.1259 132.032 72.0335 132.47 71.7802L133.089 71.4234L133.385 71.5528C133.652 71.6633 133.736 71.7474 134.064 72.2832L134.439 72.888L137.825 73.3809L141.211 73.8737L141.67 73.6707C142.483 73.2985 142.544 73.281 142.889 73.4177C143.076 73.4955 143.393 73.6923 143.592 73.8688L143.961 74.1858L146.393 74.4076C147.734 74.5349 149.434 74.6849 150.162 74.7501L151.506 74.8669L151.921 74.5122L152.341 74.164L152.819 74.2858C153.279 74.4086 153.294 74.418 153.51 74.8233C153.64 75.0486 153.763 75.2161 153.797 75.1969C153.91 75.1316 155.839 75.6346 156.156 75.8142C156.87 76.2234 157.928 77.6717 157.946 78.2709C157.953 78.7269 157.727 79.3959 157.411 79.8612C157.192 80.1731 157.121 80.3559 157.14 80.5742C157.192 81.216 157.747 81.779 158.426 81.8645C158.734 81.9074 158.832 81.8774 159.244 81.6395C159.839 81.2875 159.898 81.1912 161.118 78.746C164.14 72.6981 166.154 67.6381 166.027 66.421C165.978 65.9815 165.669 65.2937 165.387 65.0056Z"/>
</mask>
<path d="M165.387 65.0056C165.296 64.9082 165.126 64.7677 165.012 64.6923C164.748 64.5266 159.213 62.093 158.963 62.0431C158.858 62.0152 158.517 62.115 158.118 62.2835C157.463 62.5465 157.089 62.6037 156.728 62.4851C156.574 62.4328 156.51 62.3372 156.252 61.7526L155.951 61.078L152.579 59.658C150.719 58.8764 149.16 58.2478 149.108 58.2509C149.054 58.2646 148.82 58.4264 148.577 58.6197L148.134 58.9727L147.605 58.8094C147.217 58.6891 147.057 58.596 147.026 58.4812C146.993 58.394 146.903 58.1456 146.808 57.9353L146.634 57.5411L142.94 56.501C140.904 55.936 139.235 55.4239 139.232 55.3727C139.218 55.3186 139.1 55.2984 138.954 55.321C138.723 55.366 138.687 55.3957 138.618 55.6298C138.575 55.7696 138.458 55.9517 138.357 56.0368C138.203 56.1697 138.121 56.1645 137.749 56.0431L137.318 55.8945L137.183 55.4774L137.042 55.064L136.573 54.9109C136.316 54.8202 134.731 54.3305 133.049 53.8261L129.987 52.8983L129.216 53.3434L128.435 53.7857L128.013 53.6228C127.605 53.4694 127.573 53.4439 127.349 53.0253C127.144 52.6399 127.086 52.5851 126.917 52.568C126.806 52.5611 125.52 52.3584 124.063 52.1216C122.599 51.8886 121.045 51.6371 120.597 51.5684L119.789 51.4429L119.111 51.8343C118.447 52.218 118.416 52.2267 118.151 52.1503C117.766 52.0366 117.427 51.8172 117.461 51.6916C117.478 51.6288 117.391 51.5552 117.246 51.4886C117.112 51.4248 116.911 51.2929 116.792 51.1939C116.637 51.0627 115.889 50.858 113.94 50.4283C110.984 49.7753 111.189 49.8691 110.164 48.7379C109.564 48.0679 109.426 47.8293 109.101 46.8508L108.838 46.0573L109.159 44.5727L109.491 43.0909L109.111 42.4794L108.736 41.8746L107.9 41.809C107.444 41.7717 107.025 41.7665 106.968 41.7906C106.915 41.8213 106.807 42.0954 106.732 42.3951C106.612 42.8621 106.613 43.0645 106.742 43.7324C106.916 44.6481 106.871 44.8155 106.312 45.2442L105.921 45.5495L105.637 46.6064L105.349 47.6738L103.286 47.1241L101.233 46.5772L100.762 46.8667L100.292 47.1562L100.134 46.8228L99.9708 46.4931L99.7069 46.6808L99.4326 46.8657L99.1801 46.4283L98.9275 45.9908L98.6285 46.1635L98.3294 46.3362L98.1534 46.0313L97.9774 45.7265L97.5721 46.0223L97.1669 46.3181L96.8953 45.8475L96.6236 45.377L96.3577 45.5304L96.0919 45.6839L95.9388 45.4188L95.7858 45.1537L95.3338 45.4147L94.8886 45.6717L94.7363 45.362L94.5907 45.0484L94.285 45.2249L93.9793 45.4014L93.8071 45.1032L93.6349 44.805L93.3358 44.9776L93.0367 45.1503L92.8646 44.8521L92.6924 44.5538L92.3002 44.7802L91.9081 45.0066L91.6368 44.6595L91.3551 44.3097L91.0083 44.4304L90.6587 44.5615L90.4865 44.2633L90.3105 43.9584L90.1075 44.1287L89.9006 44.2923L89.6092 43.895C89.3359 43.5137 89.3112 43.5015 89.145 43.5974C89.0453 43.655 88.8411 43.7464 88.69 43.8071C88.4782 43.8852 88.4021 43.8761 88.337 43.7635C88.1342 43.4122 88.018 43.3644 87.7322 43.5294L87.4664 43.6829L87.2767 43.2622L87.0803 42.8454L86.748 43.0373L86.4157 43.2291L86.2701 42.9155L86.1178 42.6058L85.7058 42.8437C85.3137 43.0701 85.2794 43.0722 85.2029 42.9396C84.9924 42.5751 84.8762 42.5273 84.6038 42.6846L84.3446 42.8343L84.1724 42.5361L84.004 42.2444L83.5472 42.4816L83.0838 42.7227L82.8726 42.4028C82.647 42.0735 82.5375 42.0219 82.3048 42.1562C82.1919 42.2215 82.1175 42.1848 81.9447 41.993L81.7204 41.7425L81.3071 41.9016L80.8872 42.0645L80.715 41.7663L80.5428 41.468L80.2335 41.6997L79.9241 41.9313L79.664 41.4806L79.4038 41.0299L79.1284 41.1977L78.8465 41.3693L78.662 41.0959L78.4814 40.829L78.0826 41.0593L77.6905 41.2856L77.5183 40.9874L77.3461 40.6892L77.0138 40.881L76.6815 41.0729L76.4384 40.6212L76.1982 40.159L75.8546 40.3927C75.4673 40.6428 75.3636 40.632 75.1684 40.294C75.046 40.0819 75.0355 40.0791 74.7431 40.248L74.444 40.4206L74.2756 40.129L74.1073 39.8374L73.8312 40.0498L73.5512 40.2557L73.2834 39.7917L73.0117 39.3212L72.7827 39.4004C72.6582 39.4457 72.4341 39.5486 72.2879 39.633C72.0287 39.7827 72.0287 39.7827 71.9385 39.5343L71.8587 39.2888L71.4996 39.4342L71.151 39.5825L71.0253 39.2574L70.8997 38.9323L69.9773 38.7314C69.469 38.6184 67.0903 38.136 64.6945 37.6547C62.2987 37.1733 60.2437 36.7604 60.1257 36.7401C60.0038 36.7133 59.712 36.7757 59.4498 36.8741C56.6453 37.9719 53.243 38.3103 48.4981 37.9658C47.6494 37.9079 45.9263 37.7628 44.6722 37.6474C43.4114 37.5358 41.8919 37.4057 41.2954 37.3701L40.2089 37.2993L40.58 37.9422C42.9973 42.1137 46.9025 45.4703 53.4393 48.9954L54.6428 49.6525L60.0084 51.0261C62.9568 51.7892 68.2777 53.1621 71.8258 54.0738C75.3778 54.9922 81.2118 56.5018 84.7914 57.4219C96.4479 60.4212 95.393 60.1289 95.4804 60.3877C95.5255 60.5119 95.5537 60.6989 95.5426 60.8025C95.5382 60.9022 95.5442 61.0048 95.5595 61.0313C95.5748 61.0578 96.5671 61.3951 97.7612 61.775C98.9514 62.1482 99.9437 62.4855 99.959 62.512C99.9743 62.5385 100.267 62.6613 100.604 62.7847L101.211 63.0083L100.788 64.6227C100.322 66.394 100.271 66.7676 100.362 67.8461C100.438 68.7747 100.727 69.5975 101.175 70.1431C101.905 71.0556 102.227 71.2143 102.732 70.9227C103.297 70.5965 103.392 70.33 103.39 69.0847C103.39 66.7518 103.608 65.6098 104.221 64.6906C104.618 64.0899 104.998 63.8266 105.983 63.461C107.063 63.0588 107.518 63.1408 110.695 64.3462L113.285 65.3337L113.54 65.1157C113.995 64.7208 114.09 64.7013 114.595 64.8694L115.078 65.0319L115.168 65.6165C115.24 66.0787 115.289 66.2095 115.409 66.2639C115.491 66.3138 117.049 66.9253 118.874 67.6302L122.203 68.9155L122.793 68.6633C123.635 68.31 123.701 68.3333 124.294 69.2371L124.761 69.9393L128.167 71.0038C130.037 71.586 131.632 72.0785 131.706 72.098C131.81 72.1259 132.032 72.0335 132.47 71.7802L133.089 71.4234L133.385 71.5528C133.652 71.6633 133.736 71.7474 134.064 72.2832L134.439 72.888L137.825 73.3809L141.211 73.8737L141.67 73.6707C142.483 73.2985 142.544 73.281 142.889 73.4177C143.076 73.4955 143.393 73.6923 143.592 73.8688L143.961 74.1858L146.393 74.4076C147.734 74.5349 149.434 74.6849 150.162 74.7501L151.506 74.8669L151.921 74.5122L152.341 74.164L152.819 74.2858C153.279 74.4086 153.294 74.418 153.51 74.8233C153.64 75.0486 153.763 75.2161 153.797 75.1969C153.91 75.1316 155.839 75.6346 156.156 75.8142C156.87 76.2234 157.928 77.6717 157.946 78.2709C157.953 78.7269 157.727 79.3959 157.411 79.8612C157.192 80.1731 157.121 80.3559 157.14 80.5742C157.192 81.216 157.747 81.779 158.426 81.8645C158.734 81.9074 158.832 81.8774 159.244 81.6395C159.839 81.2875 159.898 81.1912 161.118 78.746C164.14 72.6981 166.154 67.6381 166.027 66.421C165.978 65.9815 165.669 65.2937 165.387 65.0056Z" fill="url(#paint0_linear_1_1961)" fill-opacity="0.25"/>
<path d="M165.387 65.0056C165.296 64.9082 165.126 64.7677 165.012 64.6923C164.748 64.5266 159.213 62.093 158.963 62.0431C158.858 62.0152 158.517 62.115 158.118 62.2835C157.463 62.5465 157.089 62.6037 156.728 62.4851C156.574 62.4328 156.51 62.3372 156.252 61.7526L155.951 61.078L152.579 59.658C150.719 58.8764 149.16 58.2478 149.108 58.2509C149.054 58.2646 148.82 58.4264 148.577 58.6197L148.134 58.9727L147.605 58.8094C147.217 58.6891 147.057 58.596 147.026 58.4812C146.993 58.394 146.903 58.1456 146.808 57.9353L146.634 57.5411L142.94 56.501C140.904 55.936 139.235 55.4239 139.232 55.3727C139.218 55.3186 139.1 55.2984 138.954 55.321C138.723 55.366 138.687 55.3957 138.618 55.6298C138.575 55.7696 138.458 55.9517 138.357 56.0368C138.203 56.1697 138.121 56.1645 137.749 56.0431L137.318 55.8945L137.183 55.4774L137.042 55.064L136.573 54.9109C136.316 54.8202 134.731 54.3305 133.049 53.8261L129.987 52.8983L129.216 53.3434L128.435 53.7857L128.013 53.6228C127.605 53.4694 127.573 53.4439 127.349 53.0253C127.144 52.6399 127.086 52.5851 126.917 52.568C126.806 52.5611 125.52 52.3584 124.063 52.1216C122.599 51.8886 121.045 51.6371 120.597 51.5684L119.789 51.4429L119.111 51.8343C118.447 52.218 118.416 52.2267 118.151 52.1503C117.766 52.0366 117.427 51.8172 117.461 51.6916C117.478 51.6288 117.391 51.5552 117.246 51.4886C117.112 51.4248 116.911 51.2929 116.792 51.1939C116.637 51.0627 115.889 50.858 113.94 50.4283C110.984 49.7753 111.189 49.8691 110.164 48.7379C109.564 48.0679 109.426 47.8293 109.101 46.8508L108.838 46.0573L109.159 44.5727L109.491 43.0909L109.111 42.4794L108.736 41.8746L107.9 41.809C107.444 41.7717 107.025 41.7665 106.968 41.7906C106.915 41.8213 106.807 42.0954 106.732 42.3951C106.612 42.8621 106.613 43.0645 106.742 43.7324C106.916 44.6481 106.871 44.8155 106.312 45.2442L105.921 45.5495L105.637 46.6064L105.349 47.6738L103.286 47.1241L101.233 46.5772L100.762 46.8667L100.292 47.1562L100.134 46.8228L99.9708 46.4931L99.7069 46.6808L99.4326 46.8657L99.1801 46.4283L98.9275 45.9908L98.6285 46.1635L98.3294 46.3362L98.1534 46.0313L97.9774 45.7265L97.5721 46.0223L97.1669 46.3181L96.8953 45.8475L96.6236 45.377L96.3577 45.5304L96.0919 45.6839L95.9388 45.4188L95.7858 45.1537L95.3338 45.4147L94.8886 45.6717L94.7363 45.362L94.5907 45.0484L94.285 45.2249L93.9793 45.4014L93.8071 45.1032L93.6349 44.805L93.3358 44.9776L93.0367 45.1503L92.8646 44.8521L92.6924 44.5538L92.3002 44.7802L91.9081 45.0066L91.6368 44.6595L91.3551 44.3097L91.0083 44.4304L90.6587 44.5615L90.4865 44.2633L90.3105 43.9584L90.1075 44.1287L89.9006 44.2923L89.6092 43.895C89.3359 43.5137 89.3112 43.5015 89.145 43.5974C89.0453 43.655 88.8411 43.7464 88.69 43.8071C88.4782 43.8852 88.4021 43.8761 88.337 43.7635C88.1342 43.4122 88.018 43.3644 87.7322 43.5294L87.4664 43.6829L87.2767 43.2622L87.0803 42.8454L86.748 43.0373L86.4157 43.2291L86.2701 42.9155L86.1178 42.6058L85.7058 42.8437C85.3137 43.0701 85.2794 43.0722 85.2029 42.9396C84.9924 42.5751 84.8762 42.5273 84.6038 42.6846L84.3446 42.8343L84.1724 42.5361L84.004 42.2444L83.5472 42.4816L83.0838 42.7227L82.8726 42.4028C82.647 42.0735 82.5375 42.0219 82.3048 42.1562C82.1919 42.2215 82.1175 42.1848 81.9447 41.993L81.7204 41.7425L81.3071 41.9016L80.8872 42.0645L80.715 41.7663L80.5428 41.468L80.2335 41.6997L79.9241 41.9313L79.664 41.4806L79.4038 41.0299L79.1284 41.1977L78.8465 41.3693L78.662 41.0959L78.4814 40.829L78.0826 41.0593L77.6905 41.2856L77.5183 40.9874L77.3461 40.6892L77.0138 40.881L76.6815 41.0729L76.4384 40.6212L76.1982 40.159L75.8546 40.3927C75.4673 40.6428 75.3636 40.632 75.1684 40.294C75.046 40.0819 75.0355 40.0791 74.7431 40.248L74.444 40.4206L74.2756 40.129L74.1073 39.8374L73.8312 40.0498L73.5512 40.2557L73.2834 39.7917L73.0117 39.3212L72.7827 39.4004C72.6582 39.4457 72.4341 39.5486 72.2879 39.633C72.0287 39.7827 72.0287 39.7827 71.9385 39.5343L71.8587 39.2888L71.4996 39.4342L71.151 39.5825L71.0253 39.2574L70.8997 38.9323L69.9773 38.7314C69.469 38.6184 67.0903 38.136 64.6945 37.6547C62.2987 37.1733 60.2437 36.7604 60.1257 36.7401C60.0038 36.7133 59.712 36.7757 59.4498 36.8741C56.6453 37.9719 53.243 38.3103 48.4981 37.9658C47.6494 37.9079 45.9263 37.7628 44.6722 37.6474C43.4114 37.5358 41.8919 37.4057 41.2954 37.3701L40.2089 37.2993L40.58 37.9422C42.9973 42.1137 46.9025 45.4703 53.4393 48.9954L54.6428 49.6525L60.0084 51.0261C62.9568 51.7892 68.2777 53.1621 71.8258 54.0738C75.3778 54.9922 81.2118 56.5018 84.7914 57.4219C96.4479 60.4212 95.393 60.1289 95.4804 60.3877C95.5255 60.5119 95.5537 60.6989 95.5426 60.8025C95.5382 60.9022 95.5442 61.0048 95.5595 61.0313C95.5748 61.0578 96.5671 61.3951 97.7612 61.775C98.9514 62.1482 99.9437 62.4855 99.959 62.512C99.9743 62.5385 100.267 62.6613 100.604 62.7847L101.211 63.0083L100.788 64.6227C100.322 66.394 100.271 66.7676 100.362 67.8461C100.438 68.7747 100.727 69.5975 101.175 70.1431C101.905 71.0556 102.227 71.2143 102.732 70.9227C103.297 70.5965 103.392 70.33 103.39 69.0847C103.39 66.7518 103.608 65.6098 104.221 64.6906C104.618 64.0899 104.998 63.8266 105.983 63.461C107.063 63.0588 107.518 63.1408 110.695 64.3462L113.285 65.3337L113.54 65.1157C113.995 64.7208 114.09 64.7013 114.595 64.8694L115.078 65.0319L115.168 65.6165C115.24 66.0787 115.289 66.2095 115.409 66.2639C115.491 66.3138 117.049 66.9253 118.874 67.6302L122.203 68.9155L122.793 68.6633C123.635 68.31 123.701 68.3333 124.294 69.2371L124.761 69.9393L128.167 71.0038C130.037 71.586 131.632 72.0785 131.706 72.098C131.81 72.1259 132.032 72.0335 132.47 71.7802L133.089 71.4234L133.385 71.5528C133.652 71.6633 133.736 71.7474 134.064 72.2832L134.439 72.888L137.825 73.3809L141.211 73.8737L141.67 73.6707C142.483 73.2985 142.544 73.281 142.889 73.4177C143.076 73.4955 143.393 73.6923 143.592 73.8688L143.961 74.1858L146.393 74.4076C147.734 74.5349 149.434 74.6849 150.162 74.7501L151.506 74.8669L151.921 74.5122L152.341 74.164L152.819 74.2858C153.279 74.4086 153.294 74.418 153.51 74.8233C153.64 75.0486 153.763 75.2161 153.797 75.1969C153.91 75.1316 155.839 75.6346 156.156 75.8142C156.87 76.2234 157.928 77.6717 157.946 78.2709C157.953 78.7269 157.727 79.3959 157.411 79.8612C157.192 80.1731 157.121 80.3559 157.14 80.5742C157.192 81.216 157.747 81.779 158.426 81.8645C158.734 81.9074 158.832 81.8774 159.244 81.6395C159.839 81.2875 159.898 81.1912 161.118 78.746C164.14 72.6981 166.154 67.6381 166.027 66.421C165.978 65.9815 165.669 65.2937 165.387 65.0056Z" stroke="#FFA216" stroke-width="4" mask="url(#path-1-inside-1_1_1961)"/>
</g>
<defs>
<filter id="filter0_d_1_1961" x="0.208862" y="0.733887" width="205.824" height="125.147" filterUnits="userSpaceOnUse" color-interpolation-filters="sRGB">
<feFlood flood-opacity="0" result="BackgroundImageFix"/>
<feColorMatrix in="SourceAlpha" type="matrix" values="0 0 0 0 0 0 0 0 0 0 0 0 0 0 0 0 0 0 127 0" result="hardAlpha"/>
<feOffset dy="4"/>
<feGaussianBlur stdDeviation="20"/>
<feComposite in2="hardAlpha" operator="out"/>
<feColorMatrix type="matrix" values="0 0 0 0 1 0 0 0 0 0.635294 0 0 0 0 0.0862745 0 0 0 0.24 0"/>
<feBlend mode="normal" in2="BackgroundImageFix" result="effect1_dropShadow_1_1961"/>
<feBlend mode="normal" in="SourceGraphic" in2="effect1_dropShadow_1_1961" result="shape"/>
</filter>
<linearGradient id="paint0_linear_1_1961" x1="129.056" y1="-1.73788" x2="163.898" y2="118.902" gradientUnits="userSpaceOnUse">
<stop stop-color="#FFA216"/>
<stop offset="1" stop-color="#FFA216" stop-opacity="0"/>
</linearGradient>
</defs>
</svg>
