<svg width="100%" height="100%"
  xmlns="http://www.w3.org/2000/svg">
  <symbol id="btnBack" viewBox="0 0 16 16">
    <path d="M15 8H1" stroke-width="1.3" stroke-linecap="round" stroke-linejoin="round"/>
    <path d="M8 15L1 8L8 1" stroke-width="1.3" stroke-linecap="round" stroke-linejoin="round"/>
  </symbol>
  <symbol id="btnQuit" viewBox="0 0 16 20">
    <path d="M11 1H3C1.89543 1 1 1.89543 1 3V17C1 18.1046 1.89543 19 3 19H11" stroke-width="1.3" stroke-linecap="round" stroke-linejoin="round"/>
    <path d="M15 10L11 6M15 10L11 14M15 10H5" stroke-width="1.3" stroke-linecap="round" stroke-linejoin="round"/>
  </symbol>
  <symbol id="profileCrown" viewBox="0 0 13 9">
    <path d="M12.6752 2.07457C12.5476 1.97779 12.3925 1.91556 12.2278 1.89495C12.0631 1.87435 11.8953 1.89621 11.7437 1.95804L8.92115 3.09793L7.2812 0.412868C7.20281 0.28751 7.08925 0.183259 6.95207 0.110734C6.81489 0.0382084 6.65899 0 6.50026 0C6.34154 0 6.18564 0.0382084 6.04846 0.110734C5.91128 0.183259 5.79772 0.28751 5.71933 0.412868L4.07938 3.09793L1.25687 1.95804C1.10487 1.8963 0.936886 1.87441 0.771905 1.89484C0.606923 1.91528 0.451525 1.97722 0.323277 2.07367C0.19503 2.17012 0.0990471 2.29723 0.0461802 2.44063C-0.00668679 2.58404 -0.0143298 2.73801 0.0241151 2.88515L1.44095 8.3718C1.46804 8.47802 1.51859 8.57814 1.58955 8.66609C1.6605 8.75405 1.75037 8.828 1.85373 8.88348C1.99365 8.95955 2.15363 8.99981 2.31671 9C2.39598 8.99986 2.47484 8.98963 2.55098 8.9696C5.13354 8.32112 7.86142 8.32112 10.444 8.9696C10.6798 9.02591 10.9305 8.99493 11.1412 8.88348C11.2452 8.82871 11.3356 8.75497 11.4066 8.6669C11.4777 8.57883 11.5278 8.47835 11.554 8.3718L12.9764 2.88515C13.0144 2.73797 13.0064 2.58407 12.9531 2.44083C12.8999 2.29759 12.8036 2.17073 12.6752 2.07457Z"/>
  </symbol>
  <symbol id="time" viewBox="0 0 15 15">
    <path d="M7.5 0C6.01664 0 4.56659 0.439867 3.33323 1.26398C2.09986 2.08809 1.13856 3.25943 0.570907 4.62987C0.00324963 6.00032 -0.145275 7.50832 0.144114 8.96318C0.433503 10.418 1.14781 11.7544 2.1967 12.8033C3.2456 13.8522 4.58197 14.5665 6.03682 14.8559C7.49168 15.1453 8.99968 14.9967 10.3701 14.4291C11.7406 13.8614 12.9119 12.9001 13.736 11.6668C14.5601 10.4334 15 8.98336 15 7.5C14.9962 5.51205 14.2048 3.60661 12.7991 2.20091C11.3934 0.795212 9.48795 0.003812 7.5 0ZM11.5385 8.07692H7.5C7.34699 8.07692 7.20025 8.01614 7.09206 7.90795C6.98386 7.79975 6.92308 7.65301 6.92308 7.5V3.46154C6.92308 3.30853 6.98386 3.16179 7.09206 3.05359C7.20025 2.9454 7.34699 2.88461 7.5 2.88461C7.65301 2.88461 7.79975 2.9454 7.90795 3.05359C8.01614 3.16179 8.07692 3.30853 8.07692 3.46154V6.92308H11.5385C11.6915 6.92308 11.8382 6.98386 11.9464 7.09205C12.0546 7.20025 12.1154 7.34699 12.1154 7.5C12.1154 7.65301 12.0546 7.79975 11.9464 7.90795C11.8382 8.01614 11.6915 8.07692 11.5385 8.07692Z"/>
  </symbol>
  <symbol id="volume" viewBox="0 0 15 15">
    <path fill-rule="evenodd" clip-rule="evenodd" d="M7.96718 9.37561C7.96718 9.99639 8.21177 10.5922 8.64801 11.0341C8.98897 11.3551 9.41586 11.5703 9.87683 11.6534C10.3378 11.7366 10.813 11.6842 11.2447 11.5026V14.0605C11.2439 14.2293 11.1974 14.3946 11.1103 14.5392C11.0232 14.6837 10.8987 14.8021 10.7498 14.8817C10.601 14.9614 10.4334 14.9994 10.2648 14.9917C10.0961 14.9841 9.93269 14.931 9.7917 14.8382L4.40137 11.2496H1.87026C1.373 11.2496 0.896117 11.0521 0.544506 10.7007C0.192894 10.3493 -0.00463867 9.87261 -0.00463867 9.37561V5.62767C-0.00463867 5.13066 0.192894 4.65401 0.544506 4.30258C0.896117 3.95114 1.373 3.7537 1.87026 3.7537H4.40137L9.81045 0.118208C9.95296 0.0359703 10.1146 -0.00732422 10.2792 -0.00732422C10.4437 -0.00732422 10.6054 0.0359703 10.7479 0.118208C10.8976 0.197874 11.0229 0.316635 11.1103 0.461839C11.1978 0.607042 11.2443 0.773249 11.2447 0.942753V3.5382C10.7523 3.33541 10.2052 3.30705 9.69443 3.45782C9.18362 3.6086 8.73976 3.92945 8.43653 4.36711C8.1333 4.80477 7.98893 5.33292 8.0274 5.86389C8.06587 6.39485 8.28486 6.8967 8.64801 7.28613L8.86362 7.50164L8.64801 7.71714C8.21177 8.15902 7.96718 8.75483 7.96718 9.37561ZM14.7228 6.29271L13.5041 7.50142L14.7228 8.71013C14.8106 8.79723 14.8804 8.90086 14.928 9.01504C14.9756 9.12922 15.0001 9.25169 15.0001 9.37539C15.0001 9.49908 14.9756 9.62155 14.928 9.73573C14.8804 9.84991 14.8106 9.95354 14.7228 10.0406C14.6356 10.1285 14.5319 10.1982 14.4177 10.2457C14.3035 10.2933 14.1809 10.3178 14.0572 10.3178C13.9334 10.3178 13.8109 10.2933 13.6967 10.2457C13.5824 10.1982 13.4787 10.1285 13.3916 10.0406L12.1823 8.82257L10.973 10.0406C10.8858 10.1285 10.7821 10.1982 10.6679 10.2457C10.5537 10.2933 10.4311 10.3178 10.3074 10.3178C10.1836 10.3178 10.0611 10.2933 9.94687 10.2457C9.83263 10.1982 9.72895 10.1285 9.6418 10.0406C9.55393 9.95354 9.48419 9.84991 9.4366 9.73573C9.38901 9.62155 9.3645 9.49908 9.3645 9.37539C9.3645 9.25169 9.38901 9.12922 9.4366 9.01504C9.48419 8.90086 9.55393 8.79723 9.6418 8.71013L10.8605 7.50142L9.6418 6.29271C9.46527 6.11627 9.3661 5.87697 9.3661 5.62745C9.3661 5.37793 9.46527 5.13863 9.6418 4.96219C9.81832 4.78576 10.0577 4.68664 10.3074 4.68664C10.557 4.68664 10.7964 4.78576 10.973 4.96219L12.1823 6.18027L13.3916 4.96219C13.479 4.87483 13.5828 4.80553 13.697 4.75825C13.8112 4.71097 13.9336 4.68664 14.0572 4.68664C14.1808 4.68664 14.3032 4.71097 14.4174 4.75825C14.5316 4.80553 14.6354 4.87483 14.7228 4.96219C14.8102 5.04956 14.8795 5.15327 14.9268 5.26742C14.9741 5.38156 14.9985 5.5039 14.9985 5.62745C14.9985 5.751 14.9741 5.87334 14.9268 5.98749C14.8795 6.10163 14.8102 6.20535 14.7228 6.29271Z"/>
  </symbol>
  <symbol id="tasks" viewBox="0 0 20 20">
    <path d="M6 0H14C15.5913 0 17.1174 0.632141 18.2426 1.75736C19.3679 2.88258 20 4.4087 20 6V14C20 15.5913 19.3679 17.1174 18.2426 18.2426C17.1174 19.3679 15.5913 20 14 20H6C4.4087 20 2.88258 19.3679 1.75736 18.2426C0.632141 17.1174 0 15.5913 0 14L0 6C0 4.4087 0.632141 2.88258 1.75736 1.75736C2.88258 0.632141 4.4087 0 6 0ZM12 9C11.7348 9 11.4804 9.10536 11.2929 9.29289C11.1054 9.48043 11 9.73478 11 10C11 10.2652 11.1054 10.5196 11.2929 10.7071C11.4804 10.8946 11.7348 11 12 11H15C15.2652 11 15.5196 10.8946 15.7071 10.7071C15.8946 10.5196 16 10.2652 16 10C16 9.73478 15.8946 9.48043 15.7071 9.29289C15.5196 9.10536 15.2652 9 15 9H12ZM10 13C9.73478 13 9.48043 13.1054 9.29289 13.2929C9.10536 13.4804 9 13.7348 9 14C9 14.2652 9.10536 14.5196 9.29289 14.7071C9.48043 14.8946 9.73478 15 10 15H15C15.2652 15 15.5196 14.8946 15.7071 14.7071C15.8946 14.5196 16 14.2652 16 14C16 13.7348 15.8946 13.4804 15.7071 13.2929C15.5196 13.1054 15.2652 13 15 13H10ZM10 5C9.73478 5 9.48043 5.10536 9.29289 5.29289C9.10536 5.48043 9 5.73478 9 6C9 6.26522 9.10536 6.51957 9.29289 6.70711C9.48043 6.89464 9.73478 7 10 7H15C15.2652 7 15.5196 6.89464 15.7071 6.70711C15.8946 6.51957 16 6.26522 16 6C16 5.73478 15.8946 5.48043 15.7071 5.29289C15.5196 5.10536 15.2652 5 15 5H10ZM5.828 10.243L5.121 9.536C5.02875 9.44049 4.91841 9.36431 4.7964 9.3119C4.6744 9.25949 4.54318 9.2319 4.4104 9.23075C4.27762 9.2296 4.14594 9.2549 4.02305 9.30518C3.90015 9.35546 3.7885 9.42971 3.69461 9.52361C3.60071 9.6175 3.52646 9.72915 3.47618 9.85205C3.4259 9.97494 3.4006 10.1066 3.40175 10.2394C3.4029 10.3722 3.43049 10.5034 3.4829 10.6254C3.53531 10.7474 3.61149 10.8578 3.707 10.95L5.121 12.364C5.21387 12.457 5.32416 12.5307 5.44556 12.5811C5.56696 12.6314 5.69708 12.6573 5.8285 12.6573C5.95992 12.6573 6.09004 12.6314 6.21144 12.5811C6.33284 12.5307 6.44313 12.457 6.536 12.364L9.364 9.536C9.55177 9.34849 9.65737 9.09407 9.65756 8.82871C9.65774 8.56334 9.55251 8.30877 9.365 8.121C9.17749 7.93323 8.92307 7.82763 8.65771 7.82744C8.39234 7.82726 8.13777 7.93249 7.95 8.12L5.828 10.242V10.243Z" />
  </symbol>
  <symbol id="okProfile" viewBox="0 0 8 6">
    <path d="M6 1.5L3.25 4.25L2 3" stroke-width="2" stroke-linecap="square" stroke-linejoin="round"/>
  </symbol>
  <symbol id="closeProfile" viewBox="0 0 8 8">
    <path fill-rule="evenodd" clip-rule="evenodd" d="M6.70714 2.70726L7.41424 2.00015L6.00003 0.585938L5.29292 1.29304L4.00003 2.58594L2.70714 1.29304L2.00003 0.585938L0.585815 2.00015L1.29292 2.70726L2.58582 4.00015L1.29292 5.29304L0.585815 6.00015L2.00003 7.41436L2.70714 6.70726L4.00003 5.41436L5.29292 6.70726L6.00003 7.41436L7.41424 6.00015L6.70714 5.29304L5.41424 4.00015L6.70714 2.70726Z"/>
  </symbol>
  <symbol id="starProfile" viewBox="0 0 8 8">
    <path d="M7.97045 3.01481C7.9347 2.89814 7.86579 2.7954 7.77277 2.72005C7.67974 2.64471 7.56694 2.60028 7.44915 2.59259L5.32824 2.44074L4.54272 0.385185C4.49983 0.272001 4.42517 0.174779 4.32841 0.106105C4.23165 0.0374312 4.11724 0.000467735 4 0C3.88276 0.000467735 3.76835 0.0374312 3.67159 0.106105C3.57483 0.174779 3.50017 0.272001 3.45728 0.385185L2.65747 2.45185L0.550853 2.59259C0.433205 2.60078 0.320632 2.64539 0.227695 2.72066C0.134758 2.79594 0.0657348 2.89841 0.0295535 3.01481C-0.00760135 3.13301 -0.00977217 3.26004 0.0233209 3.37952C0.0564141 3.49901 0.123254 3.60547 0.215222 3.68519L1.83625 5.10741L1.35423 7.07407C1.32088 7.20712 1.32688 7.34749 1.37145 7.47695C1.41602 7.60641 1.49711 7.71897 1.60416 7.8C1.70808 7.87736 1.83188 7.9208 1.95973 7.92476C2.08758 7.92872 2.21367 7.89302 2.32184 7.82222L3.99643 6.72222H4.00357L5.8067 7.9037C5.89919 7.96605 6.00703 7.99948 6.11733 8C6.2074 7.99927 6.29611 7.97712 6.37663 7.93527C6.45716 7.89341 6.52736 7.83296 6.58184 7.75856C6.63632 7.68416 6.67363 7.5978 6.69091 7.5061C6.70818 7.41441 6.70496 7.31983 6.68148 7.22963L6.17089 5.07778L7.78478 3.68519C7.87675 3.60547 7.94359 3.49901 7.97668 3.37952C8.00977 3.26004 8.0076 3.13301 7.97045 3.01481Z" />
  </symbol>
  <symbol id="items" viewBox="0 0 21 21">
    <rect width="10" height="10" rx="2"/>
    <rect y="11" width="10" height="10" rx="2"/>
    <rect x="11" width="10" height="10" rx="2"/>
    <rect x="11" y="11" width="10" height="10" rx="2"/>
  </symbol>
  <symbol id="contracts" viewBox="0 0 21 19">
    <path d="M20.2312 13.7255C20.1626 13.6417 20.0777 13.5744 19.9822 13.5283C19.8868 13.4822 19.7831 13.4584 19.6781 13.4583H18.75V3.16667C18.7475 2.32762 18.4307 1.52368 17.8686 0.930378C17.3065 0.337078 16.5449 0.00260981 15.75 0H3.00001C2.20512 0.00260981 1.4435 0.337078 0.881425 0.930378C0.319352 1.52368 0.00248786 2.32762 1.54105e-05 3.16667C-0.00236847 3.94601 0.271901 4.69802 0.768764 5.27448C0.833154 5.3522 0.91149 5.41569 0.999252 5.46128C1.08701 5.50687 1.18246 5.53366 1.28009 5.5401C1.37771 5.54654 1.47558 5.53251 1.56803 5.49881C1.66049 5.4651 1.74571 5.41241 1.81876 5.34375C1.89269 5.27492 1.95304 5.19137 1.99635 5.0979C2.03967 5.00442 2.0651 4.90285 2.0712 4.799C2.07729 4.69514 2.06393 4.59103 2.03188 4.49263C1.99982 4.39423 1.9497 4.30346 1.88439 4.22552C1.72177 4.03453 1.60559 3.80465 1.54589 3.55571C1.48618 3.30677 1.48474 3.04624 1.54167 2.79658C1.59861 2.54691 1.71222 2.31561 1.8727 2.12262C2.03319 1.92963 2.23574 1.78074 2.46289 1.68879C2.69004 1.59683 2.93496 1.56458 3.17655 1.5948C3.41814 1.62502 3.64914 1.71682 3.84963 1.86227C4.05012 2.00772 4.21409 2.20246 4.32739 2.42971C4.4407 2.65695 4.49994 2.90987 4.50001 3.16667V15.8333C4.50248 16.6724 4.81934 17.4763 5.38142 18.0696C5.94349 18.6629 6.70512 18.9974 7.5 19H18C18.7949 18.9974 19.5565 18.6629 20.1186 18.0696C20.6806 17.4763 20.9975 16.6724 21 15.8333C21.0024 15.054 20.7281 14.302 20.2312 13.7255ZM8 6C8 5.44772 8.44771 5 9 5H15C15.5523 5 16 5.44772 16 6C16 6.55228 15.5523 7 15 7H9C8.44771 7 8 6.55228 8 6ZM8 10C8 9.44771 8.44771 9 9 9H15C15.5523 9 16 9.44771 16 10C16 10.5523 15.5523 11 15 11H9C8.44771 11 8 10.5523 8 10ZM18 17.4167H10.0969C10.3598 16.935 10.4988 16.3892 10.5 15.8333C10.5017 15.5662 10.4702 15.3001 10.4062 15.0417H19.3031C19.432 15.2832 19.4989 15.5559 19.4973 15.8331C19.4957 16.1102 19.4257 16.3822 19.2941 16.622C19.1625 16.8618 18.9739 17.0613 18.747 17.2006C18.52 17.34 18.2625 17.4145 18 17.4167Z"/>
  </symbol>
  <symbol id="upgrades" viewBox="0 0 19 21">
    <path fill-rule="evenodd" clip-rule="evenodd" d="M8.7766 0.757801C9.17054 0.345102 9.82938 0.345102 10.2233 0.757801L18.3863 9.30952C18.9938 9.94589 18.5427 11 17.663 11L16 11C15.4477 11 15 11.4477 15 12L15 15C15 15.5523 14.5522 16 14 16L4.99996 16C4.44768 16 3.99996 15.5523 3.99996 15L3.99996 12C3.99996 11.4477 3.55224 11 2.99996 11L1.33695 11C0.457214 11 0.00615799 9.94589 0.613595 9.30952L8.7766 0.757801ZM15 19C15 18.4477 14.5523 18 14 18L5 18C4.44772 18 4 18.4477 4 19L4 20C4 20.5523 4.44772 21 5 21L14 21C14.5523 21 15 20.5523 15 20L15 19Z"/>
  </symbol>
  <symbol id="giveaway" viewBox="0 0 21 19">
    <path d="M19.3846 5.03124H15.851C16.3597 4.41398 16.6053 3.63403 16.538 2.84933C16.4707 2.06463 16.0956 1.33381 15.4886 0.804852C14.8816 0.275892 14.0881 -0.0116796 13.2687 0.000363533C12.4494 0.0124067 11.6654 0.323165 11.0755 0.869716C10.8375 1.10115 10.6429 1.37023 10.5 1.66516C10.3571 1.37023 10.1625 1.10115 9.92452 0.869716C9.33465 0.323165 8.55065 0.0124067 7.73127 0.000363533C6.9119 -0.0116796 6.11838 0.275892 5.51138 0.804852C4.90438 1.33381 4.52927 2.06463 4.46199 2.84933C4.39472 3.63403 4.64031 4.41398 5.14904 5.03124H1.61538C1.18696 5.03124 0.776078 5.19477 0.473135 5.48584C0.170192 5.77691 0 6.17169 0 6.58333V9.6875C0 10.0991 0.170192 10.4939 0.473135 10.785C0.776078 11.0761 1.57157 11 2 11V17C2 18.1046 2.89543 19 4 19H17C18.1046 19 19 18.1046 19 17V11C19.4284 11 20.2239 11.0761 20.5269 10.785C20.8298 10.4939 21 10.0991 21 9.6875V6.58333C21 6.17169 20.8298 5.77691 20.5269 5.48584C20.2239 5.19477 19.813 5.03124 19.3846 5.03124ZM12.2163 1.96588C12.3633 1.81007 12.5416 1.68457 12.7406 1.59699C12.9395 1.50941 13.1549 1.46159 13.3737 1.45641C13.5924 1.45124 13.81 1.48882 14.0132 1.56688C14.2164 1.64495 14.4009 1.76186 14.5557 1.91054C14.7104 2.05921 14.8321 2.23654 14.9133 2.43176C14.9946 2.62699 15.0337 2.83604 15.0283 3.04623C15.0229 3.25642 14.9732 3.46337 14.882 3.65451C14.7909 3.84566 14.6602 4.01702 14.4981 4.15819C14.0034 4.64322 12.5596 4.90513 11.338 5.00214C11.4389 3.82838 11.7115 2.4412 12.2163 1.96588ZM6.50192 1.96588C6.80604 1.67796 7.21584 1.51657 7.64279 1.51657C8.06973 1.51657 8.47954 1.67796 8.78365 1.96588C9.28846 2.4412 9.56106 3.82838 9.66202 5.00214C8.44038 4.90513 6.99663 4.64322 6.50192 4.15819C6.20227 3.86599 6.03429 3.47225 6.03429 3.06204C6.03429 2.65182 6.20227 2.25808 6.50192 1.96588ZM19 8C19 8.55229 18.5523 9 18 9H11V16.5C11 16.7761 10.7761 17 10.5 17C10.2239 17 10 16.7761 10 16.5V9H3C2.44772 9 2 8.55229 2 8C2 7.44772 2.44772 7 3 7H10V9H11V7H18C18.5523 7 19 7.44772 19 8Z" />
  </symbol>
  <symbol id="see" viewBox="0 0 21 21">
    <path d="M20.9875 4.98643L19.8015 11.7393C19.7037 12.2971 19.4205 12.8017 19.0013 13.165C18.5821 13.5284 18.0534 13.7275 17.5074 13.7278H6.23111L6.65883 16.1504H17.1088C17.5703 16.1504 18.0213 16.2924 18.405 16.5586C18.7886 16.8248 19.0877 17.2032 19.2643 17.6459C19.4408 18.0885 19.487 18.5756 19.397 19.0455C19.307 19.5155 19.0848 19.9471 18.7585 20.2859C18.4322 20.6247 18.0165 20.8555 17.564 20.9489C17.1114 21.0424 16.6423 20.9944 16.216 20.8111C15.7897 20.6277 15.4253 20.3172 15.169 19.9188C14.9126 19.5204 14.7758 19.0521 14.7758 18.5729C14.7759 18.2976 14.8219 18.0244 14.9119 17.7654H9.196C9.28596 18.0244 9.332 18.2976 9.33209 18.5729C9.33279 18.9638 9.2424 19.349 9.06864 19.6957C8.89488 20.0425 8.6429 20.3404 8.33422 20.5641C8.02553 20.7878 7.66931 20.9306 7.29596 20.9803C6.9226 21.03 6.54319 20.9852 6.19013 20.8497C5.83706 20.7142 5.52082 20.492 5.2684 20.202C5.01597 19.9121 4.83486 19.563 4.74051 19.1846C4.64617 18.8062 4.6414 18.4098 4.72661 18.029C4.81182 17.6483 4.98448 17.2947 5.22986 16.9983L2.53716 1.61504H0.777674C0.571422 1.61504 0.373618 1.52996 0.227775 1.37852C0.0819332 1.22708 0 1.02169 0 0.807519C0 0.593351 0.0819332 0.387956 0.227775 0.236517C0.373618 0.0850776 0.571422 0 0.777674 0H2.53716C2.90018 0.000824575 3.25148 0.133476 3.53022 0.374975C3.80895 0.616474 3.99755 0.951605 4.06335 1.32231L4.53967 4.03759H20.2195C20.3331 4.03784 20.4451 4.06422 20.5477 4.11483C20.6502 4.16545 20.7406 4.23905 20.8125 4.33032C20.8877 4.41873 20.9425 4.52375 20.9729 4.63742C21.0032 4.7511 21.0082 4.87045 20.9875 4.98643Z" fill="#FFA216"/>
  </symbol>
  <symbol id="all" viewBox="0 0 17 21">
    <path d="M16.7778 5.88607L11.3687 0.232224C11.2215 0.0822178 11.0238 -0.00119848 10.8182 1.3014e-05H1.54545C1.13557 1.3014e-05 0.742481 0.170205 0.452653 0.473148C0.162824 0.776091 0 1.18697 0 1.6154V19.3846C0 19.813 0.162824 20.2239 0.452653 20.5269C0.742481 20.8298 1.13557 21 1.54545 21H15.4545C15.8644 21 16.2575 20.8298 16.5473 20.5269C16.8372 20.2239 17 19.813 17 19.3846V6.46155C17.0011 6.24666 16.9213 6.03994 16.7778 5.88607ZM10.8182 13.7308H9.27272V15.3462C9.27272 15.5604 9.19131 15.7658 9.04639 15.9173C8.90148 16.0688 8.70493 16.1538 8.49999 16.1538C8.29505 16.1538 8.09851 16.0688 7.95359 15.9173C7.80868 15.7658 7.72727 15.5604 7.72727 15.3462V13.7308H6.18181C5.97687 13.7308 5.78033 13.6457 5.63541 13.4942C5.4905 13.3427 5.40909 13.1373 5.40909 12.9231C5.40909 12.7089 5.4905 12.5034 5.63541 12.352C5.78033 12.2005 5.97687 12.1154 6.18181 12.1154H7.72727V10.5C7.72727 10.2858 7.80868 10.0804 7.95359 9.92888C8.09851 9.77741 8.29505 9.69232 8.49999 9.69232C8.70493 9.69232 8.90148 9.77741 9.04639 9.92888C9.19131 10.0804 9.27272 10.2858 9.27272 10.5V12.1154H10.8182C11.0231 12.1154 11.2197 12.2005 11.3646 12.352C11.5095 12.5034 11.5909 12.7089 11.5909 12.9231C11.5909 13.1373 11.5095 13.3427 11.3646 13.4942C11.2197 13.6457 11.0231 13.7308 10.8182 13.7308ZM10.8182 6.46155V1.94857L15.1358 6.46155H10.8182Z" fill="#FF4B55"/>
  </symbol>
  <symbol id="exchange" viewBox="0 0 19 18">
    <circle cx="4" cy="5" r="3" fill="#73AF00"/>
    <circle cx="15" cy="13" r="3" fill="#73AF00"/>
    <path d="M15 10.6C13.3431 10.6 12 12.0326 12 13.8C12 15.5674 13.3431 17 15 17C16.6569 17 18 15.5674 18 13.8C18 12.0326 16.6569 10.6 15 10.6ZM15 10.6V5.26667C15 4.08846 14.1046 3.13333 13 3.13333H12M12 3.13333V1L10 3.13333M12 3.13333H10M12 3.13333V5.26667L10 3.13333" stroke="#73AF00" stroke-width="2" stroke-linecap="round" stroke-linejoin="round"/>
    <path d="M4 7.4C5.65685 7.4 7 5.96731 7 4.2C7 2.43269 5.65685 1 4 1C2.34315 1 1 2.43269 1 4.2C1 5.96731 2.34315 7.4 4 7.4ZM4 7.4V12.7333C4 13.9116 4.89543 14.8667 6 14.8667H7M7 14.8667V17L9 14.8667M7 14.8667H9M7 14.8667V12.7333L9 14.8667" stroke="#73AF00" stroke-width="2" stroke-linecap="round" stroke-linejoin="round"/>
  </symbol>
  <symbol id="loop" viewBox="0 0 12 12">
    <path d="M10.6667 10.6668L8.30403 8.30415M8.30403 8.30415C9.043 7.56525 9.50004 6.54441 9.50004 5.41683C9.50004 3.16167 7.67187 1.3335 5.41671 1.3335C3.16155 1.3335 1.33337 3.16167 1.33337 5.41683C1.33337 7.672 3.16155 9.50016 5.41671 9.50016C6.54429 9.50016 7.56512 9.04312 8.30403 8.30415Z" stroke-width="1.5" stroke-linecap="square" stroke-linejoin="round"/>
  </symbol>
  <symbol style="overflow: visible;" id="loadingLogo" viewBox="0 0 40 40">
    <path fill-rule="evenodd" clip-rule="evenodd" d="M13.3015 19.1993C11.2008 21.1423 8.26346 26.9571 14.5997 32.8586C12.3015 32.2615 5.10575 27.3862 6.13422 18.7854C5.93155 18.6927 5.91745 18.6624 5.93578 18.6589L6.16247 17.7439L5.73292 17.2328C5.81393 16.9709 6.02391 16.4044 6.21607 16.2346C6.29909 16.161 6.48715 16.0726 6.71523 15.9652C7.14552 15.7627 7.71961 15.4927 8.00685 15.1267C8.44673 14.5668 8.87028 13.8777 8.59217 13.0063C8.45512 12.7511 8.35935 12.2217 8.32857 11.989C8.59356 11.6544 11.9866 7.49082 16.6675 6.38958C18.3569 5.99228 20.9605 6.03525 22.6499 6.40357C22.828 6.44247 22.9457 6.60344 22.927 6.78567C22.9261 6.79413 22.9253 6.80276 22.9243 6.81126C22.8853 7.19005 22.8388 7.64172 23.0423 8.0795C23.2303 8.62944 23.244 9.28451 23.0356 10.0396C22.8839 10.5891 21.467 12.9556 18.373 11.5773C18.1439 11.4678 16.7214 11.1732 16.721 12.7712C16.2178 12.7153 14.252 12.6041 14.4924 14.7392C14.4527 14.7438 14.3947 14.7462 14.3232 14.7493C13.6734 14.7767 11.9138 14.8514 12.6913 16.9432C12.8205 17.2264 13.5539 18.1911 13.8797 18.3257C14.0088 18.4591 14.0637 18.5983 14.075 18.6511L13.4628 19.3661L13.3015 19.1993ZM20.6713 6.84906C19.461 6.53464 18.1911 7.46286 17.8663 8.6392C17.5115 9.92458 18.2445 10.9416 19.4548 11.256C20.6653 11.5706 22.1073 10.5677 22.3609 9.37404C22.6857 8.1977 21.8818 7.16361 20.6713 6.84906Z" fill="white"/>
    <g filter="var(--logo-filterg)">
      <path filter="var(--logo-filter)" fill-rule="evenodd" clip-rule="evenodd" d="M26.6985 20.8007C28.7991 18.8576 31.7365 13.0428 25.4001 7.14136C27.6986 7.73856 34.8942 12.6137 33.8658 21.2146C34.0684 21.3072 34.0825 21.3375 34.0642 21.341L33.8376 22.2561L34.2669 22.7671C34.1859 23.0291 33.976 23.5955 33.7839 23.7653C33.7007 23.8389 33.513 23.9273 33.2847 24.0347C32.8544 24.2372 32.2804 24.5074 31.993 24.8732C31.5532 25.4331 31.1297 26.1222 31.4078 26.9935C31.5447 27.2489 31.6406 27.7782 31.6714 28.0109C31.4064 28.3457 28.0135 32.5092 23.3324 33.6104C21.6432 34.0077 19.0393 33.9647 17.35 33.5963C17.1721 33.5576 17.0542 33.3965 17.073 33.2144C17.0738 33.2058 17.0747 33.1973 17.0756 33.1886C17.1145 32.8099 17.1612 32.3581 16.9576 31.9204C16.7696 31.3705 16.756 30.7153 16.9645 29.9604C17.1162 29.4109 18.533 27.0445 21.627 28.4228C21.856 28.5322 23.2787 28.8269 23.279 27.2287C23.7821 27.2846 25.7478 27.3958 25.5076 25.2608C25.5474 25.2563 25.6054 25.2538 25.6768 25.2508C26.3265 25.2232 28.0862 25.1487 27.3087 23.0568C27.1794 22.7735 26.4462 21.8089 26.1202 21.6742C25.9911 21.5408 25.9362 21.4017 25.9249 21.3488L26.537 20.6339L26.6985 20.8007ZM19.3285 33.1509C20.5391 33.4653 21.8089 32.5372 22.1337 31.3607C22.4884 30.0754 21.7555 29.0584 20.5451 28.7438C19.3348 28.4294 17.8926 29.4324 17.639 30.6258C17.3142 31.8023 18.1182 32.8365 19.3285 33.1509Z" fill="#FFA216"/>
    </g>
  </symbol>
  <symbol id="dollar" viewBox="0 0 8 12">
    <path d="M2.83333 5.36675C2.53717 5.36675 2.25315 5.2491 2.04373 5.03968C1.83432 4.83027 1.71667 4.54624 1.71667 4.25008C1.71667 3.95392 1.83432 3.66989 2.04373 3.46048C2.25315 3.25106 2.53717 3.13341 2.83333 3.13341H5.75C5.89145 3.13341 6.0271 3.1896 6.12712 3.28962C6.22714 3.38964 6.28333 3.5253 6.28333 3.66675C6.28333 3.83472 6.35006 3.99581 6.46883 4.11458C6.5876 4.23336 6.7487 4.30008 6.91667 4.30008C7.08464 4.30008 7.24573 4.23336 7.3645 4.11458C7.48327 3.99581 7.55 3.83472 7.55 3.66675C7.55 3.18936 7.36036 2.73152 7.02279 2.39396C6.68523 2.05639 6.22739 1.86675 5.75 1.86675H4.63333V0.750081C4.63333 0.582111 4.56661 0.42102 4.44783 0.302247C4.32906 0.183474 4.16797 0.116748 4 0.116748C3.83203 0.116748 3.67094 0.183474 3.55217 0.302247C3.43339 0.42102 3.36667 0.582111 3.36667 0.750081V1.86675H2.83333C2.20123 1.86675 1.59502 2.11785 1.14806 2.56481C0.7011 3.01177 0.45 3.61798 0.45 4.25008C0.45 4.88218 0.7011 5.48839 1.14806 5.93535C1.59502 6.38231 2.20123 6.63341 2.83333 6.63341H5.16667C5.46282 6.63341 5.74685 6.75106 5.95627 6.96048C6.16568 7.16989 6.28333 7.45392 6.28333 7.75008C6.28333 8.04624 6.16568 8.33027 5.95627 8.53968C5.74685 8.7491 5.46282 8.86675 5.16667 8.86675H2.25C2.10855 8.86675 1.9729 8.81056 1.87288 8.71054C1.77286 8.61052 1.71667 8.47486 1.71667 8.33341C1.71667 8.16544 1.64994 8.00435 1.53117 7.88558C1.41239 7.76681 1.2513 7.70008 1.08333 7.70008C0.915363 7.70008 0.754272 7.76681 0.635499 7.88558C0.516726 8.00435 0.45 8.16544 0.45 8.33341C0.45 8.8108 0.639642 9.26864 0.977208 9.60621C1.31477 9.94377 1.77261 10.1334 2.25 10.1334H3.36667V11.2501C3.36667 11.4181 3.43339 11.5791 3.55217 11.6979C3.67094 11.8167 3.83203 11.8834 4 11.8834C4.16797 11.8834 4.32906 11.8167 4.44783 11.6979C4.56661 11.5791 4.63333 11.4181 4.63333 11.2501V10.1334H5.16667C5.79877 10.1334 6.40498 9.88231 6.85194 9.43535C7.2989 8.98839 7.55 8.38218 7.55 7.75008C7.55 7.11798 7.2989 6.51177 6.85194 6.06481C6.40498 5.61785 5.79877 5.36675 5.16667 5.36675H2.83333Z" fill="#FF4B55" stroke="#FF4B55" stroke-width="0.1"/>
  </symbol>
  <symbol id="tasksFacebook" viewBox="0 0 68 68">
    <rect width="68" height="68" rx="5" fill="#1877F2"/>
    <path d="M56 31C56 18.8497 46.1503 9 34 9C21.8497 9 12 18.8497 12 31C12 41.9808 20.0451 51.0823 30.5625 52.7327V37.3594H24.9766V31H30.5625V26.1531C30.5625 20.6394 33.8469 17.5938 38.8722 17.5938C41.2792 17.5938 43.7969 18.0234 43.7969 18.0234V23.4375H41.0227C38.2898 23.4375 37.4375 25.1334 37.4375 26.8732V31H43.5391L42.5637 37.3594H37.4375V52.7327C47.9549 51.0823 56 41.9808 56 31Z" fill="#1877F2"/>
    <path d="M42.5637 37.3594L43.5391 31H37.4375V26.8731C37.4375 25.1333 38.2898 23.4375 41.0227 23.4375H43.7969V18.0234C43.7969 18.0234 41.2792 17.5938 38.8722 17.5938C33.8469 17.5938 30.5625 20.6394 30.5625 26.1531V31H24.9766V37.3594H30.5625V52.7327C31.6997 52.9109 32.849 53.0003 34 53C35.1694 53 36.3174 52.9085 37.4375 52.7327V37.3594H42.5637Z" fill="white"/>
  </symbol>
  <symbol id="tasksG2A" viewBox="0 0 68 68">
    <rect width="68" height="68" rx="5" fill="white"/>
    <path d="M30.6489 32.4255C29.4898 32.4256 28.3782 32.8804 27.5586 33.6899C26.7391 34.4994 26.2786 35.5972 26.2786 36.742V41.5982H38.5427L40.2822 38.3607H29.7085V37.0628C29.7085 36.6914 29.858 36.3351 30.1239 36.0724C30.3899 35.8097 30.7506 35.6621 31.1267 35.662L38.0244 35.6615C39.256 35.6615 40.4371 35.1783 41.308 34.3182C42.1788 33.4581 42.6681 32.2915 42.6681 31.0751C42.6681 29.8588 42.1788 28.6922 41.308 27.8321C40.4371 26.972 39.256 26.4888 38.0244 26.4888L29.8159 26.4902C29.3855 26.4902 28.9592 26.574 28.5615 26.7367C28.1638 26.8993 27.8025 27.1378 27.4981 27.4384C27.1937 27.7391 26.9522 28.096 26.7875 28.4887C26.6228 28.8815 26.538 29.3025 26.538 29.7277L37.7854 29.7274C38.1452 29.7244 38.492 29.8598 38.7525 30.1049C39.0131 30.35 39.1669 30.6856 39.1814 31.0407C39.1864 31.2206 39.1548 31.3997 39.0886 31.5673C39.0224 31.735 38.9228 31.8879 38.7958 32.0169C38.6688 32.146 38.5169 32.2486 38.3491 32.3187C38.1813 32.3889 38.0009 32.4251 37.8187 32.4253L30.6489 32.4255Z" fill="black" fill-opacity="0.8"/>
    <path d="M14.8497 38.3526C13.6926 38.3526 12.5828 37.8986 11.7646 37.0905C10.9464 36.2824 10.4867 35.1863 10.4867 34.0435C10.4867 32.9007 10.9464 31.8046 11.7646 30.9965C12.5828 30.1884 13.6926 29.7344 14.8497 29.7344L23.7062 29.7277V26.4902L14.6412 26.4966C12.6146 26.4966 10.6711 27.2917 9.23805 28.707C7.80503 30.1223 6.99997 32.0419 6.99997 34.0435C6.99997 36.0451 7.80503 37.9647 9.23805 39.38C10.6711 40.7953 12.6146 41.5904 14.6412 41.5904L23.7062 41.598V32.4252L13.8723 32.4255V35.663L20.2764 35.6629V38.3606L14.8497 38.3526Z" fill="#E85C00"/>
    <path d="M51.1684 39.7607H50.6407C50.394 39.7607 50.1575 39.8575 49.9831 40.0298C49.8086 40.202 49.7107 40.4357 49.7107 40.6793C49.7107 40.9229 49.8086 41.1566 49.9831 41.3288C50.1575 41.5011 50.394 41.5979 50.6407 41.5979H51.1684C51.4151 41.5979 51.6516 41.5011 51.826 41.3288C52.0004 41.1566 52.0984 40.9229 52.0984 40.6793C52.0984 40.4357 52.0004 40.202 51.826 40.0298C51.6516 39.8575 51.4151 39.7607 51.1684 39.7607ZM51.1494 41.2139H50.6597C50.5161 41.2139 50.3785 41.1575 50.277 41.0573C50.1755 40.9571 50.1185 40.8211 50.1185 40.6794C50.1185 40.5376 50.1755 40.4017 50.277 40.3014C50.3785 40.2012 50.5161 40.1449 50.6597 40.1449H51.1494C51.293 40.1449 51.4306 40.2012 51.5321 40.3014C51.6336 40.4017 51.6906 40.5376 51.6906 40.6794C51.6906 40.8211 51.6336 40.9571 51.5321 41.0573C51.4306 41.1575 51.293 41.2139 51.1494 41.2139Z" fill="#0080BB"/>
    <path d="M47.4595 40.6793C47.4598 40.9228 47.5579 41.1563 47.7322 41.3285C47.9066 41.5007 48.143 41.5976 48.3895 41.5979H49.4528V41.2139H48.4086C48.265 41.2139 48.1274 41.1575 48.0259 41.0573C47.9244 40.9571 47.8674 40.8211 47.8674 40.6794C47.8674 40.5376 47.9244 40.4017 48.0259 40.3014C48.1274 40.2012 48.265 40.1449 48.4086 40.1449H49.4528V39.7607H48.3895C48.143 39.761 47.9066 39.8579 47.7322 40.0301C47.5579 40.2023 47.4598 40.4357 47.4595 40.6793Z" fill="#0080BB"/>
    <path d="M54.1572 39.7607L53.7517 40.8611L53.3462 39.7607H52.8326L52.1432 41.5976H52.5808L53.0894 40.1869L53.5425 41.4165H53.961L54.414 40.1869L54.9226 41.5976H55.3596L54.6708 39.7607H54.1572Z" fill="#0080BB"/>
    <path d="M46.9799 41.598C47.1202 41.598 47.2339 41.4857 47.2339 41.3471C47.2339 41.2085 47.1202 41.0962 46.9799 41.0962C46.8396 41.0962 46.7258 41.2085 46.7258 41.3471C46.7258 41.4857 46.8396 41.598 46.9799 41.598Z" fill="#0080BB"/>
    <path d="M53.8929 28.2309C53.6403 27.7403 53.2811 27.311 52.8409 26.9735C52.3254 26.5951 51.6984 26.3943 51.0562 26.4021C50.4287 26.3943 49.8169 26.5957 49.3194 26.9735C48.8792 27.311 48.52 27.7403 48.2674 28.2309C45.4024 33.6212 41.1124 41.5982 41.1124 41.5982H45.0273L51.0562 30.1904L53.8895 35.5517H49.5272L51.0652 38.4521H55.4224L57.0852 41.5982H61C61 41.5982 56.7578 33.6212 53.8929 28.2309Z" fill="#0080BB"/>
  </symbol>
  <symbol id="sound" viewBox="0 0 23 20">
    <path d="M19.5219 5.22803C20.1494 5.85416 20.6473 6.59793 20.9871 7.41676C21.3268 8.23559 21.5017 9.11339 21.5017 9.9999C21.5017 10.8864 21.3268 11.7642 20.9871 12.583C20.6473 13.4019 20.1494 14.1456 19.5219 14.7718" stroke-width="1.3" stroke-linecap="round" stroke-linejoin="round"/>
    <path d="M6.5 13.75H2C1.80109 13.75 1.61032 13.671 1.46967 13.5303C1.32902 13.3897 1.25 13.1989 1.25 13V7C1.25 6.80109 1.32902 6.61032 1.46967 6.46967C1.61032 6.32902 1.80109 6.25 2 6.25H6.5L13.25 1V19L6.5 13.75Z" stroke-width="1.3" stroke-linecap="round" stroke-linejoin="round"/>
    <path d="M6.5 6.25V13.75" stroke-width="1.3" stroke-linecap="round" stroke-linejoin="round"/>
    <path d="M16.8688 7.88135C17.1477 8.1592 17.369 8.48939 17.52 8.85298C17.671 9.21657 17.7488 9.6064 17.7488 10.0001C17.7488 10.3938 17.671 10.7836 17.52 11.1472C17.369 11.5108 17.1477 11.841 16.8688 12.1188" stroke-width="1.3" stroke-linecap="round" stroke-linejoin="round"/>
  </symbol>
  <symbol id="ok" width="10" height="9" viewBox="0 0 10 9">
    <path d="M8.18635 1.20554L3.62511 6.11926L1.87079 4.23376C1.77548 4.11414 1.65818 4.01698 1.52627 3.94839C1.39437 3.8798 1.25069 3.84126 1.10426 3.83518C0.957836 3.8291 0.811821 3.85562 0.675383 3.91307C0.538944 3.97052 0.415028 4.05766 0.311412 4.16903C0.207795 4.28039 0.126716 4.41357 0.0732628 4.56021C0.0198096 4.70685 -0.00486353 4.86379 0.000792294 5.02116C0.00644811 5.17854 0.0423109 5.33296 0.106129 5.47473C0.169947 5.6165 0.260343 5.74256 0.371644 5.84501L2.87022 8.54184C2.96957 8.64775 3.08739 8.73153 3.21693 8.7884C3.34648 8.84527 3.48519 8.87409 3.62511 8.87323C3.90404 8.87196 4.17134 8.75295 4.36937 8.54184L9.6855 2.82821C9.78515 2.72198 9.86425 2.59559 9.91823 2.45634C9.97221 2.31709 10 2.16773 10 2.01688C10 1.86602 9.97221 1.71666 9.91823 1.57741C9.86425 1.43816 9.78515 1.31177 9.6855 1.20554C9.48629 0.992707 9.21681 0.873245 8.93593 0.873245C8.65504 0.873245 8.38556 0.992707 8.18635 1.20554Z" fill="#90DB01"/>
  </symbol>

</svg>